  0
SECTION
  2
HEADER
  9
$ACADVER
  1
AC1009
  9
$EXTMIN
 10
0.0
 20
0.0
 30
0.0
  9
$EXTMAX
 10
1000.0
 20
1000.0
 30
0.0
  9
$FILLMODE
 70
 0
  9
$SPLFRAME
 70
 1
  0
ENDSEC
  0
SECTION
  2
TABLES
  0
TABLE
  2
LAYER
 70
1
  0
LAYER
  2
0
 70
     0
 62
     7
  6
CONTINUOUS
  0
ENDTAB
  0
ENDSEC
  0
SECTION
  2
ENTITIES
  0
POLYLINE
  8
0
 62
     250
 66
     1
 10
0
 20
0
 30
0.0
 70
     1
 40
0.992
 41
0.992
  0
VERTEX
  8
0
 10
15.161
 20
21.0912
 30
0.0
 40
0.0137778
 41
0.0137778
  0
VERTEX
  8
0
 10
21.6617
 20
20.5179
 30
0.0
 40
0.0137778
 41
0.0137778
  0
VERTEX
  8
0
 10
21.6586
 20
20.4892
 30
0.0
 40
0.0137778
 41
0.0137778
  0
VERTEX
  8
0
 10
21.6513
 20
20.4029
 30
0.0
 40
0.0137778
 41
0.0137778
  0
VERTEX
  8
0
 10
21.6437
 20
20.275
 30
0.0
 40
0.0137778
 41
0.0137778
  0
VERTEX
  8
0
 10
21.6399
 20
20.1356
 30
0.0
 40
0.0137778
 41
0.0137778
  0
VERTEX
  8
0
 10
21.6406
 20
19.9861
 30
0.0
 40
0.0137778
 41
0.0137778
  0
VERTEX
  8
0
 10
21.6467
 20
19.8279
 30
0.0
 40
0.0137778
 41
0.0137778
  0
VERTEX
  8
0
 10
21.6592
 20
19.6628
 30
0.0
 40
0.0137778
 41
0.0137778
  0
VERTEX
  8
0
 10
21.6789
 20
19.4918
 30
0.0
 40
0.0137778
 41
0.0137778
  0
VERTEX
  8
0
 10
21.7068
 20
19.3165
 30
0.0
 40
0.0137778
 41
0.0137778
  0
VERTEX
  8
0
 10
21.7439
 20
19.1386
 30
0.0
 40
0.0137778
 41
0.0137778
  0
VERTEX
  8
0
 10
21.791
 20
18.9592
 30
0.0
 40
0.0137778
 41
0.0137778
  0
VERTEX
  8
0
 10
21.8489
 20
18.78
 30
0.0
 40
0.0137778
 41
0.0137778
  0
VERTEX
  8
0
 10
21.9186
 20
18.6022
 30
0.0
 40
0.0137778
 41
0.0137778
  0
VERTEX
  8
0
 10
22.001
 20
18.4275
 30
0.0
 40
0.0137778
 41
0.0137778
  0
VERTEX
  8
0
 10
22.0971
 20
18.2572
 30
0.0
 40
0.0137778
 41
0.0137778
  0
VERTEX
  8
0
 10
22.2076
 20
18.0928
 30
0.0
 40
0.0137778
 41
0.0137778
  0
VERTEX
  8
0
 10
22.3335
 20
17.9358
 30
0.0
 40
0.0137778
 41
0.0137778
  0
VERTEX
  8
0
 10
22.4757
 20
17.7875
 30
0.0
 40
0.0137778
 41
0.0137778
  0
VERTEX
  8
0
 10
22.6351
 20
17.6494
 30
0.0
 40
0.0137778
 41
0.0137778
  0
VERTEX
  8
0
 10
22.8128
 20
17.5231
 30
0.0
 40
0.0137778
 41
0.0137778
  0
VERTEX
  8
0
 10
23.0094
 20
17.41
 30
0.0
 40
0.0137778
 41
0.0137778
  0
VERTEX
  8
0
 10
23.226
 20
17.3113
 30
0.0
 40
0.0137778
 41
0.0137778
  0
VERTEX
  8
0
 10
23.4633
 20
17.2287
 30
0.0
 40
0.0137778
 41
0.0137778
  0
VERTEX
  8
0
 10
23.7224
 20
17.1638
 30
0.0
 40
0.0137778
 41
0.0137778
  0
VERTEX
  8
0
 10
24.004
 20
17.1175
 30
0.0
 40
0.0137778
 41
0.0137778
  0
VERTEX
  8
0
 10
24.3093
 20
17.0918
 30
0.0
 40
0.0137778
 41
0.0137778
  0
VERTEX
  8
0
 10
24.639
 20
17.0878
 30
0.0
 40
0.0137778
 41
0.0137778
  0
VERTEX
  8
0
 10
24.994
 20
17.1072
 30
0.0
 40
0.0137778
 41
0.0137778
  0
VERTEX
  8
0
 10
25.3754
 20
17.1513
 30
0.0
 40
0.0137778
 41
0.0137778
  0
VERTEX
  8
0
 10
25.7839
 20
17.2217
 30
0.0
 40
0.0137778
 41
0.0137778
  0
VERTEX
  8
0
 10
26.2204
 20
17.3196
 30
0.0
 40
0.0137778
 41
0.0137778
  0
VERTEX
  8
0
 10
26.6858
 20
17.4465
 30
0.0
 40
0.0137778
 41
0.0137778
  0
VERTEX
  8
0
 10
27.0582
 20
17.5624
 30
0.0
 40
0.0137778
 41
0.0137778
  0
VERTEX
  8
0
 10
27.1813
 20
17.6042
 30
0.0
 40
0.0137778
 41
0.0137778
  0
VERTEX
  8
0
 10
28.4938
 20
13.0301
 30
0.0
 40
0.0137778
 41
0.0137778
  0
VERTEX
  8
0
 10
28.4722
 20
13.0273
 30
0.0
 40
0.0137778
 41
0.0137778
  0
VERTEX
  8
0
 10
28.4075
 20
13.0219
 30
0.0
 40
0.0137778
 41
0.0137778
  0
VERTEX
  8
0
 10
28.3024
 20
13.0163
 30
0.0
 40
0.0137778
 41
0.0137778
  0
VERTEX
  8
0
 10
28.179
 20
13.0125
 30
0.0
 40
0.0137778
 41
0.0137778
  0
VERTEX
  8
0
 10
28.0385
 20
13.0094
 30
0.0
 40
0.0137778
 41
0.0137778
  0
VERTEX
  8
0
 10
27.881
 20
13.0062
 30
0.0
 40
0.0137778
 41
0.0137778
  0
VERTEX
  8
0
 10
27.7076
 20
13.0019
 30
0.0
 40
0.0137778
 41
0.0137778
  0
VERTEX
  8
0
 10
27.519
 20
12.9956
 30
0.0
 40
0.0137778
 41
0.0137778
  0
VERTEX
  8
0
 10
27.3157
 20
12.9863
 30
0.0
 40
0.0137778
 41
0.0137778
  0
VERTEX
  8
0
 10
27.0986
 20
12.9731
 30
0.0
 40
0.0137778
 41
0.0137778
  0
VERTEX
  8
0
 10
26.8683
 20
12.9551
 30
0.0
 40
0.0137778
 41
0.0137778
  0
VERTEX
  8
0
 10
26.6256
 20
12.9313
 30
0.0
 40
0.0137778
 41
0.0137778
  0
VERTEX
  8
0
 10
26.371
 20
12.9008
 30
0.0
 40
0.0137778
 41
0.0137778
  0
VERTEX
  8
0
 10
26.1054
 20
12.8626
 30
0.0
 40
0.0137778
 41
0.0137778
  0
VERTEX
  8
0
 10
25.8296
 20
12.8158
 30
0.0
 40
0.0137778
 41
0.0137778
  0
VERTEX
  8
0
 10
25.5442
 20
12.7596
 30
0.0
 40
0.0137778
 41
0.0137778
  0
VERTEX
  8
0
 10
25.2499
 20
12.6928
 30
0.0
 40
0.0137778
 41
0.0137778
  0
VERTEX
  8
0
 10
24.9474
 20
12.6146
 30
0.0
 40
0.0137778
 41
0.0137778
  0
VERTEX
  8
0
 10
24.6374
 20
12.5242
 30
0.0
 40
0.0137778
 41
0.0137778
  0
VERTEX
  8
0
 10
24.3206
 20
12.4204
 30
0.0
 40
0.0137778
 41
0.0137778
  0
VERTEX
  8
0
 10
23.9978
 20
12.3025
 30
0.0
 40
0.0137778
 41
0.0137778
  0
VERTEX
  8
0
 10
23.6696
 20
12.1693
 30
0.0
 40
0.0137778
 41
0.0137778
  0
VERTEX
  8
0
 10
23.3368
 20
12.0201
 30
0.0
 40
0.0137778
 41
0.0137778
  0
VERTEX
  8
0
 10
23
 20
11.8538
 30
0.0
 40
0.0137778
 41
0.0137778
  0
VERTEX
  8
0
 10
22.6601
 20
11.6697
 30
0.0
 40
0.0137778
 41
0.0137778
  0
VERTEX
  8
0
 10
22.3178
 20
11.4666
 30
0.0
 40
0.0137778
 41
0.0137778
  0
VERTEX
  8
0
 10
21.9736
 20
11.2437
 30
0.0
 40
0.0137778
 41
0.0137778
  0
VERTEX
  8
0
 10
21.6283
 20
10.9999
 30
0.0
 40
0.0137778
 41
0.0137778
  0
VERTEX
  8
0
 10
21.2826
 20
10.7345
 30
0.0
 40
0.0137778
 41
0.0137778
  0
VERTEX
  8
0
 10
20.9374
 20
10.4465
 30
0.0
 40
0.0137778
 41
0.0137778
  0
VERTEX
  8
0
 10
20.5932
 20
10.1348
 30
0.0
 40
0.0137778
 41
0.0137778
  0
VERTEX
  8
0
 10
20.2507
 20
9.79861
 30
0.0
 40
0.0137778
 41
0.0137778
  0
VERTEX
  8
0
 10
19.9939
 20
9.52903
 30
0.0
 40
0.0137778
 41
0.0137778
  0
VERTEX
  8
0
 10
19.9108
 20
9.43696
 30
0.0
 40
0.0137778
 41
0.0137778
  0
VERTEX
  8
0
 10
17.9735
 20
9.34272
 30
0.0
 40
0.0137778
 41
0.0137778
  0
VERTEX
  8
0
 10
17.8636
 20
9.46593
 30
0.0
 40
0.0137778
 41
0.0137778
  0
VERTEX
  8
0
 10
17.5404
 20
9.84088
 30
0.0
 40
0.0137778
 41
0.0137778
  0
VERTEX
  8
0
 10
17.149
 20
10.3172
 30
0.0
 40
0.0137778
 41
0.0137778
  0
VERTEX
  8
0
 10
16.7976
 20
10.7742
 30
0.0
 40
0.0137778
 41
0.0137778
  0
VERTEX
  8
0
 10
16.4844
 20
11.2142
 30
0.0
 40
0.0137778
 41
0.0137778
  0
VERTEX
  8
0
 10
16.2078
 20
11.6396
 30
0.0
 40
0.0137778
 41
0.0137778
  0
VERTEX
  8
0
 10
15.9662
 20
12.0528
 30
0.0
 40
0.0137778
 41
0.0137778
  0
VERTEX
  8
0
 10
15.7579
 20
12.4562
 30
0.0
 40
0.0137778
 41
0.0137778
  0
VERTEX
  8
0
 10
15.5814
 20
12.8522
 30
0.0
 40
0.0137778
 41
0.0137778
  0
VERTEX
  8
0
 10
15.435
 20
13.2432
 30
0.0
 40
0.0137778
 41
0.0137778
  0
VERTEX
  8
0
 10
15.3171
 20
13.6316
 30
0.0
 40
0.0137778
 41
0.0137778
  0
VERTEX
  8
0
 10
15.226
 20
14.0199
 30
0.0
 40
0.0137778
 41
0.0137778
  0
VERTEX
  8
0
 10
15.16
 20
14.4103
 30
0.0
 40
0.0137778
 41
0.0137778
  0
VERTEX
  8
0
 10
15.1175
 20
14.8051
 30
0.0
 40
0.0137778
 41
0.0137778
  0
VERTEX
  8
0
 10
15.0971
 20
15.2071
 30
0.0
 40
0.0137778
 41
0.0137778
  0
VERTEX
  8
0
 10
15.0969
 20
15.6185
 30
0.0
 40
0.0137778
 41
0.0137778
  0
VERTEX
  8
0
 10
15.1087
 20
15.936
 30
0.0
 40
0.0137778
 41
0.0137778
  0
VERTEX
  8
0
 10
15.1156
 20
16.0417
 30
0.0
 40
0.0137778
 41
0.0137778
  0
VERTEX
  8
0
 10
15.1247
 20
16.1872
 30
0.0
 40
0.0137778
 41
0.0137778
  0
VERTEX
  8
0
 10
15.1431
 20
16.6249
 30
0.0
 40
0.0137778
 41
0.0137778
  0
VERTEX
  8
0
 10
15.1553
 20
17.2128
 30
0.0
 40
0.0137778
 41
0.0137778
  0
VERTEX
  8
0
 10
15.1564
 20
17.8099
 30
0.0
 40
0.0137778
 41
0.0137778
  0
VERTEX
  8
0
 10
15.1513
 20
18.4207
 30
0.0
 40
0.0137778
 41
0.0137778
  0
VERTEX
  8
0
 10
15.1446
 20
19.0497
 30
0.0
 40
0.0137778
 41
0.0137778
  0
VERTEX
  8
0
 10
15.1408
 20
19.7015
 30
0.0
 40
0.0137778
 41
0.0137778
  0
VERTEX
  8
0
 10
15.1449
 20
20.3804
 30
0.0
 40
0.0137778
 41
0.0137778
  0
VERTEX
  8
0
 10
15.1551
 20
20.9136
 30
0.0
 40
0.0137778
 41
0.0137778
  0
VERTEX
  8
0
 10
15.161
 20
21.0912
 30
0.0
 40
0.0137778
 41
0.0137778
  0
SEQEND
 8
0
  0
POLYLINE
  8
0
 62
     250
 66
     1
 10
0
 20
0
 30
0.0
 40
0.992
 41
0.992
  0
VERTEX
  8
0
 10
15.5851
 20
21.3593
 30
0.0
 40
0.0137778
 41
0.0137778
  0
VERTEX
  8
0
 10
15.551
 20
20.9675
 30
0.0
 40
0.0137778
 41
0.0137778
  0
SEQEND
 8
0
  0
POLYLINE
  8
0
 62
     250
 66
     1
 10
0
 20
0
 30
0.0
 40
0.992
 41
0.992
  0
VERTEX
  8
0
 10
15.0974
 20
20.6649
 30
0.0
 40
0.0137778
 41
0.0137778
  0
VERTEX
  8
0
 10
15.294
 20
20.6711
 30
0.0
 40
0.0137778
 41
0.0137778
  0
SEQEND
 8
0
  0
POLYLINE
  8
0
 62
     250
 66
     1
 10
0
 20
0
 30
0.0
 40
0.992
 41
0.992
  0
VERTEX
  8
0
 10
21.7549
 20
20.1143
 30
0.0
 40
0.0137778
 41
0.0137778
  0
VERTEX
  8
0
 10
21.5581
 20
20.1164
 30
0.0
 40
0.0137778
 41
0.0137778
  0
SEQEND
 8
0
  0
POLYLINE
  8
0
 62
     250
 66
     1
 10
0
 20
0
 30
0.0
 40
0.992
 41
0.992
  0
VERTEX
  8
0
 10
21.2976
 20
20.6394
 30
0.0
 40
0.0137778
 41
0.0137778
  0
VERTEX
  8
0
 10
21.281
 20
20.4432
 30
0.0
 40
0.0137778
 41
0.0137778
  0
SEQEND
 8
0
  0
POLYLINE
  8
0
 62
     250
 66
     1
 10
0
 20
0
 30
0.0
 40
0.992
 41
0.992
  0
VERTEX
  8
0
 10
27.3853
 20
17.2732
 30
0.0
 40
0.0137778
 41
0.0137778
  0
VERTEX
  8
0
 10
27.1963
 20
17.2185
 30
0.0
 40
0.0137778
 41
0.0137778
  0
SEQEND
 8
0
  0
POLYLINE
  8
0
 62
     250
 66
     1
 10
0
 20
0
 30
0.0
 40
0.992
 41
0.992
  0
VERTEX
  8
0
 10
26.7779
 20
17.5976
 30
0.0
 40
0.0137778
 41
0.0137778
  0
VERTEX
  8
0
 10
26.8351
 20
17.4093
 30
0.0
 40
0.0137778
 41
0.0137778
  0
SEQEND
 8
0
  0
POLYLINE
  8
0
 62
     250
 66
     1
 10
0
 20
0
 30
0.0
 40
0.992
 41
0.992
  0
VERTEX
  8
0
 10
28.1219
 20
12.9068
 30
0.0
 40
0.0137778
 41
0.0137778
  0
VERTEX
  8
0
 10
28.0889
 20
13.1037
 30
0.0
 40
0.0137778
 41
0.0137778
  0
SEQEND
 8
0
  0
POLYLINE
  8
0
 62
     250
 66
     1
 10
0
 20
0
 30
0.0
 40
0.992
 41
0.992
  0
VERTEX
  8
0
 10
28.4987
 20
13.4256
 30
0.0
 40
0.0137778
 41
0.0137778
  0
VERTEX
  8
0
 10
28.3096
 20
13.3709
 30
0.0
 40
0.0137778
 41
0.0137778
  0
SEQEND
 8
0
  0
POLYLINE
  8
0
 62
     250
 66
     1
 10
0
 20
0
 30
0.0
 40
0.992
 41
0.992
  0
VERTEX
  8
0
 10
19.4549
 20
9.33979
 30
0.0
 40
0.0137778
 41
0.0137778
  0
VERTEX
  8
0
 10
19.5804
 20
9.49138
 30
0.0
 40
0.0137778
 41
0.0137778
  0
SEQEND
 8
0
  0
POLYLINE
  8
0
 62
     250
 66
     1
 10
0
 20
0
 30
0.0
 40
0.992
 41
0.992
  0
VERTEX
  8
0
 10
20.4694
 20
9.90864
 30
0.0
 40
0.0137778
 41
0.0137778
  0
VERTEX
  8
0
 10
20.2737
 20
9.88797
 30
0.0
 40
0.0137778
 41
0.0137778
  0
SEQEND
 8
0
  0
POLYLINE
  8
0
 62
     250
 66
     1
 10
0
 20
0
 30
0.0
 40
0.992
 41
0.992
  0
VERTEX
  8
0
 10
16.8261
 20
10.6667
 30
0.0
 40
0.0137778
 41
0.0137778
  0
VERTEX
  8
0
 10
17.2825
 20
11.0046
 30
0.0
 40
0.0137778
 41
0.0137778
  0
SEQEND
 8
0
  0
POLYLINE
  8
0
 62
     250
 66
     1
 10
0
 20
0
 30
0.0
 40
0.992
 41
0.992
  0
VERTEX
  8
0
 10
14.9899
 20
16.0031
 30
0.0
 40
0.0137778
 41
0.0137778
  0
VERTEX
  8
0
 10
15.551
 20
16.0042
 30
0.0
 40
0.0137778
 41
0.0137778
  0
SEQEND
 8
0
  0
POLYLINE
  8
0
 62
     250
 66
     1
 10
0
 20
0
 30
0.0
 40
0.992
 41
0.992
  0
VERTEX
  8
0
 10
18.4497
 20
9.27869
 30
0.0
 40
0.0137778
 41
0.0137778
  0
VERTEX
  8
0
 10
18.3232
 20
9.42958
 30
0.0
 40
0.0137778
 41
0.0137778
  0
SEQEND
 8
0
  0
POLYLINE
  8
0
 62
     250
 66
     1
 10
0
 20
0
 30
0.0
 40
0.992
 41
0.992
  0
VERTEX
  8
0
 10
17.5324
 20
9.75461
 30
0.0
 40
0.0137778
 41
0.0137778
  0
VERTEX
  8
0
 10
17.7639
 20
9.76389
 30
0.0
 40
0.0137778
 41
0.0137778
  0
SEQEND
 8
0
  0
POLYLINE
  8
0
 62
     250
 66
     1
 10
0
 20
0
 30
0.0
 40
0.992
 41
0.992
  0
VERTEX
  8
0
 10
17.2232
 20
14.5201
 30
0.0
 40
0.0137778
 41
0.0137778
  0
VERTEX
  8
0
 10
26.7519
 20
14.5407
 30
0.0
 40
0.0137778
 41
0.0137778
  0
SEQEND
 8
0
  0
POLYLINE
  8
0
 62
     250
 66
     1
 10
0
 20
0
 30
0.0
 70
     1
 40
0
 41
0
  0
VERTEX
  8
0
 10
17.1401
 20
14.52
 30
0.0
 40
0
 41
0
  0
VERTEX
  8
0
 10
17.1499
 20
14.5164
 30
0.0
 40
0
 41
0
  0
VERTEX
  8
0
 10
17.2024
 20
14.4918
 30
0.0
 40
0
 41
0
  0
VERTEX
  8
0
 10
17.2506
 20
14.4612
 30
0.0
 40
0
 41
0
  0
VERTEX
  8
0
 10
17.2581
 20
14.4547
 30
0.0
 40
0
 41
0
  0
VERTEX
  8
0
 10
17.2342
 20
14.5203
 30
0.0
 40
0
 41
0
  0
VERTEX
  8
0
 10
17.2578
 20
14.5858
 30
0.0
 40
0
 41
0
  0
VERTEX
  8
0
 10
17.2503
 20
14.5792
 30
0.0
 40
0
 41
0
  0
VERTEX
  8
0
 10
17.2024
 20
14.5485
 30
0.0
 40
0
 41
0
  0
VERTEX
  8
0
 10
17.1499
 20
14.5237
 30
0.0
 40
0
 41
0
  0
VERTEX
  8
0
 10
17.1401
 20
14.52
 30
0.0
 40
0
 41
0
  0
SEQEND
 8
0
  0
POLYLINE
  8
0
 62
     250
 66
     1
 10
0
 20
0
 30
0.0
 70
     1
 40
0
 41
0
  0
VERTEX
  8
0
 10
26.8351
 20
14.5408
 30
0.0
 40
0
 41
0
  0
VERTEX
  8
0
 10
26.8254
 20
14.5372
 30
0.0
 40
0
 41
0
  0
VERTEX
  8
0
 10
26.7729
 20
14.5124
 30
0.0
 40
0
 41
0
  0
VERTEX
  8
0
 10
26.725
 20
14.4817
 30
0.0
 40
0
 41
0
  0
VERTEX
  8
0
 10
26.7175
 20
14.475
 30
0.0
 40
0
 41
0
  0
VERTEX
  8
0
 10
26.7411
 20
14.5407
 30
0.0
 40
0
 41
0
  0
VERTEX
  8
0
 10
26.7172
 20
14.6061
 30
0.0
 40
0
 41
0
  0
VERTEX
  8
0
 10
26.7247
 20
14.5996
 30
0.0
 40
0
 41
0
  0
VERTEX
  8
0
 10
26.7728
 20
14.569
 30
0.0
 40
0
 41
0
  0
VERTEX
  8
0
 10
26.8253
 20
14.5444
 30
0.0
 40
0
 41
0
  0
VERTEX
  8
0
 10
26.8351
 20
14.5408
 30
0.0
 40
0
 41
0
  0
SEQEND
 8
0
  0
POLYLINE
  8
0
 62
     250
 66
     1
 10
0
 20
0
 30
0.0
 40
0.992
 41
0.992
  0
VERTEX
  8
0
 10
21.9876
 20
18.0615
 30
0.0
 40
0.0137778
 41
0.0137778
  0
VERTEX
  8
0
 10
22.244
 20
18.249
 30
0.0
 40
0.0137778
 41
0.0137778
  0
SEQEND
 8
0
  0
POLYLINE
  8
0
 62
     250
 66
     1
 10
0
 20
0
 30
0.0
 40
0.992
 41
0.992
  0
VERTEX
  8
0
 10
24.4106
 20
17.2185
 30
0.0
 40
0.0137778
 41
0.0137778
  0
VERTEX
  8
0
 10
24.4314
 20
16.9782
 30
0.0
 40
0.0137778
 41
0.0137778
  0
SEQEND
 8
0
  0
POLYLINE
  8
0
 62
     250
 66
     1
 10
0
 20
0
 30
0.0
 40
0.992
 41
0.992
  0
VERTEX
  8
0
 10
23.8671
 20
12.3729
 30
0.0
 40
0.0137778
 41
0.0137778
  0
VERTEX
  8
0
 10
23.9504
 20
12.1386
 30
0.0
 40
0.0137778
 41
0.0137778
  0
SEQEND
 8
0
  0
POLYLINE
  8
0
 62
     250
 66
     1
 10
0
 20
0
 30
0.0
 70
     1
 40
0
 41
0
  0
VERTEX
  8
0
 10
3.29861
 20
0.296983
 30
0.0
 40
0
 41
0
  0
VERTEX
  8
0
 10
3.29449
 20
0.308106
 30
0.0
 40
0
 41
0
  0
VERTEX
  8
0
 10
3.28049
 20
0.340821
 30
0.0
 40
0
 41
0
  0
VERTEX
  8
0
 10
3.25803
 20
0.38596
 30
0.0
 40
0
 41
0
  0
VERTEX
  8
0
 10
3.23247
 20
0.428711
 30
0.0
 40
0
 41
0
  0
VERTEX
  8
0
 10
3.21246
 20
0.456651
 30
0.0
 40
0
 41
0
  0
VERTEX
  8
0
 10
3.20497
 20
0.465224
 30
0.0
 40
0
 41
0
  0
VERTEX
  8
0
 10
3.29861
 20
0.431369
 30
0.0
 40
0
 41
0
  0
VERTEX
  8
0
 10
3.39219
 20
0.465224
 30
0.0
 40
0
 41
0
  0
VERTEX
  8
0
 10
3.38471
 20
0.456651
 30
0.0
 40
0
 41
0
  0
VERTEX
  8
0
 10
3.36464
 20
0.428711
 30
0.0
 40
0
 41
0
  0
VERTEX
  8
0
 10
3.33908
 20
0.38596
 30
0.0
 40
0
 41
0
  0
VERTEX
  8
0
 10
3.31668
 20
0.340821
 30
0.0
 40
0
 41
0
  0
VERTEX
  8
0
 10
3.30268
 20
0.308106
 30
0.0
 40
0
 41
0
  0
VERTEX
  8
0
 10
3.29861
 20
0.296983
 30
0.0
 40
0
 41
0
  0
SEQEND
 8
0
  0
POLYLINE
  8
0
 62
     250
 66
     1
 10
0
 20
0
 30
0.0
 40
1.417
 41
1.417
  0
VERTEX
  8
0
 10
13.6875
 20
0.600151
 30
0.0
 40
0.0196806
 41
0.0196806
  0
VERTEX
  8
0
 10
13.6875
 20
0.585992
 30
0.0
 40
0.0196806
 41
0.0196806
  0
SEQEND
 8
0
  0
POLYLINE
  8
0
 62
     250
 66
     1
 10
0
 20
0
 30
0.0
 70
     1
 40
0
 41
0
  0
VERTEX
  8
0
 10
13.6875
 20
0.467176
 30
0.0
 40
0
 41
0
  0
VERTEX
  8
0
 10
13.6834
 20
0.478299
 30
0.0
 40
0
 41
0
  0
VERTEX
  8
0
 10
13.6694
 20
0.511068
 30
0.0
 40
0
 41
0
  0
VERTEX
  8
0
 10
13.6469
 20
0.556207
 30
0.0
 40
0
 41
0
  0
VERTEX
  8
0
 10
13.6214
 20
0.598904
 30
0.0
 40
0
 41
0
  0
VERTEX
  8
0
 10
13.6013
 20
0.626899
 30
0.0
 40
0
 41
0
  0
VERTEX
  8
0
 10
13.5939
 20
0.635471
 30
0.0
 40
0
 41
0
  0
VERTEX
  8
0
 10
13.6875
 20
0.601563
 30
0.0
 40
0
 41
0
  0
VERTEX
  8
0
 10
13.7811
 20
0.635471
 30
0.0
 40
0
 41
0
  0
VERTEX
  8
0
 10
13.7735
 20
0.626899
 30
0.0
 40
0
 41
0
  0
VERTEX
  8
0
 10
13.7535
 20
0.598904
 30
0.0
 40
0
 41
0
  0
VERTEX
  8
0
 10
13.728
 20
0.556207
 30
0.0
 40
0
 41
0
  0
VERTEX
  8
0
 10
13.7056
 20
0.511068
 30
0.0
 40
0
 41
0
  0
VERTEX
  8
0
 10
13.6916
 20
0.478299
 30
0.0
 40
0
 41
0
  0
VERTEX
  8
0
 10
13.6875
 20
0.467176
 30
0.0
 40
0
 41
0
  0
SEQEND
 8
0
  0
POLYLINE
  8
0
 62
     250
 66
     1
 10
0
 20
0
 30
0.0
 40
1
 41
1
  0
VERTEX
  8
0
 10
20.1806
 20
10.107
 30
0.0
 40
0.0138889
 41
0.0138889
  0
VERTEX
  8
0
 10
20.1806
 20
10.107
 30
0.0
 40
0.0138889
 41
0.0138889
  0
VERTEX
  8
0
 10
20.1874
 20
10.1143
 30
0.0
 40
0.0138889
 41
0.0138889
  0
VERTEX
  8
0
 10
20.2032
 20
10.1308
 30
0.0
 40
0.0138889
 41
0.0138889
  0
VERTEX
  8
0
 10
20.2076
 20
10.1354
 30
0.0
 40
0.0138889
 41
0.0138889
  0
SEQEND
 8
0
  0
POLYLINE
  8
0
 62
     250
 66
     1
 10
0
 20
0
 30
0.0
 40
1
 41
1
  0
VERTEX
  8
0
 10
20.2631
 20
10.1911
 30
0.0
 40
0.0138889
 41
0.0138889
  0
VERTEX
  8
0
 10
20.2763
 20
10.2043
 30
0.0
 40
0.0138889
 41
0.0138889
  0
VERTEX
  8
0
 10
20.3167
 20
10.2435
 30
0.0
 40
0.0138889
 41
0.0138889
  0
VERTEX
  8
0
 10
20.3835
 20
10.307
 30
0.0
 40
0.0138889
 41
0.0138889
  0
VERTEX
  8
0
 10
20.4633
 20
10.3806
 30
0.0
 40
0.0138889
 41
0.0138889
  0
VERTEX
  8
0
 10
20.5561
 20
10.4637
 30
0.0
 40
0.0138889
 41
0.0138889
  0
VERTEX
  8
0
 10
20.6617
 20
10.5553
 30
0.0
 40
0.0138889
 41
0.0138889
  0
VERTEX
  8
0
 10
20.78
 20
10.6547
 30
0.0
 40
0.0138889
 41
0.0138889
  0
VERTEX
  8
0
 10
20.911
 20
10.761
 30
0.0
 40
0.0138889
 41
0.0138889
  0
VERTEX
  8
0
 10
21.0543
 20
10.8733
 30
0.0
 40
0.0138889
 41
0.0138889
  0
VERTEX
  8
0
 10
21.21
 20
10.9909
 30
0.0
 40
0.0138889
 41
0.0138889
  0
VERTEX
  8
0
 10
21.3779
 20
11.113
 30
0.0
 40
0.0138889
 41
0.0138889
  0
VERTEX
  8
0
 10
21.5581
 20
11.2386
 30
0.0
 40
0.0138889
 41
0.0138889
  0
VERTEX
  8
0
 10
21.7501
 20
11.3669
 30
0.0
 40
0.0138889
 41
0.0138889
  0
VERTEX
  8
0
 10
21.954
 20
11.4972
 30
0.0
 40
0.0138889
 41
0.0138889
  0
VERTEX
  8
0
 10
22.1699
 20
11.6285
 30
0.0
 40
0.0138889
 41
0.0138889
  0
VERTEX
  8
0
 10
22.3972
 20
11.7601
 30
0.0
 40
0.0138889
 41
0.0138889
  0
VERTEX
  8
0
 10
22.6361
 20
11.8912
 30
0.0
 40
0.0138889
 41
0.0138889
  0
VERTEX
  8
0
 10
22.8865
 20
12.0208
 30
0.0
 40
0.0138889
 41
0.0138889
  0
VERTEX
  8
0
 10
23.1482
 20
12.1482
 30
0.0
 40
0.0138889
 41
0.0138889
  0
VERTEX
  8
0
 10
23.4211
 20
12.2726
 30
0.0
 40
0.0138889
 41
0.0138889
  0
VERTEX
  8
0
 10
23.7051
 20
12.393
 30
0.0
 40
0.0138889
 41
0.0138889
  0
VERTEX
  8
0
 10
24
 20
12.5087
 30
0.0
 40
0.0138889
 41
0.0138889
  0
VERTEX
  8
0
 10
24.3058
 20
12.6189
 30
0.0
 40
0.0138889
 41
0.0138889
  0
VERTEX
  8
0
 10
24.6222
 20
12.7227
 30
0.0
 40
0.0138889
 41
0.0138889
  0
VERTEX
  8
0
 10
24.9494
 20
12.8192
 30
0.0
 40
0.0138889
 41
0.0138889
  0
VERTEX
  8
0
 10
25.2871
 20
12.9077
 30
0.0
 40
0.0138889
 41
0.0138889
  0
VERTEX
  8
0
 10
25.6351
 20
12.9874
 30
0.0
 40
0.0138889
 41
0.0138889
  0
VERTEX
  8
0
 10
25.9935
 20
13.0572
 30
0.0
 40
0.0138889
 41
0.0138889
  0
VERTEX
  8
0
 10
26.3618
 20
13.1166
 30
0.0
 40
0.0138889
 41
0.0138889
  0
VERTEX
  8
0
 10
26.7404
 20
13.1646
 30
0.0
 40
0.0138889
 41
0.0138889
  0
VERTEX
  8
0
 10
27.1288
 20
13.2004
 30
0.0
 40
0.0138889
 41
0.0138889
  0
VERTEX
  8
0
 10
27.5271
 20
13.2231
 30
0.0
 40
0.0138889
 41
0.0138889
  0
VERTEX
  8
0
 10
27.8331
 20
13.2316
 30
0.0
 40
0.0138889
 41
0.0138889
  0
VERTEX
  8
0
 10
27.935
 20
13.2319
 30
0.0
 40
0.0138889
 41
0.0138889
  0
SEQEND
 8
0
  0
POLYLINE
  8
0
 62
     250
 66
     1
 10
0
 20
0
 30
0.0
 40
1
 41
1
  0
VERTEX
  8
0
 10
27.9744
 20
13.232
 30
0.0
 40
0.0138889
 41
0.0138889
  0
VERTEX
  8
0
 10
27.9843
 20
13.232
 30
0.0
 40
0.0138889
 41
0.0138889
  0
VERTEX
  8
0
 10
28.0106
 20
13.232
 30
0.0
 40
0.0138889
 41
0.0138889
  0
VERTEX
  8
0
 10
28.0139
 20
13.232
 30
0.0
 40
0.0138889
 41
0.0138889
  0
SEQEND
 8
0
  0
POLYLINE
  8
0
 62
     250
 66
     1
 10
0
 20
0
 30
0.0
 40
1
 41
1
  0
VERTEX
  8
0
 10
17.7639
 20
9.75461
 30
0.0
 40
0.0138889
 41
0.0138889
  0
VERTEX
  8
0
 10
20.2737
 20
9.87875
 30
0.0
 40
0.0138889
 41
0.0138889
  0
SEQEND
 8
0
  0
POLYLINE
  8
0
 62
     250
 66
     1
 10
0
 20
0
 30
0.0
 40
0.987
 41
0.987
  0
VERTEX
  8
0
 10
21.281
 20
20.2361
 30
0.0
 40
0.0137083
 41
0.0137083
  0
VERTEX
  8
0
 10
21.2815
 20
20.2367
 30
0.0
 40
0.0137083
 41
0.0137083
  0
VERTEX
  8
0
 10
21.2897
 20
20.2315
 30
0.0
 40
0.0137083
 41
0.0137083
  0
VERTEX
  8
0
 10
21.2947
 20
20.1999
 30
0.0
 40
0.0137083
 41
0.0137083
  0
VERTEX
  8
0
 10
21.2976
 20
20.1433
 30
0.0
 40
0.0137083
 41
0.0137083
  0
VERTEX
  8
0
 10
21.2997
 20
20.0639
 30
0.0
 40
0.0137083
 41
0.0137083
  0
VERTEX
  8
0
 10
21.3025
 20
19.9636
 30
0.0
 40
0.0137083
 41
0.0137083
  0
VERTEX
  8
0
 10
21.3074
 20
19.8449
 30
0.0
 40
0.0137083
 41
0.0137083
  0
VERTEX
  8
0
 10
21.3158
 20
19.7096
 30
0.0
 40
0.0137083
 41
0.0137083
  0
VERTEX
  8
0
 10
21.3293
 20
19.5599
 30
0.0
 40
0.0137083
 41
0.0137083
  0
VERTEX
  8
0
 10
21.3494
 20
19.3979
 30
0.0
 40
0.0137083
 41
0.0137083
  0
VERTEX
  8
0
 10
21.3775
 20
19.226
 30
0.0
 40
0.0137083
 41
0.0137083
  0
VERTEX
  8
0
 10
21.4149
 20
19.0458
 30
0.0
 40
0.0137083
 41
0.0137083
  0
VERTEX
  8
0
 10
21.4632
 20
18.8599
 30
0.0
 40
0.0137083
 41
0.0137083
  0
VERTEX
  8
0
 10
21.5237
 20
18.6701
 30
0.0
 40
0.0137083
 41
0.0137083
  0
VERTEX
  8
0
 10
21.5982
 20
18.4787
 30
0.0
 40
0.0137083
 41
0.0137083
  0
VERTEX
  8
0
 10
21.6879
 20
18.2879
 30
0.0
 40
0.0137083
 41
0.0137083
  0
VERTEX
  8
0
 10
21.7943
 20
18.0994
 30
0.0
 40
0.0137083
 41
0.0137083
  0
VERTEX
  8
0
 10
21.9189
 20
17.916
 30
0.0
 40
0.0137083
 41
0.0137083
  0
VERTEX
  8
0
 10
22.0631
 20
17.739
 30
0.0
 40
0.0137083
 41
0.0137083
  0
VERTEX
  8
0
 10
22.2283
 20
17.5713
 30
0.0
 40
0.0137083
 41
0.0137083
  0
VERTEX
  8
0
 10
22.4161
 20
17.4144
 30
0.0
 40
0.0137083
 41
0.0137083
  0
VERTEX
  8
0
 10
22.6279
 20
17.2708
 30
0.0
 40
0.0137083
 41
0.0137083
  0
VERTEX
  8
0
 10
22.8651
 20
17.1424
 30
0.0
 40
0.0137083
 41
0.0137083
  0
VERTEX
  8
0
 10
23.1293
 20
17.0315
 30
0.0
 40
0.0137083
 41
0.0137083
  0
VERTEX
  8
0
 10
23.4219
 20
16.9401
 30
0.0
 40
0.0137083
 41
0.0137083
  0
VERTEX
  8
0
 10
23.7443
 20
16.8704
 30
0.0
 40
0.0137083
 41
0.0137083
  0
VERTEX
  8
0
 10
24.0979
 20
16.8244
 30
0.0
 40
0.0137083
 41
0.0137083
  0
VERTEX
  8
0
 10
24.4843
 20
16.8043
 30
0.0
 40
0.0137083
 41
0.0137083
  0
VERTEX
  8
0
 10
24.9049
 20
16.8124
 30
0.0
 40
0.0137083
 41
0.0137083
  0
VERTEX
  8
0
 10
25.3611
 20
16.8504
 30
0.0
 40
0.0137083
 41
0.0137083
  0
VERTEX
  8
0
 10
25.8544
 20
16.9208
 30
0.0
 40
0.0137083
 41
0.0137083
  0
VERTEX
  8
0
 10
26.3864
 20
17.0256
 30
0.0
 40
0.0137083
 41
0.0137083
  0
VERTEX
  8
0
 10
26.8163
 20
17.1282
 30
0.0
 40
0.0137083
 41
0.0137083
  0
VERTEX
  8
0
 10
26.9583
 20
17.1667
 30
0.0
 40
0.0137083
 41
0.0137083
  0
SEQEND
 8
0
  0
POLYLINE
  8
0
 62
     0
 66
     1
 10
0
 20
0
 30
0.0
 70
     1
 40
0
 41
0
  0
VERTEX
  8
0
 10
22.1186
 20
18.0556
 30
0.0
 40
0
 41
0
  0
VERTEX
  8
0
 10
22.1186
 20
18.0426
 30
0.0
 40
0
 41
0
  0
VERTEX
  8
0
 10
22.1082
 20
18.004
 30
0.0
 40
0
 41
0
  0
VERTEX
  8
0
 10
22.0797
 20
17.9619
 30
0.0
 40
0
 41
0
  0
VERTEX
  8
0
 10
22.0376
 20
17.9335
 30
0.0
 40
0
 41
0
  0
VERTEX
  8
0
 10
21.999
 20
17.9231
 30
0.0
 40
0
 41
0
  0
VERTEX
  8
0
 10
21.9861
 20
17.9231
 30
0.0
 40
0
 41
0
  0
VERTEX
  8
0
 10
21.9732
 20
17.9231
 30
0.0
 40
0
 41
0
  0
VERTEX
  8
0
 10
21.9346
 20
17.9335
 30
0.0
 40
0
 41
0
  0
VERTEX
  8
0
 10
21.8924
 20
17.9619
 30
0.0
 40
0
 41
0
  0
VERTEX
  8
0
 10
21.864
 20
18.004
 30
0.0
 40
0
 41
0
  0
VERTEX
  8
0
 10
21.8536
 20
18.0426
 30
0.0
 40
0
 41
0
  0
VERTEX
  8
0
 10
21.8536
 20
18.0556
 30
0.0
 40
0
 41
0
  0
VERTEX
  8
0
 10
21.8536
 20
18.0685
 30
0.0
 40
0
 41
0
  0
VERTEX
  8
0
 10
21.864
 20
18.1071
 30
0.0
 40
0
 41
0
  0
VERTEX
  8
0
 10
21.8924
 20
18.1493
 30
0.0
 40
0
 41
0
  0
VERTEX
  8
0
 10
21.9346
 20
18.1776
 30
0.0
 40
0
 41
0
  0
VERTEX
  8
0
 10
21.9732
 20
18.1881
 30
0.0
 40
0
 41
0
  0
VERTEX
  8
0
 10
21.9861
 20
18.1881
 30
0.0
 40
0
 41
0
  0
VERTEX
  8
0
 10
21.999
 20
18.1881
 30
0.0
 40
0
 41
0
  0
VERTEX
  8
0
 10
22.0376
 20
18.1776
 30
0.0
 40
0
 41
0
  0
VERTEX
  8
0
 10
22.0797
 20
18.1493
 30
0.0
 40
0
 41
0
  0
VERTEX
  8
0
 10
22.1082
 20
18.1071
 30
0.0
 40
0
 41
0
  0
VERTEX
  8
0
 10
22.1186
 20
18.0685
 30
0.0
 40
0
 41
0
  0
VERTEX
  8
0
 10
22.1186
 20
18.0556
 30
0.0
 40
0
 41
0
  0
SEQEND
 8
0
  0
POLYLINE
  8
0
 62
     250
 66
     1
 10
0
 20
0
 30
0.0
 40
0.992
 41
0.992
  0
VERTEX
  8
0
 10
15.1661
 20
21.091
 30
0.0
 40
0.0137778
 41
0.0137778
  0
VERTEX
  8
0
 10
15.1756
 20
21.3236
 30
0.0
 40
0.0137778
 41
0.0137778
  0
SEQEND
 8
0
  0
POLYLINE
  8
0
 62
     250
 66
     1
 10
0
 20
0
 30
0.0
 40
0.992
 41
0.992
  0
VERTEX
  8
0
 10
15.1756
 20
21.3236
 30
0.0
 40
0.0137778
 41
0.0137778
  0
VERTEX
  8
0
 10
19.7481
 20
20.9207
 30
0.0
 40
0.0137778
 41
0.0137778
  0
SEQEND
 8
0
  0
POLYLINE
  8
0
 62
     250
 66
     1
 10
0
 20
0
 30
0.0
 40
0.689
 41
0.689
  0
VERTEX
  8
0
 10
19.5751
 20
21.0324
 30
0.0
 40
0.00956944
 41
0.00956944
  0
VERTEX
  8
0
 10
19.5558
 20
20.7967
 30
0.0
 40
0.00956944
 41
0.00956944
  0
SEQEND
 8
0
  0
POLYLINE
  8
0
 62
     250
 66
     1
 10
0
 20
0
 30
0.0
 40
0.992
 41
0.992
  0
VERTEX
  8
0
 10
19.76
 20
20.9107
 30
0.0
 40
0.0137778
 41
0.0137778
  0
VERTEX
  8
0
 10
19.7493
 20
20.6904
 30
0.0
 40
0.0137778
 41
0.0137778
  0
SEQEND
 8
0
  0
POLYLINE
  8
0
 62
     250
 66
     1
 10
0
 20
0
 30
0.0
 70
     1
 40
0.992
 41
0.992
  0
VERTEX
  8
0
 10
14.1653
 20
30.5999
 30
0.0
 40
0.0137778
 41
0.0137778
  0
VERTEX
  8
0
 10
17.4153
 20
30.5999
 30
0.0
 40
0.0137778
 41
0.0137778
  0
VERTEX
  8
0
 10
17.4153
 20
21.5999
 30
0.0
 40
0.0137778
 41
0.0137778
  0
VERTEX
  8
0
 10
14.1653
 20
21.5999
 30
0.0
 40
0.0137778
 41
0.0137778
  0
VERTEX
  8
0
 10
14.1653
 20
30.5999
 30
0.0
 40
0.0137778
 41
0.0137778
  0
SEQEND
 8
0
  0
POLYLINE
  8
0
 62
     250
 66
     1
 10
0
 20
0
 30
0.0
 70
     1
 40
0.992
 41
0.992
  0
VERTEX
  8
0
 10
14.559
 20
30.2061
 30
0.0
 40
0.0137778
 41
0.0137778
  0
VERTEX
  8
0
 10
17.0215
 20
30.2061
 30
0.0
 40
0.0137778
 41
0.0137778
  0
VERTEX
  8
0
 10
17.0215
 20
21.9935
 30
0.0
 40
0.0137778
 41
0.0137778
  0
VERTEX
  8
0
 10
14.559
 20
21.9935
 30
0.0
 40
0.0137778
 41
0.0137778
  0
VERTEX
  8
0
 10
14.559
 20
30.2061
 30
0.0
 40
0.0137778
 41
0.0137778
  0
SEQEND
 8
0
  0
POLYLINE
  8
0
 62
     250
 66
     1
 10
0
 20
0
 30
0.0
 40
0.992
 41
0.992
  0
VERTEX
  8
0
 10
15.7593
 20
30.2119
 30
0.0
 40
0.0137778
 41
0.0137778
  0
VERTEX
  8
0
 10
15.7489
 20
21.8579
 30
0.0
 40
0.0137778
 41
0.0137778
  0
SEQEND
 8
0
  0
POLYLINE
  8
0
 62
     250
 66
     1
 10
0
 20
0
 30
0.0
 70
     1
 40
0
 41
0
  0
VERTEX
  8
0
 10
15.7594
 20
30.2951
 30
0.0
 40
0
 41
0
  0
VERTEX
  8
0
 10
15.7558
 20
30.2854
 30
0.0
 40
0
 41
0
  0
VERTEX
  8
0
 10
15.731
 20
30.2329
 30
0.0
 40
0
 41
0
  0
VERTEX
  8
0
 10
15.7004
 20
30.185
 30
0.0
 40
0
 41
0
  0
VERTEX
  8
0
 10
15.6937
 20
30.1775
 30
0.0
 40
0
 41
0
  0
VERTEX
  8
0
 10
15.7593
 20
30.2011
 30
0.0
 40
0
 41
0
  0
VERTEX
  8
0
 10
15.8249
 20
30.1774
 30
0.0
 40
0
 41
0
  0
VERTEX
  8
0
 10
15.8182
 20
30.1849
 30
0.0
 40
0
 41
0
  0
VERTEX
  8
0
 10
15.7876
 20
30.2329
 30
0.0
 40
0
 41
0
  0
VERTEX
  8
0
 10
15.7631
 20
30.2854
 30
0.0
 40
0
 41
0
  0
VERTEX
  8
0
 10
15.7594
 20
30.2951
 30
0.0
 40
0
 41
0
  0
SEQEND
 8
0
  0
POLYLINE
  8
0
 62
     250
 66
     1
 10
0
 20
0
 30
0.0
 70
     1
 40
0
 41
0
  0
VERTEX
  8
0
 10
15.7488
 20
21.7747
 30
0.0
 40
0
 41
0
  0
VERTEX
  8
0
 10
15.7451
 20
21.7846
 30
0.0
 40
0
 41
0
  0
VERTEX
  8
0
 10
15.7204
 20
21.8371
 30
0.0
 40
0
 41
0
  0
VERTEX
  8
0
 10
15.6899
 20
21.8851
 30
0.0
 40
0
 41
0
  0
VERTEX
  8
0
 10
15.6833
 20
21.8926
 30
0.0
 40
0
 41
0
  0
VERTEX
  8
0
 10
15.7489
 20
21.8688
 30
0.0
 40
0
 41
0
  0
VERTEX
  8
0
 10
15.8144
 20
21.8924
 30
0.0
 40
0
 41
0
  0
VERTEX
  8
0
 10
15.8078
 20
21.8849
 30
0.0
 40
0
 41
0
  0
VERTEX
  8
0
 10
15.7772
 20
21.8371
 30
0.0
 40
0
 41
0
  0
VERTEX
  8
0
 10
15.7524
 20
21.7846
 30
0.0
 40
0
 41
0
  0
VERTEX
  8
0
 10
15.7488
 20
21.7747
 30
0.0
 40
0
 41
0
  0
SEQEND
 8
0
  0
POLYLINE
  8
0
 62
     250
 66
     1
 10
0
 20
0
 30
0.0
 40
1
 41
1
  0
VERTEX
  8
0
 10
17.0215
 20
21.5014
 30
0.0
 40
0.0138889
 41
0.0138889
  0
VERTEX
  8
0
 10
17.0215
 20
21.6982
 30
0.0
 40
0.0138889
 41
0.0138889
  0
SEQEND
 8
0
  0
POLYLINE
  8
0
 62
     250
 66
     1
 10
0
 20
0
 30
0.0
 40
1
 41
1
  0
VERTEX
  8
0
 10
17.5137
 20
21.9935
 30
0.0
 40
0.0138889
 41
0.0138889
  0
VERTEX
  8
0
 10
17.3168
 20
21.9935
 30
0.0
 40
0.0138889
 41
0.0138889
  0
SEQEND
 8
0
  0
POLYLINE
  8
0
 62
     250
 66
     1
 10
0
 20
0
 30
0.0
 40
1
 41
1
  0
VERTEX
  8
0
 10
14.0668
 20
21.9935
 30
0.0
 40
0.0138889
 41
0.0138889
  0
VERTEX
  8
0
 10
14.2637
 20
21.9935
 30
0.0
 40
0.0138889
 41
0.0138889
  0
SEQEND
 8
0
  0
POLYLINE
  8
0
 62
     250
 66
     1
 10
0
 20
0
 30
0.0
 40
1
 41
1
  0
VERTEX
  8
0
 10
14.559
 20
21.5014
 30
0.0
 40
0.0138889
 41
0.0138889
  0
VERTEX
  8
0
 10
14.559
 20
21.6982
 30
0.0
 40
0.0138889
 41
0.0138889
  0
SEQEND
 8
0
  0
POLYLINE
  8
0
 62
     250
 66
     1
 10
0
 20
0
 30
0.0
 40
1
 41
1
  0
VERTEX
  8
0
 10
14.559
 20
30.6982
 30
0.0
 40
0.0138889
 41
0.0138889
  0
VERTEX
  8
0
 10
14.559
 20
30.5014
 30
0.0
 40
0.0138889
 41
0.0138889
  0
SEQEND
 8
0
  0
POLYLINE
  8
0
 62
     250
 66
     1
 10
0
 20
0
 30
0.0
 40
1
 41
1
  0
VERTEX
  8
0
 10
14.0668
 20
30.2061
 30
0.0
 40
0.0138889
 41
0.0138889
  0
VERTEX
  8
0
 10
14.2637
 20
30.2061
 30
0.0
 40
0.0138889
 41
0.0138889
  0
SEQEND
 8
0
  0
POLYLINE
  8
0
 62
     250
 66
     1
 10
0
 20
0
 30
0.0
 40
1
 41
1
  0
VERTEX
  8
0
 10
17.5137
 20
30.2061
 30
0.0
 40
0.0138889
 41
0.0138889
  0
VERTEX
  8
0
 10
17.3168
 20
30.2061
 30
0.0
 40
0.0138889
 41
0.0138889
  0
SEQEND
 8
0
  0
POLYLINE
  8
0
 62
     250
 66
     1
 10
0
 20
0
 30
0.0
 40
1
 41
1
  0
VERTEX
  8
0
 10
17.0215
 20
30.6982
 30
0.0
 40
0.0138889
 41
0.0138889
  0
VERTEX
  8
0
 10
17.0215
 20
30.5014
 30
0.0
 40
0.0138889
 41
0.0138889
  0
SEQEND
 8
0
  0
POLYLINE
  8
0
 62
     250
 66
     1
 10
0
 20
0
 30
0.0
 40
0.992
 41
0.992
  0
VERTEX
  8
0
 10
15.7386
 20
30.5035
 30
0.0
 40
0.0137778
 41
0.0137778
  0
VERTEX
  8
0
 10
15.7386
 20
30.7535
 30
0.0
 40
0.0137778
 41
0.0137778
  0
SEQEND
 8
0
  0
POLYLINE
  8
0
 62
     250
 66
     1
 10
0
 20
0
 30
0.0
 40
1
 41
1
  0
VERTEX
  8
0
 10
15.7386
 20
21.7122
 30
0.0
 40
0.0138889
 41
0.0138889
  0
VERTEX
  8
0
 10
15.7386
 20
21.4622
 30
0.0
 40
0.0138889
 41
0.0138889
  0
SEQEND
 8
0
  0
POLYLINE
  8
0
 62
     250
 66
     1
 10
0
 20
0
 30
0.0
 70
     1
 40
0.992
 41
0.992
  0
VERTEX
  8
0
 10
16.9326
 20
34.6132
 30
0.0
 40
0.0137778
 41
0.0137778
  0
VERTEX
  8
0
 10
16.8632
 20
31.9682
 30
0.0
 40
0.0137778
 41
0.0137778
  0
VERTEX
  8
0
 10
16.8769
 20
31.9511
 30
0.0
 40
0.0137778
 41
0.0137778
  0
VERTEX
  8
0
 10
16.9196
 20
31.9006
 30
0.0
 40
0.0137778
 41
0.0137778
  0
VERTEX
  8
0
 10
16.9885
 20
31.8192
 30
0.0
 40
0.0137778
 41
0.0137778
  0
VERTEX
  8
0
 10
17.0694
 20
31.7228
 30
0.0
 40
0.0137778
 41
0.0137778
  0
VERTEX
  8
0
 10
17.1619
 20
31.6097
 30
0.0
 40
0.0137778
 41
0.0137778
  0
VERTEX
  8
0
 10
17.2651
 20
31.479
 30
0.0
 40
0.0137778
 41
0.0137778
  0
VERTEX
  8
0
 10
17.3786
 20
31.3289
 30
0.0
 40
0.0137778
 41
0.0137778
  0
VERTEX
  8
0
 10
17.5018
 20
31.1582
 30
0.0
 40
0.0137778
 41
0.0137778
  0
VERTEX
  8
0
 10
17.6339
 20
30.9654
 30
0.0
 40
0.0137778
 41
0.0137778
  0
VERTEX
  8
0
 10
17.7744
 20
30.749
 30
0.0
 40
0.0137778
 41
0.0137778
  0
VERTEX
  8
0
 10
17.9228
 20
30.5078
 30
0.0
 40
0.0137778
 41
0.0137778
  0
VERTEX
  8
0
 10
18.0785
 20
30.2403
 30
0.0
 40
0.0137778
 41
0.0137778
  0
VERTEX
  8
0
 10
18.2407
 20
29.945
 30
0.0
 40
0.0137778
 41
0.0137778
  0
VERTEX
  8
0
 10
18.409
 20
29.6206
 30
0.0
 40
0.0137778
 41
0.0137778
  0
VERTEX
  8
0
 10
18.5828
 20
29.2656
 30
0.0
 40
0.0137778
 41
0.0137778
  0
VERTEX
  8
0
 10
18.7615
 20
28.8786
 30
0.0
 40
0.0137778
 41
0.0137778
  0
VERTEX
  8
0
 10
18.8999
 20
28.5639
 30
0.0
 40
0.0137778
 41
0.0137778
  0
VERTEX
  8
0
 10
18.9444
 20
28.4583
 30
0.0
 40
0.0137778
 41
0.0137778
  0
VERTEX
  8
0
 10
18.9611
 20
28.419
 30
0.0
 40
0.0137778
 41
0.0137778
  0
VERTEX
  8
0
 10
19.0064
 20
28.2992
 30
0.0
 40
0.0137778
 41
0.0137778
  0
VERTEX
  8
0
 10
19.066
 20
28.1203
 30
0.0
 40
0.0137778
 41
0.0137778
  0
VERTEX
  8
0
 10
19.1225
 20
27.9218
 30
0.0
 40
0.0137778
 41
0.0137778
  0
VERTEX
  8
0
 10
19.1756
 20
27.7039
 30
0.0
 40
0.0137778
 41
0.0137778
  0
VERTEX
  8
0
 10
19.2247
 20
27.4665
 30
0.0
 40
0.0137778
 41
0.0137778
  0
VERTEX
  8
0
 10
19.2696
 20
27.2099
 30
0.0
 40
0.0137778
 41
0.0137778
  0
VERTEX
  8
0
 10
19.3093
 20
26.9339
 30
0.0
 40
0.0137778
 41
0.0137778
  0
VERTEX
  8
0
 10
19.3438
 20
26.6388
 30
0.0
 40
0.0137778
 41
0.0137778
  0
VERTEX
  8
0
 10
19.3722
 20
26.3246
 30
0.0
 40
0.0137778
 41
0.0137778
  0
VERTEX
  8
0
 10
19.3944
 20
25.9914
 30
0.0
 40
0.0137778
 41
0.0137778
  0
VERTEX
  8
0
 10
19.4099
 20
25.6392
 30
0.0
 40
0.0137778
 41
0.0137778
  0
VERTEX
  8
0
 10
19.4179
 20
25.2682
 30
0.0
 40
0.0137778
 41
0.0137778
  0
VERTEX
  8
0
 10
19.4181
 20
24.8785
 30
0.0
 40
0.0137778
 41
0.0137778
  0
VERTEX
  8
0
 10
19.41
 20
24.47
 30
0.0
 40
0.0137778
 41
0.0137778
  0
VERTEX
  8
0
 10
19.3932
 20
24.0429
 30
0.0
 40
0.0137778
 41
0.0137778
  0
VERTEX
  8
0
 10
19.3747
 20
23.7086
 30
0.0
 40
0.0137778
 41
0.0137778
  0
VERTEX
  8
0
 10
19.3671
 20
23.5972
 30
0.0
 40
0.0137778
 41
0.0137778
  0
VERTEX
  8
0
 10
19.3671
 20
23.5972
 30
0.0
 40
0.0137778
 41
0.0137778
  0
VERTEX
  8
0
 10
19.3968
 20
23.6046
 30
0.0
 40
0.0137778
 41
0.0137778
  0
VERTEX
  8
0
 10
19.4808
 20
23.6254
 30
0.0
 40
0.0137778
 41
0.0137778
  0
VERTEX
  8
0
 10
19.6114
 20
23.6578
 30
0.0
 40
0.0137778
 41
0.0137778
  0
VERTEX
  8
0
 10
19.7807
 20
23.7
 30
0.0
 40
0.0137778
 41
0.0137778
  0
VERTEX
  8
0
 10
19.981
 20
23.75
 30
0.0
 40
0.0137778
 41
0.0137778
  0
VERTEX
  8
0
 10
20.2046
 20
23.8061
 30
0.0
 40
0.0137778
 41
0.0137778
  0
VERTEX
  8
0
 10
20.4436
 20
23.8664
 30
0.0
 40
0.0137778
 41
0.0137778
  0
VERTEX
  8
0
 10
20.6904
 20
23.929
 30
0.0
 40
0.0137778
 41
0.0137778
  0
VERTEX
  8
0
 10
20.9374
 20
23.9921
 30
0.0
 40
0.0137778
 41
0.0137778
  0
VERTEX
  8
0
 10
21.1764
 20
24.0539
 30
0.0
 40
0.0137778
 41
0.0137778
  0
VERTEX
  8
0
 10
21.4
 20
24.1124
 30
0.0
 40
0.0137778
 41
0.0137778
  0
VERTEX
  8
0
 10
21.6003
 20
24.1658
 30
0.0
 40
0.0137778
 41
0.0137778
  0
VERTEX
  8
0
 10
21.7696
 20
24.2124
 30
0.0
 40
0.0137778
 41
0.0137778
  0
VERTEX
  8
0
 10
21.9001
 20
24.25
 30
0.0
 40
0.0137778
 41
0.0137778
  0
VERTEX
  8
0
 10
21.9842
 20
24.2771
 30
0.0
 40
0.0137778
 41
0.0137778
  0
VERTEX
  8
0
 10
22.0139
 20
24.2881
 30
0.0
 40
0.0137778
 41
0.0137778
  0
VERTEX
  8
0
 10
22.0139
 20
24.2917
 30
0.0
 40
0.0137778
 41
0.0137778
  0
VERTEX
  8
0
 10
21.9921
 20
24.4197
 30
0.0
 40
0.0137778
 41
0.0137778
  0
VERTEX
  8
0
 10
21.9268
 20
24.804
 30
0.0
 40
0.0137778
 41
0.0137778
  0
VERTEX
  8
0
 10
21.8497
 20
25.2553
 30
0.0
 40
0.0137778
 41
0.0137778
  0
VERTEX
  8
0
 10
21.7807
 20
25.6529
 30
0.0
 40
0.0137778
 41
0.0137778
  0
VERTEX
  8
0
 10
21.7183
 20
26.004
 30
0.0
 40
0.0137778
 41
0.0137778
  0
VERTEX
  8
0
 10
21.6608
 20
26.3157
 30
0.0
 40
0.0137778
 41
0.0137778
  0
VERTEX
  8
0
 10
21.6064
 20
26.5956
 30
0.0
 40
0.0137778
 41
0.0137778
  0
VERTEX
  8
0
 10
21.5533
 20
26.8504
 30
0.0
 40
0.0137778
 41
0.0137778
  0
VERTEX
  8
0
 10
21.5
 20
27.0878
 30
0.0
 40
0.0137778
 41
0.0137778
  0
VERTEX
  8
0
 10
21.4449
 20
27.3149
 30
0.0
 40
0.0137778
 41
0.0137778
  0
VERTEX
  8
0
 10
21.386
 20
27.5388
 30
0.0
 40
0.0137778
 41
0.0137778
  0
VERTEX
  8
0
 10
21.3217
 20
27.7668
 30
0.0
 40
0.0137778
 41
0.0137778
  0
VERTEX
  8
0
 10
21.2504
 20
28.0062
 30
0.0
 40
0.0137778
 41
0.0137778
  0
VERTEX
  8
0
 10
21.1704
 20
28.2643
 30
0.0
 40
0.0137778
 41
0.0137778
  0
VERTEX
  8
0
 10
21.08
 20
28.5481
 30
0.0
 40
0.0137778
 41
0.0137778
  0
VERTEX
  8
0
 10
20.9775
 20
28.865
 30
0.0
 40
0.0137778
 41
0.0137778
  0
VERTEX
  8
0
 10
20.8901
 20
29.1329
 30
0.0
 40
0.0137778
 41
0.0137778
  0
VERTEX
  8
0
 10
20.8611
 20
29.2222
 30
0.0
 40
0.0137778
 41
0.0137778
  0
VERTEX
  8
0
 10
20.8206
 20
29.3467
 30
0.0
 40
0.0137778
 41
0.0137778
  0
VERTEX
  8
0
 10
20.6835
 20
29.7151
 30
0.0
 40
0.0137778
 41
0.0137778
  0
VERTEX
  8
0
 10
20.4806
 20
30.1893
 30
0.0
 40
0.0137778
 41
0.0137778
  0
VERTEX
  8
0
 10
20.2557
 20
30.6446
 30
0.0
 40
0.0137778
 41
0.0137778
  0
VERTEX
  8
0
 10
20.0124
 20
31.0801
 30
0.0
 40
0.0137778
 41
0.0137778
  0
VERTEX
  8
0
 10
19.7542
 20
31.4958
 30
0.0
 40
0.0137778
 41
0.0137778
  0
VERTEX
  8
0
 10
19.4844
 20
31.891
 30
0.0
 40
0.0137778
 41
0.0137778
  0
VERTEX
  8
0
 10
19.2069
 20
32.2653
 30
0.0
 40
0.0137778
 41
0.0137778
  0
VERTEX
  8
0
 10
18.9251
 20
32.6181
 30
0.0
 40
0.0137778
 41
0.0137778
  0
VERTEX
  8
0
 10
18.6424
 20
32.949
 30
0.0
 40
0.0137778
 41
0.0137778
  0
VERTEX
  8
0
 10
18.3622
 20
33.2576
 30
0.0
 40
0.0137778
 41
0.0137778
  0
VERTEX
  8
0
 10
18.0882
 20
33.5433
 30
0.0
 40
0.0137778
 41
0.0137778
  0
VERTEX
  8
0
 10
17.8238
 20
33.8058
 30
0.0
 40
0.0137778
 41
0.0137778
  0
VERTEX
  8
0
 10
17.5725
 20
34.0444
 30
0.0
 40
0.0137778
 41
0.0137778
  0
VERTEX
  8
0
 10
17.3379
 20
34.2589
 30
0.0
 40
0.0137778
 41
0.0137778
  0
VERTEX
  8
0
 10
17.1235
 20
34.4486
 30
0.0
 40
0.0137778
 41
0.0137778
  0
VERTEX
  8
0
 10
16.9806
 20
34.5724
 30
0.0
 40
0.0137778
 41
0.0137778
  0
VERTEX
  8
0
 10
16.9326
 20
34.6132
 30
0.0
 40
0.0137778
 41
0.0137778
  0
SEQEND
 8
0
  0
POLYLINE
  8
0
 62
     250
 66
     1
 10
0
 20
0
 30
0.0
 40
0.992
 41
0.992
  0
VERTEX
  8
0
 10
21.6876
 20
24.5749
 30
0.0
 40
0.0137778
 41
0.0137778
  0
VERTEX
  8
0
 10
21.6457
 20
24.5635
 30
0.0
 40
0.0137778
 41
0.0137778
  0
VERTEX
  8
0
 10
21.5196
 20
24.5306
 30
0.0
 40
0.0137778
 41
0.0137778
  0
VERTEX
  8
0
 10
21.3169
 20
24.4796
 30
0.0
 40
0.0137778
 41
0.0137778
  0
VERTEX
  8
0
 10
21.0872
 20
24.4232
 30
0.0
 40
0.0137778
 41
0.0137778
  0
VERTEX
  8
0
 10
20.8376
 20
24.3628
 30
0.0
 40
0.0137778
 41
0.0137778
  0
VERTEX
  8
0
 10
20.5757
 20
24.2996
 30
0.0
 40
0.0137778
 41
0.0137778
  0
VERTEX
  8
0
 10
20.3089
 20
24.2353
 30
0.0
 40
0.0137778
 41
0.0137778
  0
VERTEX
  8
0
 10
20.0446
 20
24.1708
 30
0.0
 40
0.0137778
 41
0.0137778
  0
VERTEX
  8
0
 10
19.8539
 20
24.1239
 30
0.0
 40
0.0137778
 41
0.0137778
  0
VERTEX
  8
0
 10
19.7904
 20
24.1081
 30
0.0
 40
0.0137778
 41
0.0137778
  0
VERTEX
  8
0
 10
19.7983
 20
24.2857
 30
0.0
 40
0.0137778
 41
0.0137778
  0
VERTEX
  8
0
 10
19.8111
 20
24.819
 30
0.0
 40
0.0137778
 41
0.0137778
  0
VERTEX
  8
0
 10
19.8079
 20
25.4962
 30
0.0
 40
0.0137778
 41
0.0137778
  0
VERTEX
  8
0
 10
19.7811
 20
26.1354
 30
0.0
 40
0.0137778
 41
0.0137778
  0
VERTEX
  8
0
 10
19.7311
 20
26.7322
 30
0.0
 40
0.0137778
 41
0.0137778
  0
VERTEX
  8
0
 10
19.6585
 20
27.2825
 30
0.0
 40
0.0137778
 41
0.0137778
  0
VERTEX
  8
0
 10
19.5632
 20
27.7819
 30
0.0
 40
0.0137778
 41
0.0137778
  0
VERTEX
  8
0
 10
19.446
 20
28.2264
 30
0.0
 40
0.0137778
 41
0.0137778
  0
VERTEX
  8
0
 10
19.3469
 20
28.5174
 30
0.0
 40
0.0137778
 41
0.0137778
  0
VERTEX
  8
0
 10
19.3071
 20
28.6115
 30
0.0
 40
0.0137778
 41
0.0137778
  0
VERTEX
  8
0
 10
19.2658
 20
28.7092
 30
0.0
 40
0.0137778
 41
0.0137778
  0
VERTEX
  8
0
 10
19.1381
 20
29.0003
 30
0.0
 40
0.0137778
 41
0.0137778
  0
VERTEX
  8
0
 10
18.9722
 20
29.36
 30
0.0
 40
0.0137778
 41
0.0137778
  0
VERTEX
  8
0
 10
18.8101
 20
29.6924
 30
0.0
 40
0.0137778
 41
0.0137778
  0
VERTEX
  8
0
 10
18.6522
 20
29.9987
 30
0.0
 40
0.0137778
 41
0.0137778
  0
VERTEX
  8
0
 10
18.4993
 20
30.2811
 30
0.0
 40
0.0137778
 41
0.0137778
  0
VERTEX
  8
0
 10
18.3514
 20
30.5407
 30
0.0
 40
0.0137778
 41
0.0137778
  0
VERTEX
  8
0
 10
18.2092
 20
30.7792
 30
0.0
 40
0.0137778
 41
0.0137778
  0
VERTEX
  8
0
 10
18.0732
 20
30.9981
 30
0.0
 40
0.0137778
 41
0.0137778
  0
VERTEX
  8
0
 10
17.9439
 20
31.1992
 30
0.0
 40
0.0137778
 41
0.0137778
  0
VERTEX
  8
0
 10
17.8217
 20
31.3837
 30
0.0
 40
0.0137778
 41
0.0137778
  0
VERTEX
  8
0
 10
17.7071
 20
31.5536
 30
0.0
 40
0.0137778
 41
0.0137778
  0
VERTEX
  8
0
 10
17.6006
 20
31.7103
 30
0.0
 40
0.0137778
 41
0.0137778
  0
VERTEX
  8
0
 10
17.5028
 20
31.8553
 30
0.0
 40
0.0137778
 41
0.0137778
  0
VERTEX
  8
0
 10
17.4139
 20
31.9901
 30
0.0
 40
0.0137778
 41
0.0137778
  0
VERTEX
  8
0
 10
17.3346
 20
32.1167
 30
0.0
 40
0.0137778
 41
0.0137778
  0
VERTEX
  8
0
 10
17.2819
 20
32.2058
 30
0.0
 40
0.0137778
 41
0.0137778
  0
VERTEX
  8
0
 10
17.2654
 20
32.2361
 30
0.0
 40
0.0137778
 41
0.0137778
  0
VERTEX
  8
0
 10
17.304
 20
33.9757
 30
0.0
 40
0.0137778
 41
0.0137778
  0
SEQEND
 8
0
  0
POLYLINE
  8
0
 62
     250
 66
     1
 10
0
 20
0
 30
0.0
 40
0.992
 41
0.992
  0
VERTEX
  8
0
 10
17.3722
 20
33.9653
 30
0.0
 40
0.0137778
 41
0.0137778
  0
VERTEX
  8
0
 10
17.4121
 20
33.9282
 30
0.0
 40
0.0137778
 41
0.0137778
  0
VERTEX
  8
0
 10
17.5297
 20
33.814
 30
0.0
 40
0.0137778
 41
0.0137778
  0
VERTEX
  8
0
 10
17.6999
 20
33.6422
 30
0.0
 40
0.0137778
 41
0.0137778
  0
VERTEX
  8
0
 10
17.8794
 20
33.4539
 30
0.0
 40
0.0137778
 41
0.0137778
  0
VERTEX
  8
0
 10
18.0647
 20
33.2532
 30
0.0
 40
0.0137778
 41
0.0137778
  0
VERTEX
  8
0
 10
18.2528
 20
33.044
 30
0.0
 40
0.0137778
 41
0.0137778
  0
VERTEX
  8
0
 10
18.4401
 20
32.8306
 30
0.0
 40
0.0137778
 41
0.0137778
  0
VERTEX
  8
0
 10
18.6235
 20
32.6167
 30
0.0
 40
0.0137778
 41
0.0137778
  0
VERTEX
  8
0
 10
18.7558
 20
32.4593
 30
0.0
 40
0.0137778
 41
0.0137778
  0
VERTEX
  8
0
 10
18.7996
 20
32.4065
 30
0.0
 40
0.0137778
 41
0.0137778
  0
VERTEX
  8
0
 10
18.889
 20
32.2982
 30
0.0
 40
0.0137778
 41
0.0137778
  0
VERTEX
  8
0
 10
19.1518
 20
31.9686
 30
0.0
 40
0.0137778
 41
0.0137778
  0
VERTEX
  8
0
 10
19.4576
 20
31.5608
 30
0.0
 40
0.0137778
 41
0.0137778
  0
VERTEX
  8
0
 10
19.7232
 20
31.1721
 30
0.0
 40
0.0137778
 41
0.0137778
  0
VERTEX
  8
0
 10
19.9546
 20
30.7919
 30
0.0
 40
0.0137778
 41
0.0137778
  0
VERTEX
  8
0
 10
20.1582
 20
30.4094
 30
0.0
 40
0.0137778
 41
0.0137778
  0
VERTEX
  8
0
 10
20.3403
 20
30.0138
 30
0.0
 40
0.0137778
 41
0.0137778
  0
VERTEX
  8
0
 10
20.5069
 20
29.594
 30
0.0
 40
0.0137778
 41
0.0137778
  0
VERTEX
  8
0
 10
20.6272
 20
29.2539
 30
0.0
 40
0.0137778
 41
0.0137778
  0
VERTEX
  8
0
 10
20.6644
 20
29.1396
 30
0.0
 40
0.0137778
 41
0.0137778
  0
VERTEX
  8
0
 10
20.6925
 20
29.0538
 30
0.0
 40
0.0137778
 41
0.0137778
  0
VERTEX
  8
0
 10
20.7763
 20
28.7963
 30
0.0
 40
0.0137778
 41
0.0137778
  0
VERTEX
  8
0
 10
20.8753
 20
28.491
 30
0.0
 40
0.0137778
 41
0.0137778
  0
VERTEX
  8
0
 10
20.9626
 20
28.2172
 30
0.0
 40
0.0137778
 41
0.0137778
  0
VERTEX
  8
0
 10
21.04
 20
27.9688
 30
0.0
 40
0.0137778
 41
0.0137778
  0
VERTEX
  8
0
 10
21.109
 20
27.739
 30
0.0
 40
0.0137778
 41
0.0137778
  0
VERTEX
  8
0
 10
21.1711
 20
27.5215
 30
0.0
 40
0.0137778
 41
0.0137778
  0
VERTEX
  8
0
 10
21.2278
 20
27.31
 30
0.0
 40
0.0137778
 41
0.0137778
  0
VERTEX
  8
0
 10
21.2806
 20
27.0978
 30
0.0
 40
0.0137778
 41
0.0137778
  0
VERTEX
  8
0
 10
21.3311
 20
26.8785
 30
0.0
 40
0.0137778
 41
0.0137778
  0
VERTEX
  8
0
 10
21.3807
 20
26.6457
 30
0.0
 40
0.0137778
 41
0.0137778
  0
VERTEX
  8
0
 10
21.431
 20
26.3929
 30
0.0
 40
0.0137778
 41
0.0137778
  0
VERTEX
  8
0
 10
21.4835
 20
26.1137
 30
0.0
 40
0.0137778
 41
0.0137778
  0
VERTEX
  8
0
 10
21.5397
 20
25.8018
 30
0.0
 40
0.0137778
 41
0.0137778
  0
VERTEX
  8
0
 10
21.6011
 20
25.4504
 30
0.0
 40
0.0137778
 41
0.0137778
  0
VERTEX
  8
0
 10
21.6693
 20
25.0535
 30
0.0
 40
0.0137778
 41
0.0137778
  0
VERTEX
  8
0
 10
21.7268
 20
24.7165
 30
0.0
 40
0.0137778
 41
0.0137778
  0
VERTEX
  8
0
 10
21.7458
 20
24.6042
 30
0.0
 40
0.0137778
 41
0.0137778
  0
SEQEND
 8
0
  0
POLYLINE
  8
0
 62
     250
 66
     1
 10
0
 20
0
 30
0.0
 40
0.992
 41
0.992
  0
VERTEX
  8
0
 10
17.0042
 20
34.3406
 30
0.0
 40
0.0137778
 41
0.0137778
  0
VERTEX
  8
0
 10
16.8362
 20
34.4432
 30
0.0
 40
0.0137778
 41
0.0137778
  0
SEQEND
 8
0
  0
POLYLINE
  8
0
 62
     250
 66
     1
 10
0
 20
0
 30
0.0
 40
0.992
 41
0.992
  0
VERTEX
  8
0
 10
17.2969
 20
34.1707
 30
0.0
 40
0.0137778
 41
0.0137778
  0
VERTEX
  8
0
 10
17.2969
 20
34.3676
 30
0.0
 40
0.0137778
 41
0.0137778
  0
SEQEND
 8
0
  0
POLYLINE
  8
0
 62
     250
 66
     1
 10
0
 20
0
 30
0.0
 40
0.992
 41
0.992
  0
VERTEX
  8
0
 10
17.2424
 20
31.6139
 30
0.0
 40
0.0137778
 41
0.0137778
  0
VERTEX
  8
0
 10
17.2424
 20
31.4171
 30
0.0
 40
0.0137778
 41
0.0137778
  0
SEQEND
 8
0
  0
POLYLINE
  8
0
 62
     250
 66
     1
 10
0
 20
0
 30
0.0
 40
0.992
 41
0.992
  0
VERTEX
  8
0
 10
16.9386
 20
32.3074
 30
0.0
 40
0.0137778
 41
0.0137778
  0
VERTEX
  8
0
 10
16.7746
 20
32.4161
 30
0.0
 40
0.0137778
 41
0.0137778
  0
SEQEND
 8
0
  0
POLYLINE
  8
0
 62
     250
 66
     1
 10
0
 20
0
 30
0.0
 40
0.992
 41
0.992
  0
VERTEX
  8
0
 10
19.7425
 20
23.7822
 30
0.0
 40
0.0137778
 41
0.0137778
  0
VERTEX
  8
0
 10
19.7147
 20
23.5874
 30
0.0
 40
0.0137778
 41
0.0137778
  0
SEQEND
 8
0
  0
POLYLINE
  8
0
 62
     250
 66
     1
 10
0
 20
0
 30
0.0
 40
0.992
 41
0.992
  0
VERTEX
  8
0
 10
19.5119
 20
24.0235
 30
0.0
 40
0.0137778
 41
0.0137778
  0
VERTEX
  8
0
 10
19.3339
 20
23.9693
 30
0.0
 40
0.0137778
 41
0.0137778
  0
SEQEND
 8
0
  0
POLYLINE
  8
0
 62
     250
 66
     1
 10
0
 20
0
 30
0.0
 40
0.992
 41
0.992
  0
VERTEX
  8
0
 10
21.8661
 20
24.6061
 30
0.0
 40
0.0137778
 41
0.0137778
  0
VERTEX
  8
0
 10
22.0604
 20
24.6381
 30
0.0
 40
0.0137778
 41
0.0137778
  0
SEQEND
 8
0
  0
POLYLINE
  8
0
 62
     250
 66
     1
 10
0
 20
0
 30
0.0
 40
0.992
 41
0.992
  0
VERTEX
  8
0
 10
21.7956
 20
24.2989
 30
0.0
 40
0.0137778
 41
0.0137778
  0
VERTEX
  8
0
 10
21.8457
 20
24.1086
 30
0.0
 40
0.0137778
 41
0.0137778
  0
SEQEND
 8
0
  0
POLYLINE
  8
0
 62
     250
 66
     1
 10
0
 20
0
 30
0.0
 40
0.992
 41
0.992
  0
VERTEX
  8
0
 10
18.8819
 20
28.4257
 30
0.0
 40
0.0137778
 41
0.0137778
  0
VERTEX
  8
0
 10
19.0625
 20
28.5067
 30
0.0
 40
0.0137778
 41
0.0137778
  0
SEQEND
 8
0
  0
POLYLINE
  8
0
 62
     250
 66
     1
 10
0
 20
0
 30
0.0
 40
0.992
 41
0.992
  0
VERTEX
  8
0
 10
19.819
 20
30.5418
 30
0.0
 40
0.0137778
 41
0.0137778
  0
VERTEX
  8
0
 10
19.806
 20
28.0568
 30
0.0
 40
0.0137778
 41
0.0137778
  0
SEQEND
 8
0
  0
POLYLINE
  8
0
 62
     250
 66
     1
 10
0
 20
0
 30
0.0
 70
     1
 40
0
 41
0
  0
VERTEX
  8
0
 10
19.8194
 20
30.625
 30
0.0
 40
0
 41
0
  0
VERTEX
  8
0
 10
19.8157
 20
30.6153
 30
0.0
 40
0
 41
0
  0
VERTEX
  8
0
 10
19.7907
 20
30.5629
 30
0.0
 40
0
 41
0
  0
VERTEX
  8
0
 10
19.7599
 20
30.5151
 30
0.0
 40
0
 41
0
  0
VERTEX
  8
0
 10
19.7533
 20
30.5075
 30
0.0
 40
0
 41
0
  0
VERTEX
  8
0
 10
19.8189
 20
30.531
 30
0.0
 40
0
 41
0
  0
VERTEX
  8
0
 10
19.8843
 20
30.5069
 30
0.0
 40
0
 41
0
  0
VERTEX
  8
0
 10
19.8778
 20
30.5144
 30
0.0
 40
0
 41
0
  0
VERTEX
  8
0
 10
19.8475
 20
30.5626
 30
0.0
 40
0
 41
0
  0
VERTEX
  8
0
 10
19.8229
 20
30.6153
 30
0.0
 40
0
 41
0
  0
VERTEX
  8
0
 10
19.8194
 20
30.625
 30
0.0
 40
0
 41
0
  0
SEQEND
 8
0
  0
POLYLINE
  8
0
 62
     250
 66
     1
 10
0
 20
0
 30
0.0
 70
     1
 40
0
 41
0
  0
VERTEX
  8
0
 10
19.8056
 20
27.9738
 30
0.0
 40
0
 41
0
  0
VERTEX
  8
0
 10
19.8019
 20
27.9836
 30
0.0
 40
0
 41
0
  0
VERTEX
  8
0
 10
19.7775
 20
28.0363
 30
0.0
 40
0
 41
0
  0
VERTEX
  8
0
 10
19.7471
 20
28.0843
 30
0.0
 40
0
 41
0
  0
VERTEX
  8
0
 10
19.7406
 20
28.0918
 30
0.0
 40
0
 41
0
  0
VERTEX
  8
0
 10
19.8061
 20
28.0678
 30
0.0
 40
0
 41
0
  0
VERTEX
  8
0
 10
19.8717
 20
28.0911
 30
0.0
 40
0
 41
0
  0
VERTEX
  8
0
 10
19.8651
 20
28.0836
 30
0.0
 40
0
 41
0
  0
VERTEX
  8
0
 10
19.8342
 20
28.0358
 30
0.0
 40
0
 41
0
  0
VERTEX
  8
0
 10
19.8092
 20
27.9835
 30
0.0
 40
0
 41
0
  0
VERTEX
  8
0
 10
19.8056
 20
27.9738
 30
0.0
 40
0
 41
0
  0
SEQEND
 8
0
  0
POLYLINE
  8
0
 62
     250
 66
     1
 10
0
 20
0
 30
0.0
 40
0.992
 41
0.992
  0
VERTEX
  8
0
 10
21.6322
 20
35.9676
 30
0.0
 40
0.0137778
 41
0.0137778
  0
VERTEX
  8
0
 10
21.3922
 20
35.9969
 30
0.0
 40
0.0137778
 41
0.0137778
  0
SEQEND
 8
0
  0
POLYLINE
  8
0
 62
     250
 66
     1
 10
0
 20
0
 30
0.0
 40
0.992
 41
0.992
  0
VERTEX
  8
0
 10
21.8657
 20
36.1647
 30
0.0
 40
0.0137778
 41
0.0137778
  0
VERTEX
  8
0
 10
21.8078
 20
36.439
 30
0.0
 40
0.0137778
 41
0.0137778
  0
SEQEND
 8
0
  0
POLYLINE
  8
0
 62
     250
 66
     1
 10
0
 20
0
 30
0.0
 40
0.992
 41
0.992
  0
VERTEX
  8
0
 10
25.6411
 20
18.879
 30
0.0
 40
0.0137778
 41
0.0137778
  0
VERTEX
  8
0
 10
25.6469
 20
18.6254
 30
0.0
 40
0.0137778
 41
0.0137778
  0
SEQEND
 8
0
  0
POLYLINE
  8
0
 62
     250
 66
     1
 10
0
 20
0
 30
0.0
 40
0.992
 41
0.992
  0
VERTEX
  8
0
 10
25.3628
 20
19.1336
 30
0.0
 40
0.0137778
 41
0.0137778
  0
VERTEX
  8
0
 10
25.1262
 20
19.1258
 30
0.0
 40
0.0137778
 41
0.0137778
  0
SEQEND
 8
0
  0
POLYLINE
  8
0
 62
     250
 66
     1
 10
0
 20
0
 30
0.0
 40
0.992
 41
0.992
  0
VERTEX
  8
0
 10
24.2544
 20
23.9125
 30
0.0
 40
0.0137778
 41
0.0137778
  0
VERTEX
  8
0
 10
24.5878
 20
24.0121
 30
0.0
 40
0.0137778
 41
0.0137778
  0
SEQEND
 8
0
  0
POLYLINE
  8
0
 62
     250
 66
     1
 10
0
 20
0
 30
0.0
 40
0.992
 41
0.992
  0
VERTEX
  8
0
 10
27.125
 20
34.7639
 30
0.0
 40
0.0137778
 41
0.0137778
  0
VERTEX
  8
0
 10
26.9924
 20
34.4526
 30
0.0
 40
0.0137778
 41
0.0137778
  0
SEQEND
 8
0
  0
POLYLINE
  8
0
 62
     250
 66
     1
 10
0
 20
0
 30
0.0
 40
0.992
 41
0.992
  0
VERTEX
  8
0
 10
29.0694
 20
16.3472
 30
0.0
 40
0.0137778
 41
0.0137778
  0
VERTEX
  8
0
 10
29.3681
 20
16.7222
 30
0.0
 40
0.0137778
 41
0.0137778
  0
SEQEND
 8
0
  0
POLYLINE
  8
0
 62
     250
 66
     1
 10
0
 20
0
 30
0.0
 40
0.992
 41
0.992
  0
VERTEX
  8
0
 10
31.1944
 20
14.3056
 30
0.0
 40
0.0137778
 41
0.0137778
  0
VERTEX
  8
0
 10
31.5625
 20
14.6806
 30
0.0
 40
0.0137778
 41
0.0137778
  0
SEQEND
 8
0
  0
POLYLINE
  8
0
 62
     250
 66
     1
 10
0
 20
0
 30
0.0
 40
1.417
 41
1.417
  0
VERTEX
  8
0
 10
32.451
 20
29.8611
 30
0.0
 40
0.0196806
 41
0.0196806
  0
VERTEX
  8
0
 10
32.3818
 20
29.8611
 30
0.0
 40
0.0196806
 41
0.0196806
  0
SEQEND
 8
0
  0
POLYLINE
  8
0
 62
     250
 66
     1
 10
0
 20
0
 30
0.0
 70
     1
 40
0
 41
0
  0
VERTEX
  8
0
 10
32.5697
 20
29.8611
 30
0.0
 40
0
 41
0
  0
VERTEX
  8
0
 10
32.5586
 20
29.8653
 30
0.0
 40
0
 41
0
  0
VERTEX
  8
0
 10
32.526
 20
29.8793
 30
0.0
 40
0
 41
0
  0
VERTEX
  8
0
 10
32.4808
 20
29.9017
 30
0.0
 40
0
 41
0
  0
VERTEX
  8
0
 10
32.4381
 20
29.9272
 30
0.0
 40
0
 41
0
  0
VERTEX
  8
0
 10
32.4101
 20
29.9472
 30
0.0
 40
0
 41
0
  0
VERTEX
  8
0
 10
32.4015
 20
29.9547
 30
0.0
 40
0
 41
0
  0
VERTEX
  8
0
 10
32.4354
 20
29.8611
 30
0.0
 40
0
 41
0
  0
VERTEX
  8
0
 10
32.4015
 20
29.7675
 30
0.0
 40
0
 41
0
  0
VERTEX
  8
0
 10
32.4101
 20
29.775
 30
0.0
 40
0
 41
0
  0
VERTEX
  8
0
 10
32.4381
 20
29.7951
 30
0.0
 40
0
 41
0
  0
VERTEX
  8
0
 10
32.4808
 20
29.8207
 30
0.0
 40
0
 41
0
  0
VERTEX
  8
0
 10
32.526
 20
29.8431
 30
0.0
 40
0
 41
0
  0
VERTEX
  8
0
 10
32.5586
 20
29.8571
 30
0.0
 40
0
 41
0
  0
VERTEX
  8
0
 10
32.5697
 20
29.8611
 30
0.0
 40
0
 41
0
  0
SEQEND
 8
0
  0
POLYLINE
  8
0
 62
     250
 66
     1
 10
0
 20
0
 30
0.0
 40
1.417
 41
1.417
  0
VERTEX
  8
0
 10
32.4189
 20
25.2546
 30
0.0
 40
0.0196806
 41
0.0196806
  0
VERTEX
  8
0
 10
32.3497
 20
25.2546
 30
0.0
 40
0.0196806
 41
0.0196806
  0
SEQEND
 8
0
  0
POLYLINE
  8
0
 62
     250
 66
     1
 10
0
 20
0
 30
0.0
 70
     1
 40
0
 41
0
  0
VERTEX
  8
0
 10
32.5376
 20
25.2546
 30
0.0
 40
0
 41
0
  0
VERTEX
  8
0
 10
32.5265
 20
25.2588
 30
0.0
 40
0
 41
0
  0
VERTEX
  8
0
 10
32.4938
 20
25.2728
 30
0.0
 40
0
 41
0
  0
VERTEX
  8
0
 10
32.4486
 20
25.2951
 30
0.0
 40
0
 41
0
  0
VERTEX
  8
0
 10
32.406
 20
25.3207
 30
0.0
 40
0
 41
0
  0
VERTEX
  8
0
 10
32.3779
 20
25.3408
 30
0.0
 40
0
 41
0
  0
VERTEX
  8
0
 10
32.3694
 20
25.3482
 30
0.0
 40
0
 41
0
  0
VERTEX
  8
0
 10
32.4033
 20
25.2546
 30
0.0
 40
0
 41
0
  0
VERTEX
  8
0
 10
32.3694
 20
25.161
 30
0.0
 40
0
 41
0
  0
VERTEX
  8
0
 10
32.3779
 20
25.1685
 30
0.0
 40
0
 41
0
  0
VERTEX
  8
0
 10
32.406
 20
25.1886
 30
0.0
 40
0
 41
0
  0
VERTEX
  8
0
 10
32.4486
 20
25.2142
 30
0.0
 40
0
 41
0
  0
VERTEX
  8
0
 10
32.4938
 20
25.2365
 30
0.0
 40
0
 41
0
  0
VERTEX
  8
0
 10
32.5265
 20
25.2506
 30
0.0
 40
0
 41
0
  0
VERTEX
  8
0
 10
32.5376
 20
25.2546
 30
0.0
 40
0
 41
0
  0
SEQEND
 8
0
  0
POLYLINE
  8
0
 62
     250
 66
     1
 10
0
 20
0
 30
0.0
 40
1.417
 41
1.417
  0
VERTEX
  8
0
 10
32.4097
 20
18.3472
 30
0.0
 40
0.0196806
 41
0.0196806
  0
VERTEX
  8
0
 10
32.4608
 20
18.3472
 30
0.0
 40
0.0196806
 41
0.0196806
  0
SEQEND
 8
0
  0
POLYLINE
  8
0
 62
     250
 66
     1
 10
0
 20
0
 30
0.0
 70
     1
 40
0
 41
0
  0
VERTEX
  8
0
 10
32.5796
 20
18.3472
 30
0.0
 40
0
 41
0
  0
VERTEX
  8
0
 10
32.5685
 20
18.3432
 30
0.0
 40
0
 41
0
  0
VERTEX
  8
0
 10
32.5358
 20
18.3292
 30
0.0
 40
0
 41
0
  0
VERTEX
  8
0
 10
32.4907
 20
18.3067
 30
0.0
 40
0
 41
0
  0
VERTEX
  8
0
 10
32.4479
 20
18.2811
 30
0.0
 40
0
 41
0
  0
VERTEX
  8
0
 10
32.42
 20
18.2611
 30
0.0
 40
0
 41
0
  0
VERTEX
  8
0
 10
32.4114
 20
18.2536
 30
0.0
 40
0
 41
0
  0
VERTEX
  8
0
 10
32.4453
 20
18.3472
 30
0.0
 40
0
 41
0
  0
VERTEX
  8
0
 10
32.4114
 20
18.4408
 30
0.0
 40
0
 41
0
  0
VERTEX
  8
0
 10
32.42
 20
18.4333
 30
0.0
 40
0
 41
0
  0
VERTEX
  8
0
 10
32.4479
 20
18.4133
 30
0.0
 40
0
 41
0
  0
VERTEX
  8
0
 10
32.4907
 20
18.3878
 30
0.0
 40
0
 41
0
  0
VERTEX
  8
0
 10
32.5358
 20
18.3653
 30
0.0
 40
0
 41
0
  0
VERTEX
  8
0
 10
32.5685
 20
18.3514
 30
0.0
 40
0
 41
0
  0
VERTEX
  8
0
 10
32.5796
 20
18.3472
 30
0.0
 40
0
 41
0
  0
SEQEND
 8
0
  0
POLYLINE
  8
0
 62
     250
 66
     1
 10
0
 20
0
 30
0.0
 40
1.417
 41
1.417
  0
VERTEX
  8
0
 10
32.4092
 20
14.9212
 30
0.0
 40
0.0196806
 41
0.0196806
  0
VERTEX
  8
0
 10
32.4601
 20
14.9212
 30
0.0
 40
0.0196806
 41
0.0196806
  0
SEQEND
 8
0
  0
POLYLINE
  8
0
 62
     250
 66
     1
 10
0
 20
0
 30
0.0
 70
     1
 40
0
 41
0
  0
VERTEX
  8
0
 10
32.579
 20
14.9212
 30
0.0
 40
0
 41
0
  0
VERTEX
  8
0
 10
32.5679
 20
14.9172
 30
0.0
 40
0
 41
0
  0
VERTEX
  8
0
 10
32.5351
 20
14.9032
 30
0.0
 40
0
 41
0
  0
VERTEX
  8
0
 10
32.49
 20
14.8808
 30
0.0
 40
0
 41
0
  0
VERTEX
  8
0
 10
32.4472
 20
14.8553
 30
0.0
 40
0
 41
0
  0
VERTEX
  8
0
 10
32.4193
 20
14.8351
 30
0.0
 40
0
 41
0
  0
VERTEX
  8
0
 10
32.4107
 20
14.8276
 30
0.0
 40
0
 41
0
  0
VERTEX
  8
0
 10
32.4446
 20
14.9212
 30
0.0
 40
0
 41
0
  0
VERTEX
  8
0
 10
32.4107
 20
15.0149
 30
0.0
 40
0
 41
0
  0
VERTEX
  8
0
 10
32.4193
 20
15.0075
 30
0.0
 40
0
 41
0
  0
VERTEX
  8
0
 10
32.4472
 20
14.9874
 30
0.0
 40
0
 41
0
  0
VERTEX
  8
0
 10
32.49
 20
14.9618
 30
0.0
 40
0
 41
0
  0
VERTEX
  8
0
 10
32.5351
 20
14.9394
 30
0.0
 40
0
 41
0
  0
VERTEX
  8
0
 10
32.5679
 20
14.9254
 30
0.0
 40
0
 41
0
  0
VERTEX
  8
0
 10
32.579
 20
14.9212
 30
0.0
 40
0
 41
0
  0
SEQEND
 8
0
  0
POLYLINE
  8
0
 62
     250
 66
     1
 10
0
 20
0
 30
0.0
 70
     1
 40
0.992
 41
0.992
  0
VERTEX
  8
0
 10
7.62185
 20
19.8889
 30
0.0
 40
0.0137778
 41
0.0137778
  0
VERTEX
  8
0
 10
15.8194
 20
11.6695
 30
0.0
 40
0.0137778
 41
0.0137778
  0
VERTEX
  8
0
 10
15.78
 20
11.584
 30
0.0
 40
0.0137778
 41
0.0137778
  0
VERTEX
  8
0
 10
15.6707
 20
11.3235
 30
0.0
 40
0.0137778
 41
0.0137778
  0
VERTEX
  8
0
 10
15.5414
 20
10.973
 30
0.0
 40
0.0137778
 41
0.0137778
  0
VERTEX
  8
0
 10
15.4311
 20
10.6187
 30
0.0
 40
0.0137778
 41
0.0137778
  0
VERTEX
  8
0
 10
15.3396
 20
10.2608
 30
0.0
 40
0.0137778
 41
0.0137778
  0
VERTEX
  8
0
 10
15.2661
 20
9.89985
 30
0.0
 40
0.0137778
 41
0.0137778
  0
VERTEX
  8
0
 10
15.2104
 20
9.53614
 30
0.0
 40
0.0137778
 41
0.0137778
  0
VERTEX
  8
0
 10
15.1722
 20
9.17019
 30
0.0
 40
0.0137778
 41
0.0137778
  0
VERTEX
  8
0
 10
15.151
 20
8.8024
 30
0.0
 40
0.0137778
 41
0.0137778
  0
VERTEX
  8
0
 10
15.1463
 20
8.43321
 30
0.0
 40
0.0137778
 41
0.0137778
  0
VERTEX
  8
0
 10
15.1578
 20
8.06299
 30
0.0
 40
0.0137778
 41
0.0137778
  0
VERTEX
  8
0
 10
15.185
 20
7.69217
 30
0.0
 40
0.0137778
 41
0.0137778
  0
VERTEX
  8
0
 10
15.2276
 20
7.32118
 30
0.0
 40
0.0137778
 41
0.0137778
  0
VERTEX
  8
0
 10
15.2853
 20
6.95047
 30
0.0
 40
0.0137778
 41
0.0137778
  0
VERTEX
  8
0
 10
15.3574
 20
6.5804
 30
0.0
 40
0.0137778
 41
0.0137778
  0
VERTEX
  8
0
 10
15.4437
 20
6.21143
 30
0.0
 40
0.0137778
 41
0.0137778
  0
VERTEX
  8
0
 10
15.5436
 20
5.84403
 30
0.0
 40
0.0137778
 41
0.0137778
  0
VERTEX
  8
0
 10
15.6571
 20
5.47851
 30
0.0
 40
0.0137778
 41
0.0137778
  0
VERTEX
  8
0
 10
15.7833
 20
5.11535
 30
0.0
 40
0.0137778
 41
0.0137778
  0
VERTEX
  8
0
 10
15.9221
 20
4.75499
 30
0.0
 40
0.0137778
 41
0.0137778
  0
VERTEX
  8
0
 10
16.0731
 20
4.39785
 30
0.0
 40
0.0137778
 41
0.0137778
  0
VERTEX
  8
0
 10
16.2356
 20
4.04428
 30
0.0
 40
0.0137778
 41
0.0137778
  0
VERTEX
  8
0
 10
16.4094
 20
3.69472
 30
0.0
 40
0.0137778
 41
0.0137778
  0
VERTEX
  8
0
 10
16.5943
 20
3.34967
 30
0.0
 40
0.0137778
 41
0.0137778
  0
VERTEX
  8
0
 10
16.7896
 20
3.0095
 30
0.0
 40
0.0137778
 41
0.0137778
  0
VERTEX
  8
0
 10
16.995
 20
2.67458
 30
0.0
 40
0.0137778
 41
0.0137778
  0
VERTEX
  8
0
 10
17.21
 20
2.34538
 30
0.0
 40
0.0137778
 41
0.0137778
  0
VERTEX
  8
0
 10
17.4343
 20
2.02235
 30
0.0
 40
0.0137778
 41
0.0137778
  0
VERTEX
  8
0
 10
17.6674
 20
1.70589
 30
0.0
 40
0.0137778
 41
0.0137778
  0
VERTEX
  8
0
 10
17.909
 20
1.39638
 30
0.0
 40
0.0137778
 41
0.0137778
  0
VERTEX
  8
0
 10
18.1588
 20
1.09424
 30
0.0
 40
0.0137778
 41
0.0137778
  0
VERTEX
  8
0
 10
18.416
 20
0.799968
 30
0.0
 40
0.0137778
 41
0.0137778
  0
VERTEX
  8
0
 10
18.6133
 20
0.584472
 30
0.0
 40
0.0137778
 41
0.0137778
  0
VERTEX
  8
0
 10
18.6806
 20
0.513889
 30
0.0
 40
0.0137778
 41
0.0137778
  0
VERTEX
  8
0
 10
18.6689
 20
0.519694
 30
0.0
 40
0.0137778
 41
0.0137778
  0
VERTEX
  8
0
 10
18.6235
 20
0.515571
 30
0.0
 40
0.0137778
 41
0.0137778
  0
VERTEX
  8
0
 10
18.4671
 20
0.515354
 30
0.0
 40
0.0137778
 41
0.0137778
  0
VERTEX
  8
0
 10
18.2179
 20
0.51351
 30
0.0
 40
0.0137778
 41
0.0137778
  0
VERTEX
  8
0
 10
17.8828
 20
0.509983
 30
0.0
 40
0.0137778
 41
0.0137778
  0
VERTEX
  8
0
 10
17.4681
 20
0.505046
 30
0.0
 40
0.0137778
 41
0.0137778
  0
VERTEX
  8
0
 10
16.9807
 20
0.498753
 30
0.0
 40
0.0137778
 41
0.0137778
  0
VERTEX
  8
0
 10
16.4269
 20
0.491265
 30
0.0
 40
0.0137778
 41
0.0137778
  0
VERTEX
  8
0
 10
15.8137
 20
0.482639
 30
0.0
 40
0.0137778
 41
0.0137778
  0
VERTEX
  8
0
 10
15.1476
 20
0.47309
 30
0.0
 40
0.0137778
 41
0.0137778
  0
VERTEX
  8
0
 10
14.4351
 20
0.462619
 30
0.0
 40
0.0137778
 41
0.0137778
  0
VERTEX
  8
0
 10
13.683
 20
0.451497
 30
0.0
 40
0.0137778
 41
0.0137778
  0
VERTEX
  8
0
 10
12.8978
 20
0.439671
 30
0.0
 40
0.0137778
 41
0.0137778
  0
VERTEX
  8
0
 10
12.0862
 20
0.427408
 30
0.0
 40
0.0137778
 41
0.0137778
  0
VERTEX
  8
0
 10
11.2548
 20
0.414768
 30
0.0
 40
0.0137778
 41
0.0137778
  0
VERTEX
  8
0
 10
10.4102
 20
0.40191
 30
0.0
 40
0.0137778
 41
0.0137778
  0
VERTEX
  8
0
 10
9.55903
 20
0.388889
 30
0.0
 40
0.0137778
 41
0.0137778
  0
VERTEX
  8
0
 10
8.70796
 20
0.375922
 30
0.0
 40
0.0137778
 41
0.0137778
  0
VERTEX
  8
0
 10
7.86356
 20
0.36301
 30
0.0
 40
0.0137778
 41
0.0137778
  0
VERTEX
  8
0
 10
7.03256
 20
0.350424
 30
0.0
 40
0.0137778
 41
0.0137778
  0
VERTEX
  8
0
 10
6.22151
 20
0.338108
 30
0.0
 40
0.0137778
 41
0.0137778
  0
VERTEX
  8
0
 10
5.43701
 20
0.326335
 30
0.0
 40
0.0137778
 41
0.0137778
  0
VERTEX
  8
0
 10
4.68576
 20
0.315158
 30
0.0
 40
0.0137778
 41
0.0137778
  0
VERTEX
  8
0
 10
3.97439
 20
0.304742
 30
0.0
 40
0.0137778
 41
0.0137778
  0
VERTEX
  8
0
 10
3.30946
 20
0.295139
 30
0.0
 40
0.0137778
 41
0.0137778
  0
VERTEX
  8
0
 10
2.6976
 20
0.286567
 30
0.0
 40
0.0137778
 41
0.0137778
  0
VERTEX
  8
0
 10
2.14551
 20
0.279025
 30
0.0
 40
0.0137778
 41
0.0137778
  0
VERTEX
  8
0
 10
1.65978
 20
0.272786
 30
0.0
 40
0.0137778
 41
0.0137778
  0
VERTEX
  8
0
 10
1.24702
 20
0.267796
 30
0.0
 40
0.0137778
 41
0.0137778
  0
VERTEX
  8
0
 10
0.913846
 20
0.264324
 30
0.0
 40
0.0137778
 41
0.0137778
  0
VERTEX
  8
0
 10
0.666938
 20
0.262424
 30
0.0
 40
0.0137778
 41
0.0137778
  0
VERTEX
  8
0
 10
0.512858
 20
0.262261
 30
0.0
 40
0.0137778
 41
0.0137778
  0
VERTEX
  8
0
 10
0.465278
 20
0.256944
 30
0.0
 40
0.0137778
 41
0.0137778
  0
VERTEX
  8
0
 10
0.458333
 20
0.263889
 30
0.0
 40
0.0137778
 41
0.0137778
  0
VERTEX
  8
0
 10
0.441624
 20
0.479764
 30
0.0
 40
0.0137778
 41
0.0137778
  0
VERTEX
  8
0
 10
0.400282
 20
1.12804
 30
0.0
 40
0.0137778
 41
0.0137778
  0
VERTEX
  8
0
 10
0.361654
 20
1.96821
 30
0.0
 40
0.0137778
 41
0.0137778
  0
VERTEX
  8
0
 10
0.342176
 20
2.78532
 30
0.0
 40
0.0137778
 41
0.0137778
  0
VERTEX
  8
0
 10
0.341851
 20
3.58008
 30
0.0
 40
0.0137778
 41
0.0137778
  0
VERTEX
  8
0
 10
0.360514
 20
4.35325
 30
0.0
 40
0.0137778
 41
0.0137778
  0
VERTEX
  8
0
 10
0.398004
 20
5.10563
 30
0.0
 40
0.0137778
 41
0.0137778
  0
VERTEX
  8
0
 10
0.454318
 20
5.83794
 30
0.0
 40
0.0137778
 41
0.0137778
  0
VERTEX
  8
0
 10
0.529243
 20
6.551
 30
0.0
 40
0.0137778
 41
0.0137778
  0
VERTEX
  8
0
 10
0.622667
 20
7.24561
 30
0.0
 40
0.0137778
 41
0.0137778
  0
VERTEX
  8
0
 10
0.734538
 20
7.92247
 30
0.0
 40
0.0137778
 41
0.0137778
  0
VERTEX
  8
0
 10
0.864692
 20
8.58236
 30
0.0
 40
0.0137778
 41
0.0137778
  0
VERTEX
  8
0
 10
1.01307
 20
9.22607
 30
0.0
 40
0.0137778
 41
0.0137778
  0
VERTEX
  8
0
 10
1.17947
 20
9.85439
 30
0.0
 40
0.0137778
 41
0.0137778
  0
VERTEX
  8
0
 10
1.36388
 20
10.468
 30
0.0
 40
0.0137778
 41
0.0137778
  0
VERTEX
  8
0
 10
1.56608
 20
11.0679
 30
0.0
 40
0.0137778
 41
0.0137778
  0
VERTEX
  8
0
 10
1.78603
 20
11.6545
 30
0.0
 40
0.0137778
 41
0.0137778
  0
VERTEX
  8
0
 10
2.0236
 20
12.2289
 30
0.0
 40
0.0137778
 41
0.0137778
  0
VERTEX
  8
0
 10
2.27865
 20
12.7917
 30
0.0
 40
0.0137778
 41
0.0137778
  0
VERTEX
  8
0
 10
2.55106
 20
13.3438
 30
0.0
 40
0.0137778
 41
0.0137778
  0
VERTEX
  8
0
 10
2.84076
 20
13.8857
 30
0.0
 40
0.0137778
 41
0.0137778
  0
VERTEX
  8
0
 10
3.14762
 20
14.4185
 30
0.0
 40
0.0137778
 41
0.0137778
  0
VERTEX
  8
0
 10
3.47146
 20
14.9428
 30
0.0
 40
0.0137778
 41
0.0137778
  0
VERTEX
  8
0
 10
3.81228
 20
15.4593
 30
0.0
 40
0.0137778
 41
0.0137778
  0
VERTEX
  8
0
 10
4.16986
 20
15.969
 30
0.0
 40
0.0137778
 41
0.0137778
  0
VERTEX
  8
0
 10
4.54417
 20
16.4725
 30
0.0
 40
0.0137778
 41
0.0137778
  0
VERTEX
  8
0
 10
4.935
 20
16.9706
 30
0.0
 40
0.0137778
 41
0.0137778
  0
VERTEX
  8
0
 10
5.34233
 20
17.464
 30
0.0
 40
0.0137778
 41
0.0137778
  0
VERTEX
  8
0
 10
5.766
 20
17.9536
 30
0.0
 40
0.0137778
 41
0.0137778
  0
VERTEX
  8
0
 10
6.20589
 20
18.4401
 30
0.0
 40
0.0137778
 41
0.0137778
  0
VERTEX
  8
0
 10
6.66194
 20
18.9243
 30
0.0
 40
0.0137778
 41
0.0137778
  0
VERTEX
  8
0
 10
7.13396
 20
19.4069
 30
0.0
 40
0.0137778
 41
0.0137778
  0
VERTEX
  8
0
 10
7.49892
 20
19.7694
 30
0.0
 40
0.0137778
 41
0.0137778
  0
VERTEX
  8
0
 10
7.62185
 20
19.8889
 30
0.0
 40
0.0137778
 41
0.0137778
  0
SEQEND
 8
0
  0
POLYLINE
  8
0
 62
     250
 66
     1
 10
0
 20
0
 30
0.0
 40
0.992
 41
0.992
  0
VERTEX
  8
0
 10
0.847222
 20
0.263726
 30
0.0
 40
0.0137778
 41
0.0137778
  0
VERTEX
  8
0
 10
0.833225
 20
0.467014
 30
0.0
 40
0.0137778
 41
0.0137778
  0
VERTEX
  8
0
 10
0.79899
 20
1.07742
 30
0.0
 40
0.0137778
 41
0.0137778
  0
VERTEX
  8
0
 10
0.76606
 20
1.89762
 30
0.0
 40
0.0137778
 41
0.0137778
  0
VERTEX
  8
0
 10
0.748969
 20
2.71625
 30
0.0
 40
0.0137778
 41
0.0137778
  0
VERTEX
  8
0
 10
0.748264
 20
3.52528
 30
0.0
 40
0.0137778
 41
0.0137778
  0
VERTEX
  8
0
 10
0.764486
 20
4.31668
 30
0.0
 40
0.0137778
 41
0.0137778
  0
VERTEX
  8
0
 10
0.798122
 20
5.08236
 30
0.0
 40
0.0137778
 41
0.0137778
  0
VERTEX
  8
0
 10
0.849826
 20
5.81424
 30
0.0
 40
0.0137778
 41
0.0137778
  0
VERTEX
  8
0
 10
0.899522
 20
6.33214
 30
0.0
 40
0.0137778
 41
0.0137778
  0
VERTEX
  8
0
 10
0.920139
 20
6.50424
 30
0.0
 40
0.0137778
 41
0.0137778
  0
VERTEX
  8
0
 10
0.940267
 20
6.67279
 30
0.0
 40
0.0137778
 41
0.0137778
  0
VERTEX
  8
0
 10
1.01036
 20
7.17719
 30
0.0
 40
0.0137778
 41
0.0137778
  0
VERTEX
  8
0
 10
1.11833
 20
7.83442
 30
0.0
 40
0.0137778
 41
0.0137778
  0
VERTEX
  8
0
 10
1.24419
 20
8.47711
 30
0.0
 40
0.0137778
 41
0.0137778
  0
VERTEX
  8
0
 10
1.38835
 20
9.10628
 30
0.0
 40
0.0137778
 41
0.0137778
  0
VERTEX
  8
0
 10
1.55094
 20
9.7231
 30
0.0
 40
0.0137778
 41
0.0137778
  0
VERTEX
  8
0
 10
1.73226
 20
10.3286
 30
0.0
 40
0.0137778
 41
0.0137778
  0
VERTEX
  8
0
 10
1.93261
 20
10.9239
 30
0.0
 40
0.0137778
 41
0.0137778
  0
VERTEX
  8
0
 10
2.09494
 20
11.3646
 30
0.0
 40
0.0137778
 41
0.0137778
  0
VERTEX
  8
0
 10
2.15235
 20
11.5101
 30
0.0
 40
0.0137778
 41
0.0137778
  0
VERTEX
  8
0
 10
2.20671
 20
11.6481
 30
0.0
 40
0.0137778
 41
0.0137778
  0
VERTEX
  8
0
 10
2.37869
 20
12.0583
 30
0.0
 40
0.0137778
 41
0.0137778
  0
VERTEX
  8
0
 10
2.62278
 20
12.599
 30
0.0
 40
0.0137778
 41
0.0137778
  0
VERTEX
  8
0
 10
2.88514
 20
13.1331
 30
0.0
 40
0.0137778
 41
0.0137778
  0
VERTEX
  8
0
 10
3.16635
 20
13.6617
 30
0.0
 40
0.0137778
 41
0.0137778
  0
VERTEX
  8
0
 10
3.46674
 20
14.1856
 30
0.0
 40
0.0137778
 41
0.0137778
  0
VERTEX
  8
0
 10
3.787
 20
14.7057
 30
0.0
 40
0.0137778
 41
0.0137778
  0
VERTEX
  8
0
 10
4.12756
 20
15.2229
 30
0.0
 40
0.0137778
 41
0.0137778
  0
VERTEX
  8
0
 10
4.39681
 20
15.6108
 30
0.0
 40
0.0137778
 41
0.0137778
  0
VERTEX
  8
0
 10
4.48899
 20
15.7383
 30
0.0
 40
0.0137778
 41
0.0137778
  0
VERTEX
  8
0
 10
4.65115
 20
15.9629
 30
0.0
 40
0.0137778
 41
0.0137778
  0
VERTEX
  8
0
 10
5.15935
 20
16.6208
 30
0.0
 40
0.0137778
 41
0.0137778
  0
VERTEX
  8
0
 10
5.90121
 20
17.5106
 30
0.0
 40
0.0137778
 41
0.0137778
  0
VERTEX
  8
0
 10
6.7194
 20
18.4133
 30
0.0
 40
0.0137778
 41
0.0137778
  0
VERTEX
  8
0
 10
7.39014
 20
19.1081
 30
0.0
 40
0.0137778
 41
0.0137778
  0
VERTEX
  8
0
 10
7.61882
 20
19.3344
 30
0.0
 40
0.0137778
 41
0.0137778
  0
VERTEX
  8
0
 10
15.351
 20
11.5817
 30
0.0
 40
0.0137778
 41
0.0137778
  0
VERTEX
  8
0
 10
15.3157
 20
11.4973
 30
0.0
 40
0.0137778
 41
0.0137778
  0
VERTEX
  8
0
 10
15.2193
 20
11.24
 30
0.0
 40
0.0137778
 41
0.0137778
  0
VERTEX
  8
0
 10
15.1071
 20
10.8931
 30
0.0
 40
0.0137778
 41
0.0137778
  0
VERTEX
  8
0
 10
15.0137
 20
10.5416
 30
0.0
 40
0.0137778
 41
0.0137778
  0
VERTEX
  8
0
 10
14.9389
 20
10.1858
 30
0.0
 40
0.0137778
 41
0.0137778
  0
VERTEX
  8
0
 10
14.8818
 20
9.82622
 30
0.0
 40
0.0137778
 41
0.0137778
  0
VERTEX
  8
0
 10
14.8421
 20
9.46349
 30
0.0
 40
0.0137778
 41
0.0137778
  0
VERTEX
  8
0
 10
14.8192
 20
9.09804
 30
0.0
 40
0.0137778
 41
0.0137778
  0
VERTEX
  8
0
 10
14.8124
 20
8.73036
 30
0.0
 40
0.0137778
 41
0.0137778
  0
VERTEX
  8
0
 10
14.8214
 20
8.36094
 30
0.0
 40
0.0137778
 41
0.0137778
  0
VERTEX
  8
0
 10
14.8456
 20
7.99024
 30
0.0
 40
0.0137778
 41
0.0137778
  0
VERTEX
  8
0
 10
14.8843
 20
7.61882
 30
0.0
 40
0.0137778
 41
0.0137778
  0
VERTEX
  8
0
 10
14.9372
 20
7.24707
 30
0.0
 40
0.0137778
 41
0.0137778
  0
VERTEX
  8
0
 10
15.0038
 20
6.87554
 30
0.0
 40
0.0137778
 41
0.0137778
  0
VERTEX
  8
0
 10
15.0833
 20
6.50478
 30
0.0
 40
0.0137778
 41
0.0137778
  0
VERTEX
  8
0
 10
15.1754
 20
6.13519
 30
0.0
 40
0.0137778
 41
0.0137778
  0
VERTEX
  8
0
 10
15.2796
 20
5.76731
 30
0.0
 40
0.0137778
 41
0.0137778
  0
VERTEX
  8
0
 10
15.395
 20
5.40158
 30
0.0
 40
0.0137778
 41
0.0137778
  0
VERTEX
  8
0
 10
15.5214
 20
5.03857
 30
0.0
 40
0.0137778
 41
0.0137778
  0
VERTEX
  8
0
 10
15.6582
 20
4.67871
 30
0.0
 40
0.0137778
 41
0.0137778
  0
VERTEX
  8
0
 10
15.8049
 20
4.32254
 30
0.0
 40
0.0137778
 41
0.0137778
  0
VERTEX
  8
0
 10
15.9608
 20
3.97049
 30
0.0
 40
0.0137778
 41
0.0137778
  0
VERTEX
  8
0
 10
16.1256
 20
3.6231
 30
0.0
 40
0.0137778
 41
0.0137778
  0
VERTEX
  8
0
 10
16.2986
 20
3.28082
 30
0.0
 40
0.0137778
 41
0.0137778
  0
VERTEX
  8
0
 10
16.4793
 20
2.94417
 30
0.0
 40
0.0137778
 41
0.0137778
  0
VERTEX
  8
0
 10
16.6672
 20
2.61367
 30
0.0
 40
0.0137778
 41
0.0137778
  0
VERTEX
  8
0
 10
16.8618
 20
2.28976
 30
0.0
 40
0.0137778
 41
0.0137778
  0
VERTEX
  8
0
 10
17.0624
 20
1.97299
 30
0.0
 40
0.0137778
 41
0.0137778
  0
VERTEX
  8
0
 10
17.2686
 20
1.66379
 30
0.0
 40
0.0137778
 41
0.0137778
  0
VERTEX
  8
0
 10
17.48
 20
1.36263
 30
0.0
 40
0.0137778
 41
0.0137778
  0
VERTEX
  8
0
 10
17.6957
 20
1.0701
 30
0.0
 40
0.0137778
 41
0.0137778
  0
VERTEX
  8
0
 10
17.9156
 20
0.786621
 30
0.0
 40
0.0137778
 41
0.0137778
  0
VERTEX
  8
0
 10
18.0822
 20
0.580513
 30
0.0
 40
0.0137778
 41
0.0137778
  0
VERTEX
  8
0
 10
18.1389
 20
0.512696
 30
0.0
 40
0.0137778
 41
0.0137778
  0
SEQEND
 8
0
  0
POLYLINE
  8
0
 62
     250
 66
     1
 10
0
 20
0
 30
0.0
 40
0.992
 41
0.992
  0
VERTEX
  8
0
 10
13.2341
 20
9.06494
 30
0.0
 40
0.0137778
 41
0.0137778
  0
VERTEX
  8
0
 10
4.84765
 20
0.317546
 30
0.0
 40
0.0137778
 41
0.0137778
  0
SEQEND
 8
0
  0
POLYLINE
  8
0
 62
     250
 66
     1
 10
0
 20
0
 30
0.0
 70
     1
 40
0
 41
0
  0
VERTEX
  8
0
 10
13.2917
 20
9.125
 30
0.0
 40
0
 41
0
  0
VERTEX
  8
0
 10
13.2823
 20
9.12044
 30
0.0
 40
0
 41
0
  0
VERTEX
  8
0
 10
13.2281
 20
9.09967
 30
0.0
 40
0
 41
0
  0
VERTEX
  8
0
 10
13.1728
 20
9.08626
 30
0.0
 40
0
 41
0
  0
VERTEX
  8
0
 10
13.1629
 20
9.08535
 30
0.0
 40
0
 41
0
  0
VERTEX
  8
0
 10
13.2266
 20
9.05707
 30
0.0
 40
0
 41
0
  0
VERTEX
  8
0
 10
13.2574
 20
8.99462
 30
0.0
 40
0
 41
0
  0
VERTEX
  8
0
 10
13.2579
 20
9.00461
 30
0.0
 40
0
 41
0
  0
VERTEX
  8
0
 10
13.269
 20
9.06044
 30
0.0
 40
0
 41
0
  0
VERTEX
  8
0
 10
13.2875
 20
9.11546
 30
0.0
 40
0
 41
0
  0
VERTEX
  8
0
 10
13.2917
 20
9.125
 30
0.0
 40
0
 41
0
  0
SEQEND
 8
0
  0
POLYLINE
  8
0
 62
     250
 66
     1
 10
0
 20
0
 30
0.0
 40
0.992
 41
0.992
  0
VERTEX
  8
0
 10
12.7159
 20
14.9567
 30
0.0
 40
0.0137778
 41
0.0137778
  0
VERTEX
  8
0
 10
12.4508
 20
14.7099
 30
0.0
 40
0.0137778
 41
0.0137778
  0
SEQEND
 8
0
  0
POLYLINE
  8
0
 62
     250
 66
     1
 10
0
 20
0
 30
0.0
 40
0.992
 41
0.992
  0
VERTEX
  8
0
 10
7.89035
 20
19.6674
 30
0.0
 40
0.0137778
 41
0.0137778
  0
VERTEX
  8
0
 10
7.75163
 20
19.5278
 30
0.0
 40
0.0137778
 41
0.0137778
  0
SEQEND
 8
0
  0
POLYLINE
  8
0
 62
     250
 66
     1
 10
0
 20
0
 30
0.0
 40
0.992
 41
0.992
  0
VERTEX
  8
0
 10
7.20594
 20
19.6468
 30
0.0
 40
0.0137778
 41
0.0137778
  0
VERTEX
  8
0
 10
7.35286
 20
19.5158
 30
0.0
 40
0.0137778
 41
0.0137778
  0
SEQEND
 8
0
  0
POLYLINE
  8
0
 62
     250
 66
     1
 10
0
 20
0
 30
0.0
 40
0.992
 41
0.992
  0
VERTEX
  8
0
 10
15.7064
 20
11.2513
 30
0.0
 40
0.0137778
 41
0.0137778
  0
VERTEX
  8
0
 10
15.5642
 20
11.3874
 30
0.0
 40
0.0137778
 41
0.0137778
  0
SEQEND
 8
0
  0
POLYLINE
  8
0
 62
     250
 66
     1
 10
0
 20
0
 30
0.0
 40
0.992
 41
0.992
  0
VERTEX
  8
0
 10
15.5564
 20
12.046
 30
0.0
 40
0.0137778
 41
0.0137778
  0
VERTEX
  8
0
 10
15.4682
 20
11.87
 30
0.0
 40
0.0137778
 41
0.0137778
  0
SEQEND
 8
0
  0
POLYLINE
  8
0
 62
     250
 66
     1
 10
0
 20
0
 30
0.0
 40
0.992
 41
0.992
  0
VERTEX
  8
0
 10
15.1957
 20
6.51389
 30
0.0
 40
0.0137778
 41
0.0137778
  0
VERTEX
  8
0
 10
15.5439
 20
6.625
 30
0.0
 40
0.0137778
 41
0.0137778
  0
SEQEND
 8
0
  0
POLYLINE
  8
0
 62
     250
 66
     1
 10
0
 20
0
 30
0.0
 70
     1
 40
0.992
 41
0.992
  0
VERTEX
  8
0
 10
21.4028
 20
36.4028
 30
0.0
 40
0.0137778
 41
0.0137778
  0
VERTEX
  8
0
 10
21.5069
 20
35.931
 30
0.0
 40
0.0137778
 41
0.0137778
  0
VERTEX
  8
0
 10
21.826
 20
34.5169
 30
0.0
 40
0.0137778
 41
0.0137778
  0
VERTEX
  8
0
 10
22.2532
 20
32.6672
 30
0.0
 40
0.0137778
 41
0.0137778
  0
VERTEX
  8
0
 10
22.6811
 20
30.861
 30
0.0
 40
0.0137778
 41
0.0137778
  0
VERTEX
  8
0
 10
23.1065
 20
29.1056
 30
0.0
 40
0.0137778
 41
0.0137778
  0
VERTEX
  8
0
 10
23.5258
 20
27.4082
 30
0.0
 40
0.0137778
 41
0.0137778
  0
VERTEX
  8
0
 10
23.9358
 20
25.7763
 30
0.0
 40
0.0137778
 41
0.0137778
  0
VERTEX
  8
0
 10
24.3331
 20
24.2168
 30
0.0
 40
0.0137778
 41
0.0137778
  0
VERTEX
  8
0
 10
24.6185
 20
23.1071
 30
0.0
 40
0.0137778
 41
0.0137778
  0
VERTEX
  8
0
 10
24.7143
 20
22.7374
 30
0.0
 40
0.0137778
 41
0.0137778
  0
VERTEX
  8
0
 10
24.7482
 20
22.6061
 30
0.0
 40
0.0137778
 41
0.0137778
  0
VERTEX
  8
0
 10
24.8386
 20
22.2093
 30
0.0
 40
0.0137778
 41
0.0137778
  0
VERTEX
  8
0
 10
24.9369
 20
21.6957
 30
0.0
 40
0.0137778
 41
0.0137778
  0
VERTEX
  8
0
 10
25.0146
 20
21.1931
 30
0.0
 40
0.0137778
 41
0.0137778
  0
VERTEX
  8
0
 10
25.0764
 20
20.6976
 30
0.0
 40
0.0137778
 41
0.0137778
  0
VERTEX
  8
0
 10
25.1271
 20
20.206
 30
0.0
 40
0.0137778
 41
0.0137778
  0
VERTEX
  8
0
 10
25.1719
 20
19.7142
 30
0.0
 40
0.0137778
 41
0.0137778
  0
VERTEX
  8
0
 10
25.216
 20
19.2189
 30
0.0
 40
0.0137778
 41
0.0137778
  0
VERTEX
  8
0
 10
25.2511
 20
18.8418
 30
0.0
 40
0.0137778
 41
0.0137778
  0
VERTEX
  8
0
 10
25.2639
 20
18.7162
 30
0.0
 40
0.0137778
 41
0.0137778
  0
VERTEX
  8
0
 10
25.3033
 20
18.7217
 30
0.0
 40
0.0137778
 41
0.0137778
  0
VERTEX
  8
0
 10
25.4236
 20
18.7263
 30
0.0
 40
0.0137778
 41
0.0137778
  0
VERTEX
  8
0
 10
25.6057
 20
18.7119
 30
0.0
 40
0.0137778
 41
0.0137778
  0
VERTEX
  8
0
 10
25.8128
 20
18.6689
 30
0.0
 40
0.0137778
 41
0.0137778
  0
VERTEX
  8
0
 10
26.0475
 20
18.5922
 30
0.0
 40
0.0137778
 41
0.0137778
  0
VERTEX
  8
0
 10
26.3122
 20
18.4774
 30
0.0
 40
0.0137778
 41
0.0137778
  0
VERTEX
  8
0
 10
26.6099
 20
18.3194
 30
0.0
 40
0.0137778
 41
0.0137778
  0
VERTEX
  8
0
 10
26.9428
 20
18.1139
 30
0.0
 40
0.0137778
 41
0.0137778
  0
VERTEX
  8
0
 10
27.2226
 20
17.9226
 30
0.0
 40
0.0137778
 41
0.0137778
  0
VERTEX
  8
0
 10
27.3137
 20
17.856
 30
0.0
 40
0.0137778
 41
0.0137778
  0
VERTEX
  8
0
 10
27.4037
 20
17.79
 30
0.0
 40
0.0137778
 41
0.0137778
  0
VERTEX
  8
0
 10
27.6711
 20
17.5883
 30
0.0
 40
0.0137778
 41
0.0137778
  0
VERTEX
  8
0
 10
28.0379
 20
17.3024
 30
0.0
 40
0.0137778
 41
0.0137778
  0
VERTEX
  8
0
 10
28.4113
 20
17.0007
 30
0.0
 40
0.0137778
 41
0.0137778
  0
VERTEX
  8
0
 10
28.7883
 20
16.6864
 30
0.0
 40
0.0137778
 41
0.0137778
  0
VERTEX
  8
0
 10
29.1664
 20
16.3622
 30
0.0
 40
0.0137778
 41
0.0137778
  0
VERTEX
  8
0
 10
29.5429
 20
16.0311
 30
0.0
 40
0.0137778
 41
0.0137778
  0
VERTEX
  8
0
 10
29.9149
 20
15.6961
 30
0.0
 40
0.0137778
 41
0.0137778
  0
VERTEX
  8
0
 10
30.2796
 20
15.3599
 30
0.0
 40
0.0137778
 41
0.0137778
  0
VERTEX
  8
0
 10
30.6343
 20
15.0253
 30
0.0
 40
0.0137778
 41
0.0137778
  0
VERTEX
  8
0
 10
30.9764
 20
14.6954
 30
0.0
 40
0.0137778
 41
0.0137778
  0
VERTEX
  8
0
 10
31.3029
 20
14.3731
 30
0.0
 40
0.0137778
 41
0.0137778
  0
VERTEX
  8
0
 10
31.6113
 20
14.0611
 30
0.0
 40
0.0137778
 41
0.0137778
  0
VERTEX
  8
0
 10
31.8986
 20
13.7625
 30
0.0
 40
0.0137778
 41
0.0137778
  0
VERTEX
  8
0
 10
32.1622
 20
13.4801
 30
0.0
 40
0.0137778
 41
0.0137778
  0
VERTEX
  8
0
 10
32.3993
 20
13.2168
 30
0.0
 40
0.0137778
 41
0.0137778
  0
VERTEX
  8
0
 10
32.5561
 20
13.0365
 30
0.0
 40
0.0137778
 41
0.0137778
  0
VERTEX
  8
0
 10
32.6072
 20
12.9754
 30
0.0
 40
0.0137778
 41
0.0137778
  0
VERTEX
  8
0
 10
32.5674
 20
30.9583
 30
0.0
 40
0.0137778
 41
0.0137778
  0
VERTEX
  8
0
 10
32.4446
 20
31.0592
 30
0.0
 40
0.0137778
 41
0.0137778
  0
VERTEX
  8
0
 10
32.0718
 20
31.3561
 30
0.0
 40
0.0137778
 41
0.0137778
  0
VERTEX
  8
0
 10
31.541
 20
31.7629
 30
0.0
 40
0.0137778
 41
0.0137778
  0
VERTEX
  8
0
 10
30.9768
 20
32.1751
 30
0.0
 40
0.0137778
 41
0.0137778
  0
VERTEX
  8
0
 10
30.381
 20
32.5893
 30
0.0
 40
0.0137778
 41
0.0137778
  0
VERTEX
  8
0
 10
29.7553
 20
33.0017
 30
0.0
 40
0.0137778
 41
0.0137778
  0
VERTEX
  8
0
 10
29.1013
 20
33.4087
 30
0.0
 40
0.0137778
 41
0.0137778
  0
VERTEX
  8
0
 10
28.421
 20
33.8069
 30
0.0
 40
0.0137778
 41
0.0137778
  0
VERTEX
  8
0
 10
27.7161
 20
34.1928
 30
0.0
 40
0.0137778
 41
0.0137778
  0
VERTEX
  8
0
 10
26.9883
 20
34.5625
 30
0.0
 40
0.0137778
 41
0.0137778
  0
VERTEX
  8
0
 10
26.2396
 20
34.9128
 30
0.0
 40
0.0137778
 41
0.0137778
  0
VERTEX
  8
0
 10
25.4714
 20
35.2399
 30
0.0
 40
0.0137778
 41
0.0137778
  0
VERTEX
  8
0
 10
24.6857
 20
35.5401
 30
0.0
 40
0.0137778
 41
0.0137778
  0
VERTEX
  8
0
 10
23.8842
 20
35.8103
 30
0.0
 40
0.0137778
 41
0.0137778
  0
VERTEX
  8
0
 10
23.0687
 20
36.0464
 30
0.0
 40
0.0137778
 41
0.0137778
  0
VERTEX
  8
0
 10
22.241
 20
36.2451
 30
0.0
 40
0.0137778
 41
0.0137778
  0
VERTEX
  8
0
 10
21.6132
 20
36.3689
 30
0.0
 40
0.0137778
 41
0.0137778
  0
VERTEX
  8
0
 10
21.4028
 20
36.4028
 30
0.0
 40
0.0137778
 41
0.0137778
  0
SEQEND
 8
0
  0
POLYLINE
  8
0
 62
     250
 66
     1
 10
0
 20
0
 30
0.0
 40
0.992
 41
0.992
  0
VERTEX
  8
0
 10
32.5932
 20
13.6713
 30
0.0
 40
0.0137778
 41
0.0137778
  0
VERTEX
  8
0
 10
32.5333
 20
13.7347
 30
0.0
 40
0.0137778
 41
0.0137778
  0
VERTEX
  8
0
 10
32.3517
 20
13.9231
 30
0.0
 40
0.0137778
 41
0.0137778
  0
VERTEX
  8
0
 10
32.0881
 20
14.1906
 30
0.0
 40
0.0137778
 41
0.0137778
  0
VERTEX
  8
0
 10
31.805
 20
14.4714
 30
0.0
 40
0.0137778
 41
0.0137778
  0
VERTEX
  8
0
 10
31.505
 20
14.7629
 30
0.0
 40
0.0137778
 41
0.0137778
  0
VERTEX
  8
0
 10
31.1908
 20
15.0626
 30
0.0
 40
0.0137778
 41
0.0137778
  0
VERTEX
  8
0
 10
30.865
 20
15.3681
 30
0.0
 40
0.0137778
 41
0.0137778
  0
VERTEX
  8
0
 10
30.5301
 20
15.6765
 30
0.0
 40
0.0137778
 41
0.0137778
  0
VERTEX
  8
0
 10
30.189
 20
15.9856
 30
0.0
 40
0.0137778
 41
0.0137778
  0
VERTEX
  8
0
 10
29.844
 20
16.2926
 30
0.0
 40
0.0137778
 41
0.0137778
  0
VERTEX
  8
0
 10
29.4981
 20
16.5951
 30
0.0
 40
0.0137778
 41
0.0137778
  0
VERTEX
  8
0
 10
29.1535
 20
16.8907
 30
0.0
 40
0.0137778
 41
0.0137778
  0
VERTEX
  8
0
 10
28.8132
 20
17.1765
 30
0.0
 40
0.0137778
 41
0.0137778
  0
VERTEX
  8
0
 10
28.4797
 20
17.4504
 30
0.0
 40
0.0137778
 41
0.0137778
  0
VERTEX
  8
0
 10
28.1556
 20
17.7096
 30
0.0
 40
0.0137778
 41
0.0137778
  0
VERTEX
  8
0
 10
27.8435
 20
17.9515
 30
0.0
 40
0.0137778
 41
0.0137778
  0
VERTEX
  8
0
 10
27.621
 20
18.1189
 30
0.0
 40
0.0137778
 41
0.0137778
  0
VERTEX
  8
0
 10
27.5461
 20
18.1736
 30
0.0
 40
0.0137778
 41
0.0137778
  0
VERTEX
  8
0
 10
27.4767
 20
18.2244
 30
0.0
 40
0.0137778
 41
0.0137778
  0
VERTEX
  8
0
 10
27.2647
 20
18.3721
 30
0.0
 40
0.0137778
 41
0.0137778
  0
VERTEX
  8
0
 10
26.9957
 20
18.5469
 30
0.0
 40
0.0137778
 41
0.0137778
  0
VERTEX
  8
0
 10
26.7386
 20
18.6982
 30
0.0
 40
0.0137778
 41
0.0137778
  0
VERTEX
  8
0
 10
26.4932
 20
18.8261
 30
0.0
 40
0.0137778
 41
0.0137778
  0
VERTEX
  8
0
 10
26.2592
 20
18.9308
 30
0.0
 40
0.0137778
 41
0.0137778
  0
VERTEX
  8
0
 10
26.036
 20
19.0124
 30
0.0
 40
0.0137778
 41
0.0137778
  0
VERTEX
  8
0
 10
25.8236
 20
19.071
 30
0.0
 40
0.0137778
 41
0.0137778
  0
VERTEX
  8
0
 10
25.6724
 20
19.1004
 30
0.0
 40
0.0137778
 41
0.0137778
  0
VERTEX
  8
0
 10
25.6215
 20
19.1067
 30
0.0
 40
0.0137778
 41
0.0137778
  0
VERTEX
  8
0
 10
25.6175
 20
19.1496
 30
0.0
 40
0.0137778
 41
0.0137778
  0
VERTEX
  8
0
 10
25.5796
 20
19.5729
 30
0.0
 40
0.0137778
 41
0.0137778
  0
VERTEX
  8
0
 10
25.576
 20
19.6146
 30
0.0
 40
0.0137778
 41
0.0137778
  0
VERTEX
  8
0
 10
25.5672
 20
19.7138
 30
0.0
 40
0.0137778
 41
0.0137778
  0
VERTEX
  8
0
 10
25.5407
 20
20.0111
 30
0.0
 40
0.0137778
 41
0.0137778
  0
VERTEX
  8
0
 10
25.5035
 20
20.4044
 30
0.0
 40
0.0137778
 41
0.0137778
  0
VERTEX
  8
0
 10
25.4615
 20
20.7971
 30
0.0
 40
0.0137778
 41
0.0137778
  0
VERTEX
  8
0
 10
25.4125
 20
21.1915
 30
0.0
 40
0.0137778
 41
0.0137778
  0
VERTEX
  8
0
 10
25.3539
 20
21.5903
 30
0.0
 40
0.0137778
 41
0.0137778
  0
VERTEX
  8
0
 10
25.2832
 20
21.9957
 30
0.0
 40
0.0137778
 41
0.0137778
  0
VERTEX
  8
0
 10
25.1979
 20
22.4101
 30
0.0
 40
0.0137778
 41
0.0137778
  0
VERTEX
  8
0
 10
25.1228
 20
22.7301
 30
0.0
 40
0.0137778
 41
0.0137778
  0
VERTEX
  8
0
 10
25.0954
 20
22.8361
 30
0.0
 40
0.0137778
 41
0.0137778
  0
VERTEX
  8
0
 10
25.0556
 20
22.9901
 30
0.0
 40
0.0137778
 41
0.0137778
  0
VERTEX
  8
0
 10
24.9361
 20
23.4521
 30
0.0
 40
0.0137778
 41
0.0137778
  0
VERTEX
  8
0
 10
24.7686
 20
24.1035
 30
0.0
 40
0.0137778
 41
0.0137778
  0
VERTEX
  8
0
 10
24.5932
 20
24.7885
 30
0.0
 40
0.0137778
 41
0.0137778
  0
VERTEX
  8
0
 10
24.4107
 20
25.505
 30
0.0
 40
0.0137778
 41
0.0137778
  0
VERTEX
  8
0
 10
24.2218
 20
26.2514
 30
0.0
 40
0.0137778
 41
0.0137778
  0
VERTEX
  8
0
 10
24.0272
 20
27.0258
 30
0.0
 40
0.0137778
 41
0.0137778
  0
VERTEX
  8
0
 10
23.8276
 20
27.8264
 30
0.0
 40
0.0137778
 41
0.0137778
  0
VERTEX
  8
0
 10
23.6236
 20
28.6514
 30
0.0
 40
0.0137778
 41
0.0137778
  0
VERTEX
  8
0
 10
23.416
 20
29.499
 30
0.0
 40
0.0137778
 41
0.0137778
  0
VERTEX
  8
0
 10
23.2051
 20
30.3674
 30
0.0
 40
0.0137778
 41
0.0137778
  0
VERTEX
  8
0
 10
22.9921
 20
31.2546
 30
0.0
 40
0.0137778
 41
0.0137778
  0
VERTEX
  8
0
 10
22.7774
 20
32.1589
 30
0.0
 40
0.0137778
 41
0.0137778
  0
VERTEX
  8
0
 10
22.5617
 20
33.0783
 30
0.0
 40
0.0137778
 41
0.0137778
  0
VERTEX
  8
0
 10
22.3457
 20
34.0114
 30
0.0
 40
0.0137778
 41
0.0137778
  0
VERTEX
  8
0
 10
22.13
 20
34.9561
 30
0.0
 40
0.0137778
 41
0.0137778
  0
VERTEX
  8
0
 10
21.9686
 20
35.6718
 30
0.0
 40
0.0137778
 41
0.0137778
  0
VERTEX
  8
0
 10
21.9154
 20
35.9104
 30
0.0
 40
0.0137778
 41
0.0137778
  0
VERTEX
  8
0
 10
22.0871
 20
35.8763
 30
0.0
 40
0.0137778
 41
0.0137778
  0
VERTEX
  8
0
 10
22.5994
 20
35.7594
 30
0.0
 40
0.0137778
 41
0.0137778
  0
VERTEX
  8
0
 10
23.2896
 20
35.5775
 30
0.0
 40
0.0137778
 41
0.0137778
  0
VERTEX
  8
0
 10
23.9854
 20
35.3647
 30
0.0
 40
0.0137778
 41
0.0137778
  0
VERTEX
  8
0
 10
24.6865
 20
35.1212
 30
0.0
 40
0.0137778
 41
0.0137778
  0
VERTEX
  8
0
 10
25.3922
 20
34.8474
 30
0.0
 40
0.0137778
 41
0.0137778
  0
VERTEX
  8
0
 10
26.1021
 20
34.5432
 30
0.0
 40
0.0137778
 41
0.0137778
  0
VERTEX
  8
0
 10
26.8156
 20
34.2089
 30
0.0
 40
0.0137778
 41
0.0137778
  0
VERTEX
  8
0
 10
27.3546
 20
33.9385
 30
0.0
 40
0.0137778
 41
0.0137778
  0
VERTEX
  8
0
 10
27.5322
 20
33.8446
 30
0.0
 40
0.0137778
 41
0.0137778
  0
VERTEX
  8
0
 10
27.626
 20
33.7951
 30
0.0
 40
0.0137778
 41
0.0137778
  0
VERTEX
  8
0
 10
27.9054
 20
33.6429
 30
0.0
 40
0.0137778
 41
0.0137778
  0
VERTEX
  8
0
 10
28.2775
 20
33.4331
 30
0.0
 40
0.0137778
 41
0.0137778
  0
VERTEX
  8
0
 10
28.6471
 20
33.2165
 30
0.0
 40
0.0137778
 41
0.0137778
  0
VERTEX
  8
0
 10
29.0126
 20
32.9949
 30
0.0
 40
0.0137778
 41
0.0137778
  0
VERTEX
  8
0
 10
29.3729
 20
32.7696
 30
0.0
 40
0.0137778
 41
0.0137778
  0
VERTEX
  8
0
 10
29.7263
 20
32.5422
 30
0.0
 40
0.0137778
 41
0.0137778
  0
VERTEX
  8
0
 10
30.0714
 20
32.3143
 30
0.0
 40
0.0137778
 41
0.0137778
  0
VERTEX
  8
0
 10
30.4068
 20
32.0872
 30
0.0
 40
0.0137778
 41
0.0137778
  0
VERTEX
  8
0
 10
30.7311
 20
31.8626
 30
0.0
 40
0.0137778
 41
0.0137778
  0
VERTEX
  8
0
 10
31.0426
 20
31.6419
 30
0.0
 40
0.0137778
 41
0.0137778
  0
VERTEX
  8
0
 10
31.3404
 20
31.4268
 30
0.0
 40
0.0137778
 41
0.0137778
  0
VERTEX
  8
0
 10
31.6226
 20
31.2185
 30
0.0
 40
0.0137778
 41
0.0137778
  0
VERTEX
  8
0
 10
31.8879
 20
31.0189
 30
0.0
 40
0.0137778
 41
0.0137778
  0
VERTEX
  8
0
 10
32.135
 20
30.8293
 30
0.0
 40
0.0137778
 41
0.0137778
  0
VERTEX
  8
0
 10
32.3624
 20
30.6511
 30
0.0
 40
0.0137778
 41
0.0137778
  0
VERTEX
  8
0
 10
32.5171
 20
30.5276
 30
0.0
 40
0.0137778
 41
0.0137778
  0
VERTEX
  8
0
 10
32.5685
 20
30.4861
 30
0.0
 40
0.0137778
 41
0.0137778
  0
SEQEND
 8
0
  0
POLYLINE
  8
0
 62
     250
 66
     1
 10
0
 20
0
 30
0.0
 40
0.992
 41
0.992
  0
VERTEX
  8
0
 10
24.9476
 20
26.9135
 30
0.0
 40
0.0137778
 41
0.0137778
  0
VERTEX
  8
0
 10
32.5932
 20
19.2778
 30
0.0
 40
0.0137778
 41
0.0137778
  0
SEQEND
 8
0
  0
POLYLINE
  8
0
 62
     250
 66
     1
 10
0
 20
0
 30
0.0
 70
     1
 40
0
 41
0
  0
VERTEX
  8
0
 10
24.8889
 20
26.9722
 30
0.0
 40
0
 41
0
  0
VERTEX
  8
0
 10
24.8932
 20
26.9628
 30
0.0
 40
0
 41
0
  0
VERTEX
  8
0
 10
24.9129
 20
26.9082
 30
0.0
 40
0
 41
0
  0
VERTEX
  8
0
 10
24.9251
 20
26.8526
 30
0.0
 40
0
 41
0
  0
VERTEX
  8
0
 10
24.9258
 20
26.8426
 30
0.0
 40
0
 41
0
  0
VERTEX
  8
0
 10
24.9554
 20
26.9057
 30
0.0
 40
0
 41
0
  0
VERTEX
  8
0
 10
25.0185
 20
26.9353
 30
0.0
 40
0
 41
0
  0
VERTEX
  8
0
 10
25.0085
 20
26.936
 30
0.0
 40
0
 41
0
  0
VERTEX
  8
0
 10
24.9529
 20
26.9483
 30
0.0
 40
0
 41
0
  0
VERTEX
  8
0
 10
24.8983
 20
26.9679
 30
0.0
 40
0
 41
0
  0
VERTEX
  8
0
 10
24.8889
 20
26.9722
 30
0.0
 40
0
 41
0
  0
SEQEND
 8
0
  0
POLYLINE
  8
0
 62
     250
 66
     1
 10
0
 20
0
 30
0.0
 40
1
 41
1
  0
VERTEX
  8
0
 10
24.3493
 20
24.1533
 30
0.0
 40
0.0138889
 41
0.0138889
  0
VERTEX
  8
0
 10
24.311
 20
24.1446
 30
0.0
 40
0.0138889
 41
0.0138889
  0
SEQEND
 8
0
  0
POLYLINE
  8
0
 62
     250
 66
     1
 10
0
 20
0
 30
0.0
 40
1
 41
1
  0
VERTEX
  8
0
 10
24.2554
 20
24.1319
 30
0.0
 40
0.0138889
 41
0.0138889
  0
VERTEX
  8
0
 10
24.1722
 20
24.1131
 30
0.0
 40
0.0138889
 41
0.0138889
  0
SEQEND
 8
0
  0
POLYLINE
  8
0
 62
     250
 66
     1
 10
0
 20
0
 30
0.0
 40
1
 41
1
  0
VERTEX
  8
0
 10
24.1451
 20
24.1051
 30
0.0
 40
0.0138889
 41
0.0138889
  0
VERTEX
  8
0
 10
24.1417
 20
24.1029
 30
0.0
 40
0.0138889
 41
0.0138889
  0
VERTEX
  8
0
 10
24.1272
 20
24.0871
 30
0.0
 40
0.0138889
 41
0.0138889
  0
VERTEX
  8
0
 10
24.1196
 20
24.0754
 30
0.0
 40
0.0138889
 41
0.0138889
  0
VERTEX
  8
0
 10
24.1196
 20
24.0754
 30
0.0
 40
0.0138889
 41
0.0138889
  0
VERTEX
  8
0
 10
24.1208
 20
24.0725
 30
0.0
 40
0.0138889
 41
0.0138889
  0
VERTEX
  8
0
 10
24.1336
 20
24.0422
 30
0.0
 40
0.0138889
 41
0.0138889
  0
VERTEX
  8
0
 10
24.1349
 20
24.0392
 30
0.0
 40
0.0138889
 41
0.0138889
  0
SEQEND
 8
0
  0
POLYLINE
  8
0
 62
     250
 66
     1
 10
0
 20
0
 30
0.0
 40
1
 41
1
  0
VERTEX
  8
0
 10
24.1643
 20
23.9668
 30
0.0
 40
0.0138889
 41
0.0138889
  0
VERTEX
  8
0
 10
24.1942
 20
23.8913
 30
0.0
 40
0.0138889
 41
0.0138889
  0
VERTEX
  8
0
 10
24.2742
 20
23.6607
 30
0.0
 40
0.0138889
 41
0.0138889
  0
VERTEX
  8
0
 10
24.3762
 20
23.3239
 30
0.0
 40
0.0138889
 41
0.0138889
  0
VERTEX
  8
0
 10
24.4704
 20
22.9621
 30
0.0
 40
0.0138889
 41
0.0138889
  0
VERTEX
  8
0
 10
24.5569
 20
22.5817
 30
0.0
 40
0.0138889
 41
0.0138889
  0
VERTEX
  8
0
 10
24.6358
 20
22.1887
 30
0.0
 40
0.0138889
 41
0.0138889
  0
VERTEX
  8
0
 10
24.7072
 20
21.7892
 30
0.0
 40
0.0138889
 41
0.0138889
  0
VERTEX
  8
0
 10
24.7713
 20
21.3893
 30
0.0
 40
0.0138889
 41
0.0138889
  0
VERTEX
  8
0
 10
24.8281
 20
20.995
 30
0.0
 40
0.0138889
 41
0.0138889
  0
VERTEX
  8
0
 10
24.8776
 20
20.6126
 30
0.0
 40
0.0138889
 41
0.0138889
  0
VERTEX
  8
0
 10
24.9203
 20
20.2482
 30
0.0
 40
0.0138889
 41
0.0138889
  0
VERTEX
  8
0
 10
24.956
 20
19.9078
 30
0.0
 40
0.0138889
 41
0.0138889
  0
VERTEX
  8
0
 10
24.9849
 20
19.5975
 30
0.0
 40
0.0138889
 41
0.0138889
  0
VERTEX
  8
0
 10
25.0071
 20
19.3235
 30
0.0
 40
0.0138889
 41
0.0138889
  0
VERTEX
  8
0
 10
25.0226
 20
19.0918
 30
0.0
 40
0.0138889
 41
0.0138889
  0
VERTEX
  8
0
 10
25.0319
 20
18.9085
 30
0.0
 40
0.0138889
 41
0.0138889
  0
VERTEX
  8
0
 10
25.0349
 20
18.8118
 30
0.0
 40
0.0138889
 41
0.0138889
  0
VERTEX
  8
0
 10
25.0347
 20
18.7797
 30
0.0
 40
0.0138889
 41
0.0138889
  0
SEQEND
 8
0
  0
POLYLINE
  8
0
 62
     250
 66
     1
 10
0
 20
0
 30
0.0
 40
1
 41
1
  0
VERTEX
  8
0
 10
25.034
 20
18.7406
 30
0.0
 40
0.0138889
 41
0.0138889
  0
VERTEX
  8
0
 10
25.0338
 20
18.7347
 30
0.0
 40
0.0138889
 41
0.0138889
  0
VERTEX
  8
0
 10
25.0317
 20
18.7131
 30
0.0
 40
0.0138889
 41
0.0138889
  0
VERTEX
  8
0
 10
25.0285
 20
18.7026
 30
0.0
 40
0.0138889
 41
0.0138889
  0
VERTEX
  8
0
 10
25.0278
 20
18.7024
 30
0.0
 40
0.0138889
 41
0.0138889
  0
VERTEX
  8
0
 10
25.0278
 20
18.705
 30
0.0
 40
0.0138889
 41
0.0138889
  0
VERTEX
  8
0
 10
25.0367
 20
18.7128
 30
0.0
 40
0.0138889
 41
0.0138889
  0
VERTEX
  8
0
 10
25.0554
 20
18.7193
 30
0.0
 40
0.0138889
 41
0.0138889
  0
VERTEX
  8
0
 10
25.0604
 20
18.7203
 30
0.0
 40
0.0138889
 41
0.0138889
  0
SEQEND
 8
0
  0
POLYLINE
  8
0
 62
     250
 66
     1
 10
0
 20
0
 30
0.0
 40
1
 41
1
  0
VERTEX
  8
0
 10
25.1151
 20
18.7261
 30
0.0
 40
0.0138889
 41
0.0138889
  0
VERTEX
  8
0
 10
25.1218
 20
18.7264
 30
0.0
 40
0.0138889
 41
0.0138889
  0
VERTEX
  8
0
 10
25.191
 20
18.7257
 30
0.0
 40
0.0138889
 41
0.0138889
  0
VERTEX
  8
0
 10
25.1976
 20
18.7253
 30
0.0
 40
0.0138889
 41
0.0138889
  0
SEQEND
 8
0
  0
POLYLINE
  8
0
 62
     250
 66
     1
 10
0
 20
0
 30
0.0
 40
1
 41
1
  0
VERTEX
  8
0
 10
25.2251
 20
18.7229
 30
0.0
 40
0.0138889
 41
0.0138889
  0
VERTEX
  8
0
 10
25.2289
 20
18.7225
 30
0.0
 40
0.0138889
 41
0.0138889
  0
VERTEX
  8
0
 10
25.2614
 20
18.7169
 30
0.0
 40
0.0138889
 41
0.0138889
  0
VERTEX
  8
0
 10
25.2639
 20
18.7162
 30
0.0
 40
0.0138889
 41
0.0138889
  0
SEQEND
 8
0
  0
POLYLINE
  8
0
 62
     250
 66
     1
 10
0
 20
0
 30
0.0
 40
0.992
 41
0.992
  0
VERTEX
  8
0
 10
24.8103
 20
24.0121
 30
0.0
 40
0.0137778
 41
0.0137778
  0
VERTEX
  8
0
 10
24.8404
 20
23.9022
 30
0.0
 40
0.0137778
 41
0.0137778
  0
VERTEX
  8
0
 10
24.9269
 20
23.5718
 30
0.0
 40
0.0137778
 41
0.0137778
  0
VERTEX
  8
0
 10
25.0308
 20
23.149
 30
0.0
 40
0.0137778
 41
0.0137778
  0
VERTEX
  8
0
 10
25.1226
 20
22.7438
 30
0.0
 40
0.0137778
 41
0.0137778
  0
VERTEX
  8
0
 10
25.2035
 20
22.3554
 30
0.0
 40
0.0137778
 41
0.0137778
  0
VERTEX
  8
0
 10
25.274
 20
21.9842
 30
0.0
 40
0.0137778
 41
0.0137778
  0
VERTEX
  8
0
 10
25.3356
 20
21.6294
 30
0.0
 40
0.0137778
 41
0.0137778
  0
VERTEX
  8
0
 10
25.3886
 20
21.2914
 30
0.0
 40
0.0137778
 41
0.0137778
  0
VERTEX
  8
0
 10
25.4342
 20
20.9696
 30
0.0
 40
0.0137778
 41
0.0137778
  0
VERTEX
  8
0
 10
25.4732
 20
20.6639
 30
0.0
 40
0.0137778
 41
0.0137778
  0
VERTEX
  8
0
 10
25.5068
 20
20.374
 30
0.0
 40
0.0137778
 41
0.0137778
  0
VERTEX
  8
0
 10
25.5356
 20
20.0999
 30
0.0
 40
0.0137778
 41
0.0137778
  0
VERTEX
  8
0
 10
25.5606
 20
19.8412
 30
0.0
 40
0.0137778
 41
0.0137778
  0
VERTEX
  8
0
 10
25.5828
 20
19.5978
 30
0.0
 40
0.0137778
 41
0.0137778
  0
VERTEX
  8
0
 10
25.6029
 20
19.3696
 30
0.0
 40
0.0137778
 41
0.0137778
  0
VERTEX
  8
0
 10
25.6221
 20
19.1561
 30
0.0
 40
0.0137778
 41
0.0137778
  0
VERTEX
  8
0
 10
25.6361
 20
19.0069
 30
0.0
 40
0.0137778
 41
0.0137778
  0
VERTEX
  8
0
 10
25.6411
 20
18.9574
 30
0.0
 40
0.0137778
 41
0.0137778
  0
SEQEND
 8
0
  0
POLYLINE
  8
0
 62
     250
 66
     1
 10
0
 20
0
 30
0.0
 40
0.992
 41
0.992
  0
VERTEX
  8
0
 10
24.0814
 20
25.2026
 30
0.0
 40
0.0137778
 41
0.0137778
  0
VERTEX
  8
0
 10
24.4731
 20
25.2676
 30
0.0
 40
0.0137778
 41
0.0137778
  0
SEQEND
 8
0
  0
POLYLINE
  8
0
 62
     250
 66
     1
 10
0
 20
0
 30
0.0
 40
0.992
 41
0.992
  0
VERTEX
  8
0
 10
6.57986
 20
26.1574
 30
0.0
 40
0.0137778
 41
0.0137778
  0
VERTEX
  8
0
 10
12.0313
 20
19.3704
 30
0.0
 40
0.0137778
 41
0.0137778
  0
SEQEND
 8
0
  0
POLYLINE
  8
0
 62
     250
 66
     1
 10
0
 20
0
 30
0.0
 70
     1
 40
0
 41
0
  0
VERTEX
  8
0
 10
6.52778
 20
26.2222
 30
0.0
 40
0
 41
0
  0
VERTEX
  8
0
 10
6.53103
 20
26.2124
 30
0.0
 40
0
 41
0
  0
VERTEX
  8
0
 10
6.54465
 20
26.156
 30
0.0
 40
0
 41
0
  0
VERTEX
  8
0
 10
6.55083
 20
26.0993
 30
0.0
 40
0
 41
0
  0
VERTEX
  8
0
 10
6.55046
 20
26.0893
 30
0.0
 40
0
 41
0
  0
VERTEX
  8
0
 10
6.58669
 20
26.1489
 30
0.0
 40
0
 41
0
  0
VERTEX
  8
0
 10
6.65261
 20
26.1714
 30
0.0
 40
0
 41
0
  0
VERTEX
  8
0
 10
6.64274
 20
26.1732
 30
0.0
 40
0
 41
0
  0
VERTEX
  8
0
 10
6.58886
 20
26.1915
 30
0.0
 40
0
 41
0
  0
VERTEX
  8
0
 10
6.53674
 20
26.2169
 30
0.0
 40
0
 41
0
  0
VERTEX
  8
0
 10
6.52778
 20
26.2222
 30
0.0
 40
0
 41
0
  0
SEQEND
 8
0
  0
POLYLINE
  8
0
 62
     250
 66
     1
 10
0
 20
0
 30
0.0
 70
     1
 40
0
 41
0
  0
VERTEX
  8
0
 10
12.0833
 20
19.3056
 30
0.0
 40
0
 41
0
  0
VERTEX
  8
0
 10
12.0744
 20
19.311
 30
0.0
 40
0
 41
0
  0
VERTEX
  8
0
 10
12.0222
 20
19.3364
 30
0.0
 40
0
 41
0
  0
VERTEX
  8
0
 10
11.9683
 20
19.3546
 30
0.0
 40
0
 41
0
  0
VERTEX
  8
0
 10
11.9585
 20
19.3564
 30
0.0
 40
0
 41
0
  0
VERTEX
  8
0
 10
12.0244
 20
19.3789
 30
0.0
 40
0
 41
0
  0
VERTEX
  8
0
 10
12.0607
 20
19.4385
 30
0.0
 40
0
 41
0
  0
VERTEX
  8
0
 10
12.0602
 20
19.4285
 30
0.0
 40
0
 41
0
  0
VERTEX
  8
0
 10
12.0664
 20
19.3719
 30
0.0
 40
0
 41
0
  0
VERTEX
  8
0
 10
12.08
 20
19.3154
 30
0.0
 40
0
 41
0
  0
VERTEX
  8
0
 10
12.0833
 20
19.3056
 30
0.0
 40
0
 41
0
  0
SEQEND
 8
0
  0
POLYLINE
  8
0
 62
     250
 66
     1
 10
0
 20
0
 30
0.0
 70
     1
 40
0.992
 41
0.992
  0
VERTEX
  8
0
 10
4.22222
 20
17.25
 30
0.0
 40
0.0137778
 41
0.0137778
  0
VERTEX
  8
0
 10
4.24854
 20
17.2838
 30
0.0
 40
0.0137778
 41
0.0137778
  0
VERTEX
  8
0
 10
4.32667
 20
17.3857
 30
0.0
 40
0.0137778
 41
0.0137778
  0
VERTEX
  8
0
 10
4.44319
 20
17.5403
 30
0.0
 40
0.0137778
 41
0.0137778
  0
VERTEX
  8
0
 10
4.57064
 20
17.7114
 30
0.0
 40
0.0137778
 41
0.0137778
  0
VERTEX
  8
0
 10
4.70785
 20
17.8971
 30
0.0
 40
0.0137778
 41
0.0137778
  0
VERTEX
  8
0
 10
4.85363
 20
18.0949
 30
0.0
 40
0.0137778
 41
0.0137778
  0
VERTEX
  8
0
 10
5.00678
 20
18.3028
 30
0.0
 40
0.0137778
 41
0.0137778
  0
VERTEX
  8
0
 10
5.16629
 20
18.5187
 30
0.0
 40
0.0137778
 41
0.0137778
  0
VERTEX
  8
0
 10
5.33089
 20
18.7403
 30
0.0
 40
0.0137778
 41
0.0137778
  0
VERTEX
  8
0
 10
5.4994
 20
18.9654
 30
0.0
 40
0.0137778
 41
0.0137778
  0
VERTEX
  8
0
 10
5.67079
 20
19.1919
 30
0.0
 40
0.0137778
 41
0.0137778
  0
VERTEX
  8
0
 10
5.84381
 20
19.4178
 30
0.0
 40
0.0137778
 41
0.0137778
  0
VERTEX
  8
0
 10
6.01731
 20
19.6406
 30
0.0
 40
0.0137778
 41
0.0137778
  0
VERTEX
  8
0
 10
6.19011
 20
19.8582
 30
0.0
 40
0.0137778
 41
0.0137778
  0
VERTEX
  8
0
 10
6.36117
 20
20.0685
 30
0.0
 40
0.0137778
 41
0.0137778
  0
VERTEX
  8
0
 10
6.52919
 20
20.2693
 30
0.0
 40
0.0137778
 41
0.0137778
  0
VERTEX
  8
0
 10
6.65169
 20
20.4115
 30
0.0
 40
0.0137778
 41
0.0137778
  0
VERTEX
  8
0
 10
6.69314
 20
20.4583
 30
0.0
 40
0.0137778
 41
0.0137778
  0
VERTEX
  8
0
 10
6.74968
 20
20.5224
 30
0.0
 40
0.0137778
 41
0.0137778
  0
VERTEX
  8
0
 10
6.93018
 20
20.7046
 30
0.0
 40
0.0137778
 41
0.0137778
  0
VERTEX
  8
0
 10
7.15256
 20
20.8937
 30
0.0
 40
0.0137778
 41
0.0137778
  0
VERTEX
  8
0
 10
7.36083
 20
21.0313
 30
0.0
 40
0.0137778
 41
0.0137778
  0
VERTEX
  8
0
 10
7.5555
 20
21.1222
 30
0.0
 40
0.0137778
 41
0.0137778
  0
VERTEX
  8
0
 10
7.73703
 20
21.1719
 30
0.0
 40
0.0137778
 41
0.0137778
  0
VERTEX
  8
0
 10
7.90603
 20
21.1857
 30
0.0
 40
0.0137778
 41
0.0137778
  0
VERTEX
  8
0
 10
8.06293
 20
21.1686
 30
0.0
 40
0.0137778
 41
0.0137778
  0
VERTEX
  8
0
 10
8.17307
 20
21.1396
 30
0.0
 40
0.0137778
 41
0.0137778
  0
VERTEX
  8
0
 10
8.20833
 20
21.126
 30
0.0
 40
0.0137778
 41
0.0137778
  0
VERTEX
  8
0
 10
8.25722
 20
21.1074
 30
0.0
 40
0.0137778
 41
0.0137778
  0
VERTEX
  8
0
 10
8.40375
 20
21.0501
 30
0.0
 40
0.0137778
 41
0.0137778
  0
VERTEX
  8
0
 10
8.5899
 20
20.9724
 30
0.0
 40
0.0137778
 41
0.0137778
  0
VERTEX
  8
0
 10
8.76764
 20
20.8867
 30
0.0
 40
0.0137778
 41
0.0137778
  0
VERTEX
  8
0
 10
8.93761
 20
20.7875
 30
0.0
 40
0.0137778
 41
0.0137778
  0
VERTEX
  8
0
 10
9.10064
 20
20.6689
 30
0.0
 40
0.0137778
 41
0.0137778
  0
VERTEX
  8
0
 10
9.25749
 20
20.5251
 30
0.0
 40
0.0137778
 41
0.0137778
  0
VERTEX
  8
0
 10
9.40886
 20
20.3504
 30
0.0
 40
0.0137778
 41
0.0137778
  0
VERTEX
  8
0
 10
9.52154
 20
20.1935
 30
0.0
 40
0.0137778
 41
0.0137778
  0
VERTEX
  8
0
 10
9.55556
 20
20.1389
 30
0.0
 40
0.0137778
 41
0.0137778
  0
VERTEX
  8
0
 10
9.59412
 20
20.0769
 30
0.0
 40
0.0137778
 41
0.0137778
  0
VERTEX
  8
0
 10
9.70703
 20
19.8894
 30
0.0
 40
0.0137778
 41
0.0137778
  0
VERTEX
  8
0
 10
9.85476
 20
19.634
 30
0.0
 40
0.0137778
 41
0.0137778
  0
VERTEX
  8
0
 10
9.99789
 20
19.3754
 30
0.0
 40
0.0137778
 41
0.0137778
  0
VERTEX
  8
0
 10
10.1356
 20
19.1163
 30
0.0
 40
0.0137778
 41
0.0137778
  0
VERTEX
  8
0
 10
10.267
 20
18.8594
 30
0.0
 40
0.0137778
 41
0.0137778
  0
VERTEX
  8
0
 10
10.3915
 20
18.6074
 30
0.0
 40
0.0137778
 41
0.0137778
  0
VERTEX
  8
0
 10
10.508
 20
18.3631
 30
0.0
 40
0.0137778
 41
0.0137778
  0
VERTEX
  8
0
 10
10.6159
 20
18.1292
 30
0.0
 40
0.0137778
 41
0.0137778
  0
VERTEX
  8
0
 10
10.7143
 20
17.9083
 30
0.0
 40
0.0137778
 41
0.0137778
  0
VERTEX
  8
0
 10
10.8025
 20
17.7033
 30
0.0
 40
0.0137778
 41
0.0137778
  0
VERTEX
  8
0
 10
10.8794
 20
17.5169
 30
0.0
 40
0.0137778
 41
0.0137778
  0
VERTEX
  8
0
 10
10.9446
 20
17.3518
 30
0.0
 40
0.0137778
 41
0.0137778
  0
VERTEX
  8
0
 10
10.9969
 20
17.2107
 30
0.0
 40
0.0137778
 41
0.0137778
  0
VERTEX
  8
0
 10
11.0357
 20
17.0963
 30
0.0
 40
0.0137778
 41
0.0137778
  0
VERTEX
  8
0
 10
11.0601
 20
17.0113
 30
0.0
 40
0.0137778
 41
0.0137778
  0
VERTEX
  8
0
 10
11.0689
 20
16.9717
 30
0.0
 40
0.0137778
 41
0.0137778
  0
VERTEX
  8
0
 10
11.0694
 20
16.9583
 30
0.0
 40
0.0137778
 41
0.0137778
  0
VERTEX
  8
0
 10
11.1373
 20
16.9818
 30
0.0
 40
0.0137778
 41
0.0137778
  0
VERTEX
  8
0
 10
11.3383
 20
17.06
 30
0.0
 40
0.0137778
 41
0.0137778
  0
VERTEX
  8
0
 10
11.5952
 20
17.1747
 30
0.0
 40
0.0137778
 41
0.0137778
  0
VERTEX
  8
0
 10
11.8398
 20
17.3021
 30
0.0
 40
0.0137778
 41
0.0137778
  0
VERTEX
  8
0
 10
12.0719
 20
17.4419
 30
0.0
 40
0.0137778
 41
0.0137778
  0
VERTEX
  8
0
 10
12.2911
 20
17.5936
 30
0.0
 40
0.0137778
 41
0.0137778
  0
VERTEX
  8
0
 10
12.4971
 20
17.7569
 30
0.0
 40
0.0137778
 41
0.0137778
  0
VERTEX
  8
0
 10
12.6896
 20
17.9314
 30
0.0
 40
0.0137778
 41
0.0137778
  0
VERTEX
  8
0
 10
12.8683
 20
18.1168
 30
0.0
 40
0.0137778
 41
0.0137778
  0
VERTEX
  8
0
 10
13.0328
 20
18.3129
 30
0.0
 40
0.0137778
 41
0.0137778
  0
VERTEX
  8
0
 10
13.1828
 20
18.5192
 30
0.0
 40
0.0137778
 41
0.0137778
  0
VERTEX
  8
0
 10
13.3181
 20
18.7351
 30
0.0
 40
0.0137778
 41
0.0137778
  0
VERTEX
  8
0
 10
13.4383
 20
18.9607
 30
0.0
 40
0.0137778
 41
0.0137778
  0
VERTEX
  8
0
 10
13.5431
 20
19.1953
 30
0.0
 40
0.0137778
 41
0.0137778
  0
VERTEX
  8
0
 10
13.6323
 20
19.4387
 30
0.0
 40
0.0137778
 41
0.0137778
  0
VERTEX
  8
0
 10
13.7053
 20
19.6907
 30
0.0
 40
0.0137778
 41
0.0137778
  0
VERTEX
  8
0
 10
13.7622
 20
19.9506
 30
0.0
 40
0.0137778
 41
0.0137778
  0
VERTEX
  8
0
 10
13.8023
 20
20.2182
 30
0.0
 40
0.0137778
 41
0.0137778
  0
VERTEX
  8
0
 10
13.8254
 20
20.4932
 30
0.0
 40
0.0137778
 41
0.0137778
  0
VERTEX
  8
0
 10
13.8313
 20
20.7751
 30
0.0
 40
0.0137778
 41
0.0137778
  0
VERTEX
  8
0
 10
13.8197
 20
21.0637
 30
0.0
 40
0.0137778
 41
0.0137778
  0
VERTEX
  8
0
 10
13.7901
 20
21.3587
 30
0.0
 40
0.0137778
 41
0.0137778
  0
VERTEX
  8
0
 10
13.7423
 20
21.6596
 30
0.0
 40
0.0137778
 41
0.0137778
  0
VERTEX
  8
0
 10
13.6761
 20
21.966
 30
0.0
 40
0.0137778
 41
0.0137778
  0
VERTEX
  8
0
 10
13.5909
 20
22.2776
 30
0.0
 40
0.0137778
 41
0.0137778
  0
VERTEX
  8
0
 10
13.4867
 20
22.5943
 30
0.0
 40
0.0137778
 41
0.0137778
  0
VERTEX
  8
0
 10
13.3629
 20
22.9153
 30
0.0
 40
0.0137778
 41
0.0137778
  0
VERTEX
  8
0
 10
13.2194
 20
23.2406
 30
0.0
 40
0.0137778
 41
0.0137778
  0
VERTEX
  8
0
 10
13.0558
 20
23.5696
 30
0.0
 40
0.0137778
 41
0.0137778
  0
VERTEX
  8
0
 10
12.8718
 20
23.9021
 30
0.0
 40
0.0137778
 41
0.0137778
  0
VERTEX
  8
0
 10
12.6672
 20
24.2376
 30
0.0
 40
0.0137778
 41
0.0137778
  0
VERTEX
  8
0
 10
12.4415
 20
24.576
 30
0.0
 40
0.0137778
 41
0.0137778
  0
VERTEX
  8
0
 10
12.2578
 20
24.8328
 30
0.0
 40
0.0137778
 41
0.0137778
  0
VERTEX
  8
0
 10
12.1944
 20
24.9167
 30
0.0
 40
0.0137778
 41
0.0137778
  0
VERTEX
  8
0
 10
12.1556
 20
24.9682
 30
0.0
 40
0.0137778
 41
0.0137778
  0
VERTEX
  8
0
 10
12.032
 20
25.1174
 30
0.0
 40
0.0137778
 41
0.0137778
  0
VERTEX
  8
0
 10
11.8349
 20
25.3311
 30
0.0
 40
0.0137778
 41
0.0137778
  0
VERTEX
  8
0
 10
11.6038
 20
25.5525
 30
0.0
 40
0.0137778
 41
0.0137778
  0
VERTEX
  8
0
 10
11.3391
 20
25.776
 30
0.0
 40
0.0137778
 41
0.0137778
  0
VERTEX
  8
0
 10
11.0414
 20
25.9961
 30
0.0
 40
0.0137778
 41
0.0137778
  0
VERTEX
  8
0
 10
10.7114
 20
26.2074
 30
0.0
 40
0.0137778
 41
0.0137778
  0
VERTEX
  8
0
 10
10.3495
 20
26.404
 30
0.0
 40
0.0137778
 41
0.0137778
  0
VERTEX
  8
0
 10
9.95628
 20
26.5808
 30
0.0
 40
0.0137778
 41
0.0137778
  0
VERTEX
  8
0
 10
9.53228
 20
26.7321
 30
0.0
 40
0.0137778
 41
0.0137778
  0
VERTEX
  8
0
 10
9.07813
 20
26.8522
 30
0.0
 40
0.0137778
 41
0.0137778
  0
VERTEX
  8
0
 10
8.59429
 20
26.9358
 30
0.0
 40
0.0137778
 41
0.0137778
  0
VERTEX
  8
0
 10
8.08138
 20
26.9772
 30
0.0
 40
0.0137778
 41
0.0137778
  0
VERTEX
  8
0
 10
7.53993
 20
26.971
 30
0.0
 40
0.0137778
 41
0.0137778
  0
VERTEX
  8
0
 10
6.97054
 20
26.9117
 30
0.0
 40
0.0137778
 41
0.0137778
  0
VERTEX
  8
0
 10
6.37369
 20
26.7935
 30
0.0
 40
0.0137778
 41
0.0137778
  0
VERTEX
  8
0
 10
5.90365
 20
26.6633
 30
0.0
 40
0.0137778
 41
0.0137778
  0
VERTEX
  8
0
 10
5.75
 20
26.6111
 30
0.0
 40
0.0137778
 41
0.0137778
  0
VERTEX
  8
0
 10
5.62571
 20
26.5689
 30
0.0
 40
0.0137778
 41
0.0137778
  0
VERTEX
  8
0
 10
5.25851
 20
26.426
 30
0.0
 40
0.0137778
 41
0.0137778
  0
VERTEX
  8
0
 10
4.80354
 20
26.2181
 30
0.0
 40
0.0137778
 41
0.0137778
  0
VERTEX
  8
0
 10
4.38417
 20
25.9889
 30
0.0
 40
0.0137778
 41
0.0137778
  0
VERTEX
  8
0
 10
3.99968
 20
25.7401
 30
0.0
 40
0.0137778
 41
0.0137778
  0
VERTEX
  8
0
 10
3.64931
 20
25.4732
 30
0.0
 40
0.0137778
 41
0.0137778
  0
VERTEX
  8
0
 10
3.33219
 20
25.1899
 30
0.0
 40
0.0137778
 41
0.0137778
  0
VERTEX
  8
0
 10
3.04764
 20
24.8917
 30
0.0
 40
0.0137778
 41
0.0137778
  0
VERTEX
  8
0
 10
2.79482
 20
24.5801
 30
0.0
 40
0.0137778
 41
0.0137778
  0
VERTEX
  8
0
 10
2.57292
 20
24.2569
 30
0.0
 40
0.0137778
 41
0.0137778
  0
VERTEX
  8
0
 10
2.38129
 20
23.9236
 30
0.0
 40
0.0137778
 41
0.0137778
  0
VERTEX
  8
0
 10
2.21903
 20
23.5818
 30
0.0
 40
0.0137778
 41
0.0137778
  0
VERTEX
  8
0
 10
2.08535
 20
23.2329
 30
0.0
 40
0.0137778
 41
0.0137778
  0
VERTEX
  8
0
 10
1.97954
 20
22.8789
 30
0.0
 40
0.0137778
 41
0.0137778
  0
VERTEX
  8
0
 10
1.90082
 20
22.521
 30
0.0
 40
0.0137778
 41
0.0137778
  0
VERTEX
  8
0
 10
1.84842
 20
22.161
 30
0.0
 40
0.0137778
 41
0.0137778
  0
VERTEX
  8
0
 10
1.82146
 20
21.8004
 30
0.0
 40
0.0137778
 41
0.0137778
  0
VERTEX
  8
0
 10
1.81922
 20
21.4408
 30
0.0
 40
0.0137778
 41
0.0137778
  0
VERTEX
  8
0
 10
1.84099
 20
21.0839
 30
0.0
 40
0.0137778
 41
0.0137778
  0
VERTEX
  8
0
 10
1.88585
 20
20.7311
 30
0.0
 40
0.0137778
 41
0.0137778
  0
VERTEX
  8
0
 10
1.95313
 20
20.384
 30
0.0
 40
0.0137778
 41
0.0137778
  0
VERTEX
  8
0
 10
2.04199
 20
20.0444
 30
0.0
 40
0.0137778
 41
0.0137778
  0
VERTEX
  8
0
 10
2.15169
 20
19.7138
 30
0.0
 40
0.0137778
 41
0.0137778
  0
VERTEX
  8
0
 10
2.28142
 20
19.3937
 30
0.0
 40
0.0137778
 41
0.0137778
  0
VERTEX
  8
0
 10
2.43044
 20
19.0857
 30
0.0
 40
0.0137778
 41
0.0137778
  0
VERTEX
  8
0
 10
2.59793
 20
18.7915
 30
0.0
 40
0.0137778
 41
0.0137778
  0
VERTEX
  8
0
 10
2.7831
 20
18.5126
 30
0.0
 40
0.0137778
 41
0.0137778
  0
VERTEX
  8
0
 10
2.98519
 20
18.2507
 30
0.0
 40
0.0137778
 41
0.0137778
  0
VERTEX
  8
0
 10
3.20344
 20
18.0072
 30
0.0
 40
0.0137778
 41
0.0137778
  0
VERTEX
  8
0
 10
3.43701
 20
17.7838
 30
0.0
 40
0.0137778
 41
0.0137778
  0
VERTEX
  8
0
 10
3.68522
 20
17.5821
 30
0.0
 40
0.0137778
 41
0.0137778
  0
VERTEX
  8
0
 10
3.94721
 20
17.4036
 30
0.0
 40
0.0137778
 41
0.0137778
  0
VERTEX
  8
0
 10
4.15186
 20
17.2853
 30
0.0
 40
0.0137778
 41
0.0137778
  0
VERTEX
  8
0
 10
4.22222
 20
17.25
 30
0.0
 40
0.0137778
 41
0.0137778
  0
SEQEND
 8
0
  0
POLYLINE
  8
0
 62
     250
 66
     1
 10
0
 20
0
 30
0.0
 70
     1
 40
0.992
 41
0.992
  0
VERTEX
  8
0
 10
11.3174
 20
17.4797
 30
0.0
 40
0.0137778
 41
0.0137778
  0
VERTEX
  8
0
 10
11.2973
 20
17.5331
 30
0.0
 40
0.0137778
 41
0.0137778
  0
VERTEX
  8
0
 10
11.2341
 20
17.6917
 30
0.0
 40
0.0137778
 41
0.0137778
  0
VERTEX
  8
0
 10
11.1445
 20
17.9061
 30
0.0
 40
0.0137778
 41
0.0137778
  0
VERTEX
  8
0
 10
11.0557
 20
18.1104
 30
0.0
 40
0.0137778
 41
0.0137778
  0
VERTEX
  8
0
 10
10.995
 20
18.2465
 30
0.0
 40
0.0137778
 41
0.0137778
  0
VERTEX
  8
0
 10
10.9745
 20
18.2917
 30
0.0
 40
0.0137778
 41
0.0137778
  0
VERTEX
  8
0
 10
10.954
 20
18.3369
 30
0.0
 40
0.0137778
 41
0.0137778
  0
VERTEX
  8
0
 10
10.8916
 20
18.4719
 30
0.0
 40
0.0137778
 41
0.0137778
  0
VERTEX
  8
0
 10
10.7909
 20
18.6853
 30
0.0
 40
0.0137778
 41
0.0137778
  0
VERTEX
  8
0
 10
10.6737
 20
18.9258
 30
0.0
 40
0.0137778
 41
0.0137778
  0
VERTEX
  8
0
 10
10.5414
 20
19.1882
 30
0.0
 40
0.0137778
 41
0.0137778
  0
VERTEX
  8
0
 10
10.3955
 20
19.4671
 30
0.0
 40
0.0137778
 41
0.0137778
  0
VERTEX
  8
0
 10
10.2373
 20
19.7569
 30
0.0
 40
0.0137778
 41
0.0137778
  0
VERTEX
  8
0
 10
10.0682
 20
20.0521
 30
0.0
 40
0.0137778
 41
0.0137778
  0
VERTEX
  8
0
 10
9.93522
 20
20.274
 30
0.0
 40
0.0137778
 41
0.0137778
  0
VERTEX
  8
0
 10
9.88965
 20
20.3472
 30
0.0
 40
0.0137778
 41
0.0137778
  0
VERTEX
  8
0
 10
9.84939
 20
20.4118
 30
0.0
 40
0.0137778
 41
0.0137778
  0
VERTEX
  8
0
 10
9.7156
 20
20.5974
 30
0.0
 40
0.0137778
 41
0.0137778
  0
VERTEX
  8
0
 10
9.53532
 20
20.8043
 30
0.0
 40
0.0137778
 41
0.0137778
  0
VERTEX
  8
0
 10
9.34928
 20
20.9744
 30
0.0
 40
0.0137778
 41
0.0137778
  0
VERTEX
  8
0
 10
9.15804
 20
21.114
 30
0.0
 40
0.0137778
 41
0.0137778
  0
VERTEX
  8
0
 10
8.96192
 20
21.2293
 30
0.0
 40
0.0137778
 41
0.0137778
  0
VERTEX
  8
0
 10
8.7615
 20
21.3268
 30
0.0
 40
0.0137778
 41
0.0137778
  0
VERTEX
  8
0
 10
8.55724
 20
21.4128
 30
0.0
 40
0.0137778
 41
0.0137778
  0
VERTEX
  8
0
 10
8.40158
 20
21.4736
 30
0.0
 40
0.0137778
 41
0.0137778
  0
VERTEX
  8
0
 10
8.34961
 20
21.4935
 30
0.0
 40
0.0137778
 41
0.0137778
  0
VERTEX
  8
0
 10
8.31239
 20
21.5078
 30
0.0
 40
0.0137778
 41
0.0137778
  0
VERTEX
  8
0
 10
8.12326
 20
21.5579
 30
0.0
 40
0.0137778
 41
0.0137778
  0
VERTEX
  8
0
 10
7.95031
 20
21.5794
 30
0.0
 40
0.0137778
 41
0.0137778
  0
VERTEX
  8
0
 10
7.89268
 20
21.5794
 30
0.0
 40
0.0137778
 41
0.0137778
  0
VERTEX
  8
0
 10
7.8464
 20
21.5794
 30
0.0
 40
0.0137778
 41
0.0137778
  0
VERTEX
  8
0
 10
7.70774
 20
21.5663
 30
0.0
 40
0.0137778
 41
0.0137778
  0
VERTEX
  8
0
 10
7.52294
 20
21.5265
 30
0.0
 40
0.0137778
 41
0.0137778
  0
VERTEX
  8
0
 10
7.33794
 20
21.46
 30
0.0
 40
0.0137778
 41
0.0137778
  0
VERTEX
  8
0
 10
7.1524
 20
21.3664
 30
0.0
 40
0.0137778
 41
0.0137778
  0
VERTEX
  8
0
 10
6.96599
 20
21.2458
 30
0.0
 40
0.0137778
 41
0.0137778
  0
VERTEX
  8
0
 10
6.77838
 20
21.0979
 30
0.0
 40
0.0137778
 41
0.0137778
  0
VERTEX
  8
0
 10
6.58925
 20
20.9224
 30
0.0
 40
0.0137778
 41
0.0137778
  0
VERTEX
  8
0
 10
6.44439
 20
20.7714
 30
0.0
 40
0.0137778
 41
0.0137778
  0
VERTEX
  8
0
 10
6.39828
 20
20.7192
 30
0.0
 40
0.0137778
 41
0.0137778
  0
VERTEX
  8
0
 10
6.33979
 20
20.6531
 30
0.0
 40
0.0137778
 41
0.0137778
  0
VERTEX
  8
0
 10
6.16786
 20
20.4517
 30
0.0
 40
0.0137778
 41
0.0137778
  0
VERTEX
  8
0
 10
5.93143
 20
20.1647
 30
0.0
 40
0.0137778
 41
0.0137778
  0
VERTEX
  8
0
 10
5.69157
 20
19.8633
 30
0.0
 40
0.0137778
 41
0.0137778
  0
VERTEX
  8
0
 10
5.45107
 20
19.5531
 30
0.0
 40
0.0137778
 41
0.0137778
  0
VERTEX
  8
0
 10
5.21262
 20
19.2392
 30
0.0
 40
0.0137778
 41
0.0137778
  0
VERTEX
  8
0
 10
4.97885
 20
18.9268
 30
0.0
 40
0.0137778
 41
0.0137778
  0
VERTEX
  8
0
 10
4.75256
 20
18.6214
 30
0.0
 40
0.0137778
 41
0.0137778
  0
VERTEX
  8
0
 10
4.59039
 20
18.4014
 30
0.0
 40
0.0137778
 41
0.0137778
  0
VERTEX
  8
0
 10
4.5364
 20
18.3281
 30
0.0
 40
0.0137778
 41
0.0137778
  0
VERTEX
  8
0
 10
4.49778
 20
18.2757
 30
0.0
 40
0.0137778
 41
0.0137778
  0
VERTEX
  8
0
 10
4.31521
 20
18.0281
 30
0.0
 40
0.0137778
 41
0.0137778
  0
VERTEX
  8
0
 10
4.14822
 20
17.8031
 30
0.0
 40
0.0137778
 41
0.0137778
  0
VERTEX
  8
0
 10
4.1174
 20
17.7619
 30
0.0
 40
0.0137778
 41
0.0137778
  0
VERTEX
  8
0
 10
4.06538
 20
17.7953
 30
0.0
 40
0.0137778
 41
0.0137778
  0
VERTEX
  8
0
 10
3.91444
 20
17.9031
 30
0.0
 40
0.0137778
 41
0.0137778
  0
VERTEX
  8
0
 10
3.71903
 20
18.0613
 30
0.0
 40
0.0137778
 41
0.0137778
  0
VERTEX
  8
0
 10
3.53196
 20
18.236
 30
0.0
 40
0.0137778
 41
0.0137778
  0
VERTEX
  8
0
 10
3.354
 20
18.4261
 30
0.0
 40
0.0137778
 41
0.0137778
  0
VERTEX
  8
0
 10
3.18599
 20
18.6311
 30
0.0
 40
0.0137778
 41
0.0137778
  0
VERTEX
  8
0
 10
3.02869
 20
18.85
 30
0.0
 40
0.0137778
 41
0.0137778
  0
VERTEX
  8
0
 10
2.88292
 20
19.0818
 30
0.0
 40
0.0137778
 41
0.0137778
  0
VERTEX
  8
0
 10
2.78093
 20
19.2639
 30
0.0
 40
0.0137778
 41
0.0137778
  0
VERTEX
  8
0
 10
2.74946
 20
19.3258
 30
0.0
 40
0.0137778
 41
0.0137778
  0
VERTEX
  8
0
 10
2.71181
 20
19.4
 30
0.0
 40
0.0137778
 41
0.0137778
  0
VERTEX
  8
0
 10
2.60932
 20
19.6272
 30
0.0
 40
0.0137778
 41
0.0137778
  0
VERTEX
  8
0
 10
2.48964
 20
19.9392
 30
0.0
 40
0.0137778
 41
0.0137778
  0
VERTEX
  8
0
 10
2.39074
 20
20.2596
 30
0.0
 40
0.0137778
 41
0.0137778
  0
VERTEX
  8
0
 10
2.31304
 20
20.5867
 30
0.0
 40
0.0137778
 41
0.0137778
  0
VERTEX
  8
0
 10
2.25689
 20
20.9182
 30
0.0
 40
0.0137778
 41
0.0137778
  0
VERTEX
  8
0
 10
2.22282
 20
21.2525
 30
0.0
 40
0.0137778
 41
0.0137778
  0
VERTEX
  8
0
 10
2.2111
 20
21.5874
 30
0.0
 40
0.0137778
 41
0.0137778
  0
VERTEX
  8
0
 10
2.21653
 20
21.8375
 30
0.0
 40
0.0137778
 41
0.0137778
  0
VERTEX
  8
0
 10
2.22222
 20
21.9207
 30
0.0
 40
0.0137778
 41
0.0137778
  0
VERTEX
  8
0
 10
2.22803
 20
22.006
 30
0.0
 40
0.0137778
 41
0.0137778
  0
VERTEX
  8
0
 10
2.25776
 20
22.2611
 30
0.0
 40
0.0137778
 41
0.0137778
  0
VERTEX
  8
0
 10
2.31728
 20
22.5951
 30
0.0
 40
0.0137778
 41
0.0137778
  0
VERTEX
  8
0
 10
2.40039
 20
22.9217
 30
0.0
 40
0.0137778
 41
0.0137778
  0
VERTEX
  8
0
 10
2.50667
 20
23.2396
 30
0.0
 40
0.0137778
 41
0.0137778
  0
VERTEX
  8
0
 10
2.63574
 20
23.5479
 30
0.0
 40
0.0137778
 41
0.0137778
  0
VERTEX
  8
0
 10
2.78717
 20
23.8454
 30
0.0
 40
0.0137778
 41
0.0137778
  0
VERTEX
  8
0
 10
2.9605
 20
24.1311
 30
0.0
 40
0.0137778
 41
0.0137778
  0
VERTEX
  8
0
 10
3.10422
 20
24.3376
 30
0.0
 40
0.0137778
 41
0.0137778
  0
VERTEX
  8
0
 10
3.15543
 20
24.4039
 30
0.0
 40
0.0137778
 41
0.0137778
  0
VERTEX
  8
0
 10
3.21479
 20
24.4808
 30
0.0
 40
0.0137778
 41
0.0137778
  0
VERTEX
  8
0
 10
3.40588
 20
24.7015
 30
0.0
 40
0.0137778
 41
0.0137778
  0
VERTEX
  8
0
 10
3.68257
 20
24.98
 30
0.0
 40
0.0137778
 41
0.0137778
  0
VERTEX
  8
0
 10
3.98514
 20
25.2392
 30
0.0
 40
0.0137778
 41
0.0137778
  0
VERTEX
  8
0
 10
4.31337
 20
25.4789
 30
0.0
 40
0.0137778
 41
0.0137778
  0
VERTEX
  8
0
 10
4.66694
 20
25.6988
 30
0.0
 40
0.0137778
 41
0.0137778
  0
VERTEX
  8
0
 10
5.04551
 20
25.8987
 30
0.0
 40
0.0137778
 41
0.0137778
  0
VERTEX
  8
0
 10
5.44883
 20
26.0788
 30
0.0
 40
0.0137778
 41
0.0137778
  0
VERTEX
  8
0
 10
5.76856
 20
26.2017
 30
0.0
 40
0.0137778
 41
0.0137778
  0
VERTEX
  8
0
 10
5.87663
 20
26.2383
 30
0.0
 40
0.0137778
 41
0.0137778
  0
VERTEX
  8
0
 10
6.00233
 20
26.281
 30
0.0
 40
0.0137778
 41
0.0137778
  0
VERTEX
  8
0
 10
6.38585
 20
26.3904
 30
0.0
 40
0.0137778
 41
0.0137778
  0
VERTEX
  8
0
 10
6.89046
 20
26.4994
 30
0.0
 40
0.0137778
 41
0.0137778
  0
VERTEX
  8
0
 10
7.38861
 20
26.5651
 30
0.0
 40
0.0137778
 41
0.0137778
  0
VERTEX
  8
0
 10
7.75612
 20
26.5871
 30
0.0
 40
0.0137778
 41
0.0137778
  0
VERTEX
  8
0
 10
7.87869
 20
26.5871
 30
0.0
 40
0.0137778
 41
0.0137778
  0
VERTEX
  8
0
 10
7.96392
 20
26.5871
 30
0.0
 40
0.0137778
 41
0.0137778
  0
VERTEX
  8
0
 10
8.21978
 20
26.5763
 30
0.0
 40
0.0137778
 41
0.0137778
  0
VERTEX
  8
0
 10
8.55583
 20
26.5442
 30
0.0
 40
0.0137778
 41
0.0137778
  0
VERTEX
  8
0
 10
8.8865
 20
26.4906
 30
0.0
 40
0.0137778
 41
0.0137778
  0
VERTEX
  8
0
 10
9.21143
 20
26.4157
 30
0.0
 40
0.0137778
 41
0.0137778
  0
VERTEX
  8
0
 10
9.53043
 20
26.3196
 30
0.0
 40
0.0137778
 41
0.0137778
  0
VERTEX
  8
0
 10
9.84326
 20
26.2022
 30
0.0
 40
0.0137778
 41
0.0137778
  0
VERTEX
  8
0
 10
10.1495
 20
26.064
 30
0.0
 40
0.0137778
 41
0.0137778
  0
VERTEX
  8
0
 10
10.3754
 20
25.9468
 30
0.0
 40
0.0137778
 41
0.0137778
  0
VERTEX
  8
0
 10
10.449
 20
25.9046
 30
0.0
 40
0.0137778
 41
0.0137778
  0
VERTEX
  8
0
 10
10.5219
 20
25.8628
 30
0.0
 40
0.0137778
 41
0.0137778
  0
VERTEX
  8
0
 10
10.7355
 20
25.7278
 30
0.0
 40
0.0137778
 41
0.0137778
  0
VERTEX
  8
0
 10
10.9903
 20
25.5479
 30
0.0
 40
0.0137778
 41
0.0137778
  0
VERTEX
  8
0
 10
11.2138
 20
25.37
 30
0.0
 40
0.0137778
 41
0.0137778
  0
VERTEX
  8
0
 10
11.4066
 20
25.1988
 30
0.0
 40
0.0137778
 41
0.0137778
  0
VERTEX
  8
0
 10
11.5691
 20
25.0392
 30
0.0
 40
0.0137778
 41
0.0137778
  0
VERTEX
  8
0
 10
11.7019
 20
24.8963
 30
0.0
 40
0.0137778
 41
0.0137778
  0
VERTEX
  8
0
 10
11.8053
 20
24.7747
 30
0.0
 40
0.0137778
 41
0.0137778
  0
VERTEX
  8
0
 10
11.8619
 20
24.7038
 30
0.0
 40
0.0137778
 41
0.0137778
  0
VERTEX
  8
0
 10
11.8802
 20
24.6796
 30
0.0
 40
0.0137778
 41
0.0137778
  0
VERTEX
  8
0
 10
12.0077
 20
24.5104
 30
0.0
 40
0.0137778
 41
0.0137778
  0
VERTEX
  8
0
 10
12.3631
 20
23.9824
 30
0.0
 40
0.0137778
 41
0.0137778
  0
VERTEX
  8
0
 10
12.7587
 20
23.2879
 30
0.0
 40
0.0137778
 41
0.0137778
  0
VERTEX
  8
0
 10
13.0656
 20
22.5985
 30
0.0
 40
0.0137778
 41
0.0137778
  0
VERTEX
  8
0
 10
13.2387
 20
22.0897
 30
0.0
 40
0.0137778
 41
0.0137778
  0
VERTEX
  8
0
 10
13.2826
 20
21.9167
 30
0.0
 40
0.0137778
 41
0.0137778
  0
VERTEX
  8
0
 10
13.3205
 20
21.7668
 30
0.0
 40
0.0137778
 41
0.0137778
  0
VERTEX
  8
0
 10
13.4
 20
21.3086
 30
0.0
 40
0.0137778
 41
0.0137778
  0
VERTEX
  8
0
 10
13.4387
 20
20.7235
 30
0.0
 40
0.0137778
 41
0.0137778
  0
VERTEX
  8
0
 10
13.3985
 20
20.1632
 30
0.0
 40
0.0137778
 41
0.0137778
  0
VERTEX
  8
0
 10
13.3194
 20
19.76
 30
0.0
 40
0.0137778
 41
0.0137778
  0
VERTEX
  8
0
 10
13.2797
 20
19.6297
 30
0.0
 40
0.0137778
 41
0.0137778
  0
VERTEX
  8
0
 10
13.2527
 20
19.541
 30
0.0
 40
0.0137778
 41
0.0137778
  0
VERTEX
  8
0
 10
13.152
 20
19.281
 30
0.0
 40
0.0137778
 41
0.0137778
  0
VERTEX
  8
0
 10
12.9882
 20
18.9526
 30
0.0
 40
0.0137778
 41
0.0137778
  0
VERTEX
  8
0
 10
12.7895
 20
18.6458
 30
0.0
 40
0.0137778
 41
0.0137778
  0
VERTEX
  8
0
 10
12.5572
 20
18.3619
 30
0.0
 40
0.0137778
 41
0.0137778
  0
VERTEX
  8
0
 10
12.2926
 20
18.1022
 30
0.0
 40
0.0137778
 41
0.0137778
  0
VERTEX
  8
0
 10
11.9969
 20
17.8678
 30
0.0
 40
0.0137778
 41
0.0137778
  0
VERTEX
  8
0
 10
11.6714
 20
17.6599
 30
0.0
 40
0.0137778
 41
0.0137778
  0
VERTEX
  8
0
 10
11.4078
 20
17.5206
 30
0.0
 40
0.0137778
 41
0.0137778
  0
VERTEX
  8
0
 10
11.3174
 20
17.4797
 30
0.0
 40
0.0137778
 41
0.0137778
  0
SEQEND
 8
0
  0
POLYLINE
  8
0
 62
     250
 66
     1
 10
0
 20
0
 30
0.0
 40
0.992
 41
0.992
  0
VERTEX
  8
0
 10
11.3969
 20
17.1918
 30
0.0
 40
0.0137778
 41
0.0137778
  0
VERTEX
  8
0
 10
11.4752
 20
17.0113
 30
0.0
 40
0.0137778
 41
0.0137778
  0
SEQEND
 8
0
  0
POLYLINE
  8
0
 62
     250
 66
     1
 10
0
 20
0
 30
0.0
 40
0.992
 41
0.992
  0
VERTEX
  8
0
 10
11.0618
 20
17.371
 30
0.0
 40
0.0137778
 41
0.0137778
  0
VERTEX
  8
0
 10
10.8772
 20
17.3028
 30
0.0
 40
0.0137778
 41
0.0137778
  0
SEQEND
 8
0
  0
POLYLINE
  8
0
 62
     250
 66
     1
 10
0
 20
0
 30
0.0
 40
0.992
 41
0.992
  0
VERTEX
  8
0
 10
4.38351
 20
17.6218
 30
0.0
 40
0.0137778
 41
0.0137778
  0
VERTEX
  8
0
 10
4.54036
 20
17.5028
 30
0.0
 40
0.0137778
 41
0.0137778
  0
SEQEND
 8
0
  0
POLYLINE
  8
0
 62
     250
 66
     1
 10
0
 20
0
 30
0.0
 40
0.992
 41
0.992
  0
VERTEX
  8
0
 10
3.93403
 20
17.5285
 30
0.0
 40
0.0137778
 41
0.0137778
  0
VERTEX
  8
0
 10
3.82764
 20
17.3629
 30
0.0
 40
0.0137778
 41
0.0137778
  0
SEQEND
 8
0
  0
POLYLINE
  8
0
 62
     250
 66
     1
 10
0
 20
0
 30
0.0
 40
0.992
 41
0.992
  0
VERTEX
  8
0
 10
9.51389
 20
20.0139
 30
0.0
 40
0.0137778
 41
0.0137778
  0
VERTEX
  8
0
 10
9.70833
 20
20.1667
 30
0.0
 40
0.0137778
 41
0.0137778
  0
SEQEND
 8
0
  0
POLYLINE
  8
0
 62
     250
 66
     1
 10
0
 20
0
 30
0.0
 40
0.992
 41
0.992
  0
VERTEX
  8
0
 10
9.69879
 20
19.6585
 30
0.0
 40
0.0137778
 41
0.0137778
  0
VERTEX
  8
0
 10
9.93408
 20
19.8276
 30
0.0
 40
0.0137778
 41
0.0137778
  0
SEQEND
 8
0
  0
POLYLINE
  8
0
 62
     250
 66
     1
 10
0
 20
0
 30
0.0
 40
0.992
 41
0.992
  0
VERTEX
  8
0
 10
5.94444
 20
19.8611
 30
0.0
 40
0.0137778
 41
0.0137778
  0
VERTEX
  8
0
 10
6.18056
 20
19.6667
 30
0.0
 40
0.0137778
 41
0.0137778
  0
SEQEND
 8
0
  0
POLYLINE
  8
0
 62
     0
 66
     1
 10
0
 20
0
 30
0.0
 70
     1
 40
0
 41
0
  0
VERTEX
  8
0
 10
11.4361
 20
17.4443
 30
0.0
 40
0
 41
0
  0
VERTEX
  8
0
 10
11.4361
 20
17.4315
 30
0.0
 40
0
 41
0
  0
VERTEX
  8
0
 10
11.4253
 20
17.3928
 30
0.0
 40
0
 41
0
  0
VERTEX
  8
0
 10
11.3959
 20
17.3507
 30
0.0
 40
0
 41
0
  0
VERTEX
  8
0
 10
11.3523
 20
17.3222
 30
0.0
 40
0
 41
0
  0
VERTEX
  8
0
 10
11.3122
 20
17.3118
 30
0.0
 40
0
 41
0
  0
VERTEX
  8
0
 10
11.2989
 20
17.3118
 30
0.0
 40
0
 41
0
  0
VERTEX
  8
0
 10
11.2855
 20
17.3118
 30
0.0
 40
0
 41
0
  0
VERTEX
  8
0
 10
11.2454
 20
17.3222
 30
0.0
 40
0
 41
0
  0
VERTEX
  8
0
 10
11.2018
 20
17.3507
 30
0.0
 40
0
 41
0
  0
VERTEX
  8
0
 10
11.1724
 20
17.3928
 30
0.0
 40
0
 41
0
  0
VERTEX
  8
0
 10
11.1617
 20
17.4315
 30
0.0
 40
0
 41
0
  0
VERTEX
  8
0
 10
11.1617
 20
17.4443
 30
0.0
 40
0
 41
0
  0
VERTEX
  8
0
 10
11.1617
 20
17.4572
 30
0.0
 40
0
 41
0
  0
VERTEX
  8
0
 10
11.1724
 20
17.496
 30
0.0
 40
0
 41
0
  0
VERTEX
  8
0
 10
11.2018
 20
17.5381
 30
0.0
 40
0
 41
0
  0
VERTEX
  8
0
 10
11.2454
 20
17.5664
 30
0.0
 40
0
 41
0
  0
VERTEX
  8
0
 10
11.2855
 20
17.5768
 30
0.0
 40
0
 41
0
  0
VERTEX
  8
0
 10
11.2989
 20
17.5768
 30
0.0
 40
0
 41
0
  0
VERTEX
  8
0
 10
11.3122
 20
17.5768
 30
0.0
 40
0
 41
0
  0
VERTEX
  8
0
 10
11.3523
 20
17.5664
 30
0.0
 40
0
 41
0
  0
VERTEX
  8
0
 10
11.3959
 20
17.5381
 30
0.0
 40
0
 41
0
  0
VERTEX
  8
0
 10
11.4253
 20
17.496
 30
0.0
 40
0
 41
0
  0
VERTEX
  8
0
 10
11.4361
 20
17.4572
 30
0.0
 40
0
 41
0
  0
VERTEX
  8
0
 10
11.4361
 20
17.4443
 30
0.0
 40
0
 41
0
  0
SEQEND
 8
0
  0
POLYLINE
  8
0
 62
     0
 66
     1
 10
0
 20
0
 30
0.0
 70
     1
 40
0
 41
0
  0
VERTEX
  8
0
 10
4.20844
 20
17.7501
 30
0.0
 40
0
 41
0
  0
VERTEX
  8
0
 10
4.20844
 20
17.7372
 30
0.0
 40
0
 41
0
  0
VERTEX
  8
0
 10
4.19764
 20
17.6986
 30
0.0
 40
0
 41
0
  0
VERTEX
  8
0
 10
4.16824
 20
17.6565
 30
0.0
 40
0
 41
0
  0
VERTEX
  8
0
 10
4.12462
 20
17.6281
 30
0.0
 40
0
 41
0
  0
VERTEX
  8
0
 10
4.08458
 20
17.6176
 30
0.0
 40
0
 41
0
  0
VERTEX
  8
0
 10
4.07124
 20
17.6176
 30
0.0
 40
0
 41
0
  0
VERTEX
  8
0
 10
4.05783
 20
17.6176
 30
0.0
 40
0
 41
0
  0
VERTEX
  8
0
 10
4.01779
 20
17.6281
 30
0.0
 40
0
 41
0
  0
VERTEX
  8
0
 10
3.97418
 20
17.6565
 30
0.0
 40
0
 41
0
  0
VERTEX
  8
0
 10
3.94476
 20
17.6986
 30
0.0
 40
0
 41
0
  0
VERTEX
  8
0
 10
3.93403
 20
17.7372
 30
0.0
 40
0
 41
0
  0
VERTEX
  8
0
 10
3.93403
 20
17.7501
 30
0.0
 40
0
 41
0
  0
VERTEX
  8
0
 10
3.93403
 20
17.7631
 30
0.0
 40
0
 41
0
  0
VERTEX
  8
0
 10
3.94476
 20
17.8017
 30
0.0
 40
0
 41
0
  0
VERTEX
  8
0
 10
3.97418
 20
17.8438
 30
0.0
 40
0
 41
0
  0
VERTEX
  8
0
 10
4.01779
 20
17.8722
 30
0.0
 40
0
 41
0
  0
VERTEX
  8
0
 10
4.05783
 20
17.8826
 30
0.0
 40
0
 41
0
  0
VERTEX
  8
0
 10
4.07124
 20
17.8826
 30
0.0
 40
0
 41
0
  0
VERTEX
  8
0
 10
4.08458
 20
17.8826
 30
0.0
 40
0
 41
0
  0
VERTEX
  8
0
 10
4.12462
 20
17.8722
 30
0.0
 40
0
 41
0
  0
VERTEX
  8
0
 10
4.16824
 20
17.8438
 30
0.0
 40
0
 41
0
  0
VERTEX
  8
0
 10
4.19764
 20
17.8017
 30
0.0
 40
0
 41
0
  0
VERTEX
  8
0
 10
4.20844
 20
17.7631
 30
0.0
 40
0
 41
0
  0
VERTEX
  8
0
 10
4.20844
 20
17.7501
 30
0.0
 40
0
 41
0
  0
SEQEND
 8
0
  0
POLYLINE
  8
0
 62
     250
 66
     1
 10
0
 20
0
 30
0.0
 70
     1
 40
0.992
 41
0.992
  0
VERTEX
  8
0
 10
17.1667
 20
4.48611
 30
0.0
 40
0.0137778
 41
0.0137778
  0
VERTEX
  8
0
 10
17.2207
 20
4.46843
 30
0.0
 40
0.0137778
 41
0.0137778
  0
VERTEX
  8
0
 10
17.379
 20
4.40349
 30
0.0
 40
0.0137778
 41
0.0137778
  0
VERTEX
  8
0
 10
17.5654
 20
4.3036
 30
0.0
 40
0.0137778
 41
0.0137778
  0
VERTEX
  8
0
 10
17.7276
 20
4.18685
 30
0.0
 40
0.0137778
 41
0.0137778
  0
VERTEX
  8
0
 10
17.8674
 20
4.05333
 30
0.0
 40
0.0137778
 41
0.0137778
  0
VERTEX
  8
0
 10
17.9858
 20
3.90349
 30
0.0
 40
0.0137778
 41
0.0137778
  0
VERTEX
  8
0
 10
18.0849
 20
3.73747
 30
0.0
 40
0.0137778
 41
0.0137778
  0
VERTEX
  8
0
 10
18.166
 20
3.55561
 30
0.0
 40
0.0137778
 41
0.0137778
  0
VERTEX
  8
0
 10
18.2308
 20
3.35818
 30
0.0
 40
0.0137778
 41
0.0137778
  0
VERTEX
  8
0
 10
18.281
 20
3.14546
 30
0.0
 40
0.0137778
 41
0.0137778
  0
VERTEX
  8
0
 10
18.3179
 20
2.91764
 30
0.0
 40
0.0137778
 41
0.0137778
  0
VERTEX
  8
0
 10
18.3433
 20
2.67507
 30
0.0
 40
0.0137778
 41
0.0137778
  0
VERTEX
  8
0
 10
18.3589
 20
2.41797
 30
0.0
 40
0.0137778
 41
0.0137778
  0
VERTEX
  8
0
 10
18.366
 20
2.14665
 30
0.0
 40
0.0137778
 41
0.0137778
  0
VERTEX
  8
0
 10
18.3664
 20
1.86139
 30
0.0
 40
0.0137778
 41
0.0137778
  0
VERTEX
  8
0
 10
18.3615
 20
1.56239
 30
0.0
 40
0.0137778
 41
0.0137778
  0
VERTEX
  8
0
 10
18.3554
 20
1.32813
 30
0.0
 40
0.0137778
 41
0.0137778
  0
VERTEX
  8
0
 10
18.3531
 20
1.25
 30
0.0
 40
0.0137778
 41
0.0137778
  0
VERTEX
  8
0
 10
32.766
 20
1.19444
 30
0.0
 40
0.0137778
 41
0.0137778
  0
VERTEX
  8
0
 10
32.7714
 20
1.4496
 30
0.0
 40
0.0137778
 41
0.0137778
  0
VERTEX
  8
0
 10
32.7686
 20
2.2155
 30
0.0
 40
0.0137778
 41
0.0137778
  0
VERTEX
  8
0
 10
32.7404
 20
3.29351
 30
0.0
 40
0.0137778
 41
0.0137778
  0
VERTEX
  8
0
 10
32.6896
 20
4.4254
 30
0.0
 40
0.0137778
 41
0.0137778
  0
VERTEX
  8
0
 10
32.6244
 20
5.60775
 30
0.0
 40
0.0137778
 41
0.0137778
  0
VERTEX
  8
0
 10
32.5535
 20
6.83746
 30
0.0
 40
0.0137778
 41
0.0137778
  0
VERTEX
  8
0
 10
32.485
 20
8.11117
 30
0.0
 40
0.0137778
 41
0.0137778
  0
VERTEX
  8
0
 10
32.4274
 20
9.42572
 30
0.0
 40
0.0137778
 41
0.0137778
  0
VERTEX
  8
0
 10
32.3953
 20
10.4397
 30
0.0
 40
0.0137778
 41
0.0137778
  0
VERTEX
  8
0
 10
32.3889
 20
10.7778
 30
0.0
 40
0.0137778
 41
0.0137778
  0
VERTEX
  8
0
 10
25.8333
 20
10.5694
 30
0.0
 40
0.0137778
 41
0.0137778
  0
VERTEX
  8
0
 10
25.8324
 20
10.5178
 30
0.0
 40
0.0137778
 41
0.0137778
  0
VERTEX
  8
0
 10
25.8214
 20
10.363
 30
0.0
 40
0.0137778
 41
0.0137778
  0
VERTEX
  8
0
 10
25.7939
 20
10.1655
 30
0.0
 40
0.0137778
 41
0.0137778
  0
VERTEX
  8
0
 10
25.7506
 20
9.97706
 30
0.0
 40
0.0137778
 41
0.0137778
  0
VERTEX
  8
0
 10
25.6919
 20
9.79775
 30
0.0
 40
0.0137778
 41
0.0137778
  0
VERTEX
  8
0
 10
25.6179
 20
9.62776
 30
0.0
 40
0.0137778
 41
0.0137778
  0
VERTEX
  8
0
 10
25.5287
 20
9.46718
 30
0.0
 40
0.0137778
 41
0.0137778
  0
VERTEX
  8
0
 10
25.4247
 20
9.31603
 30
0.0
 40
0.0137778
 41
0.0137778
  0
VERTEX
  8
0
 10
25.306
 20
9.17449
 30
0.0
 40
0.0137778
 41
0.0137778
  0
VERTEX
  8
0
 10
25.1725
 20
9.04264
 30
0.0
 40
0.0137778
 41
0.0137778
  0
VERTEX
  8
0
 10
25.0247
 20
8.92057
 30
0.0
 40
0.0137778
 41
0.0137778
  0
VERTEX
  8
0
 10
24.8626
 20
8.80838
 30
0.0
 40
0.0137778
 41
0.0137778
  0
VERTEX
  8
0
 10
24.6864
 20
8.70617
 30
0.0
 40
0.0137778
 41
0.0137778
  0
VERTEX
  8
0
 10
24.4961
 20
8.6141
 30
0.0
 40
0.0137778
 41
0.0137778
  0
VERTEX
  8
0
 10
24.2922
 20
8.53217
 30
0.0
 40
0.0137778
 41
0.0137778
  0
VERTEX
  8
0
 10
24.0747
 20
8.46056
 30
0.0
 40
0.0137778
 41
0.0137778
  0
VERTEX
  8
0
 10
23.8438
 20
8.39931
 30
0.0
 40
0.0137778
 41
0.0137778
  0
VERTEX
  8
0
 10
23.5994
 20
8.34864
 30
0.0
 40
0.0137778
 41
0.0137778
  0
VERTEX
  8
0
 10
23.3422
 20
8.30849
 30
0.0
 40
0.0137778
 41
0.0137778
  0
VERTEX
  8
0
 10
23.0719
 20
8.27908
 30
0.0
 40
0.0137778
 41
0.0137778
  0
VERTEX
  8
0
 10
22.7889
 20
8.26042
 30
0.0
 40
0.0137778
 41
0.0137778
  0
VERTEX
  8
0
 10
22.4933
 20
8.25271
 30
0.0
 40
0.0137778
 41
0.0137778
  0
VERTEX
  8
0
 10
22.1853
 20
8.25603
 30
0.0
 40
0.0137778
 41
0.0137778
  0
VERTEX
  8
0
 10
21.8649
 20
8.2704
 30
0.0
 40
0.0137778
 41
0.0137778
  0
VERTEX
  8
0
 10
21.5325
 20
8.29601
 30
0.0
 40
0.0137778
 41
0.0137778
  0
VERTEX
  8
0
 10
21.1882
 20
8.33296
 30
0.0
 40
0.0137778
 41
0.0137778
  0
VERTEX
  8
0
 10
20.8321
 20
8.38129
 30
0.0
 40
0.0137778
 41
0.0137778
  0
VERTEX
  8
0
 10
20.4646
 20
8.44114
 30
0.0
 40
0.0137778
 41
0.0137778
  0
VERTEX
  8
0
 10
20.0854
 20
8.51258
 30
0.0
 40
0.0137778
 41
0.0137778
  0
VERTEX
  8
0
 10
19.6951
 20
8.59581
 30
0.0
 40
0.0137778
 41
0.0137778
  0
VERTEX
  8
0
 10
19.2936
 20
8.69081
 30
0.0
 40
0.0137778
 41
0.0137778
  0
VERTEX
  8
0
 10
18.8814
 20
8.79775
 30
0.0
 40
0.0137778
 41
0.0137778
  0
VERTEX
  8
0
 10
18.5637
 20
8.8859
 30
0.0
 40
0.0137778
 41
0.0137778
  0
VERTEX
  8
0
 10
18.4583
 20
8.91667
 30
0.0
 40
0.0137778
 41
0.0137778
  0
VERTEX
  8
0
 10
17.1667
 20
4.48611
 30
0.0
 40
0.0137778
 41
0.0137778
  0
SEQEND
 8
0
  0
POLYLINE
  8
0
 62
     250
 66
     1
 10
0
 20
0
 30
0.0
 40
0.992
 41
0.992
  0
VERTEX
  8
0
 10
18.7592
 20
1.24843
 30
0.0
 40
0.0137778
 41
0.0137778
  0
VERTEX
  8
0
 10
18.7606
 20
1.30892
 30
0.0
 40
0.0137778
 41
0.0137778
  0
VERTEX
  8
0
 10
18.7632
 20
1.49046
 30
0.0
 40
0.0137778
 41
0.0137778
  0
VERTEX
  8
0
 10
18.7636
 20
1.73882
 30
0.0
 40
0.0137778
 41
0.0137778
  0
VERTEX
  8
0
 10
18.759
 20
1.99143
 30
0.0
 40
0.0137778
 41
0.0137778
  0
VERTEX
  8
0
 10
18.7482
 20
2.24625
 30
0.0
 40
0.0137778
 41
0.0137778
  0
VERTEX
  8
0
 10
18.7297
 20
2.50119
 30
0.0
 40
0.0137778
 41
0.0137778
  0
VERTEX
  8
0
 10
18.7024
 20
2.75412
 30
0.0
 40
0.0137778
 41
0.0137778
  0
VERTEX
  8
0
 10
18.6647
 20
3.00299
 30
0.0
 40
0.0137778
 41
0.0137778
  0
VERTEX
  8
0
 10
18.6153
 20
3.24561
 30
0.0
 40
0.0137778
 41
0.0137778
  0
VERTEX
  8
0
 10
18.5531
 20
3.47999
 30
0.0
 40
0.0137778
 41
0.0137778
  0
VERTEX
  8
0
 10
18.4765
 20
3.70394
 30
0.0
 40
0.0137778
 41
0.0137778
  0
VERTEX
  8
0
 10
18.3844
 20
3.91547
 30
0.0
 40
0.0137778
 41
0.0137778
  0
VERTEX
  8
0
 10
18.2753
 20
4.11236
 30
0.0
 40
0.0137778
 41
0.0137778
  0
VERTEX
  8
0
 10
18.1479
 20
4.29264
 30
0.0
 40
0.0137778
 41
0.0137778
  0
VERTEX
  8
0
 10
18.001
 20
4.45415
 30
0.0
 40
0.0137778
 41
0.0137778
  0
VERTEX
  8
0
 10
17.8329
 20
4.59483
 30
0.0
 40
0.0137778
 41
0.0137778
  0
VERTEX
  8
0
 10
17.6921
 20
4.68668
 30
0.0
 40
0.0137778
 41
0.0137778
  0
VERTEX
  8
0
 10
17.6428
 20
4.71251
 30
0.0
 40
0.0137778
 41
0.0137778
  0
VERTEX
  8
0
 10
18.7271
 20
8.43164
 30
0.0
 40
0.0137778
 41
0.0137778
  0
VERTEX
  8
0
 10
18.8554
 20
8.3966
 30
0.0
 40
0.0137778
 41
0.0137778
  0
VERTEX
  8
0
 10
19.2422
 20
8.29785
 30
0.0
 40
0.0137778
 41
0.0137778
  0
VERTEX
  8
0
 10
19.7433
 20
8.18169
 30
0.0
 40
0.0137778
 41
0.0137778
  0
VERTEX
  8
0
 10
20.2297
 20
8.08328
 30
0.0
 40
0.0137778
 41
0.0137778
  0
VERTEX
  8
0
 10
20.7014
 20
8.00261
 30
0.0
 40
0.0137778
 41
0.0137778
  0
VERTEX
  8
0
 10
21.1578
 20
7.93978
 30
0.0
 40
0.0137778
 41
0.0137778
  0
VERTEX
  8
0
 10
21.5985
 20
7.89481
 30
0.0
 40
0.0137778
 41
0.0137778
  0
VERTEX
  8
0
 10
22.0233
 20
7.86778
 30
0.0
 40
0.0137778
 41
0.0137778
  0
VERTEX
  8
0
 10
22.3299
 20
7.85878
 30
0.0
 40
0.0137778
 41
0.0137778
  0
VERTEX
  8
0
 10
22.4321
 20
7.85878
 30
0.0
 40
0.0137778
 41
0.0137778
  0
VERTEX
  8
0
 10
22.5326
 20
7.85878
 30
0.0
 40
0.0137778
 41
0.0137778
  0
VERTEX
  8
0
 10
22.8346
 20
7.86865
 30
0.0
 40
0.0137778
 41
0.0137778
  0
VERTEX
  8
0
 10
23.2168
 20
7.89794
 30
0.0
 40
0.0137778
 41
0.0137778
  0
VERTEX
  8
0
 10
23.5783
 20
7.9464
 30
0.0
 40
0.0137778
 41
0.0137778
  0
VERTEX
  8
0
 10
23.9185
 20
8.01372
 30
0.0
 40
0.0137778
 41
0.0137778
  0
VERTEX
  8
0
 10
24.2371
 20
8.09961
 30
0.0
 40
0.0137778
 41
0.0137778
  0
VERTEX
  8
0
 10
24.5336
 20
8.20383
 30
0.0
 40
0.0137778
 41
0.0137778
  0
VERTEX
  8
0
 10
24.8078
 20
8.32601
 30
0.0
 40
0.0137778
 41
0.0137778
  0
VERTEX
  8
0
 10
25.059
 20
8.46593
 30
0.0
 40
0.0137778
 41
0.0137778
  0
VERTEX
  8
0
 10
25.2869
 20
8.62321
 30
0.0
 40
0.0137778
 41
0.0137778
  0
VERTEX
  8
0
 10
25.4914
 20
8.79764
 30
0.0
 40
0.0137778
 41
0.0137778
  0
VERTEX
  8
0
 10
25.6715
 20
8.98887
 30
0.0
 40
0.0137778
 41
0.0137778
  0
VERTEX
  8
0
 10
25.8274
 20
9.19661
 30
0.0
 40
0.0137778
 41
0.0137778
  0
VERTEX
  8
0
 10
25.9581
 20
9.42062
 30
0.0
 40
0.0137778
 41
0.0137778
  0
VERTEX
  8
0
 10
26.0636
 20
9.6606
 30
0.0
 40
0.0137778
 41
0.0137778
  0
VERTEX
  8
0
 10
26.1433
 20
9.91618
 30
0.0
 40
0.0137778
 41
0.0137778
  0
VERTEX
  8
0
 10
26.1871
 20
10.1189
 30
0.0
 40
0.0137778
 41
0.0137778
  0
VERTEX
  8
0
 10
26.1969
 20
10.1871
 30
0.0
 40
0.0137778
 41
0.0137778
  0
VERTEX
  8
0
 10
32.004
 20
10.3716
 30
0.0
 40
0.0137778
 41
0.0137778
  0
VERTEX
  8
0
 10
32.0108
 20
10.0922
 30
0.0
 40
0.0137778
 41
0.0137778
  0
VERTEX
  8
0
 10
32.0397
 20
9.2539
 30
0.0
 40
0.0137778
 41
0.0137778
  0
VERTEX
  8
0
 10
32.0881
 20
8.16374
 30
0.0
 40
0.0137778
 41
0.0137778
  0
VERTEX
  8
0
 10
32.1444
 20
7.09739
 30
0.0
 40
0.0137778
 41
0.0137778
  0
VERTEX
  8
0
 10
32.1893
 20
6.31267
 30
0.0
 40
0.0137778
 41
0.0137778
  0
VERTEX
  8
0
 10
32.2044
 20
6.05106
 30
0.0
 40
0.0137778
 41
0.0137778
  0
VERTEX
  8
0
 10
32.2133
 20
5.89785
 30
0.0
 40
0.0137778
 41
0.0137778
  0
VERTEX
  8
0
 10
32.2379
 20
5.43799
 30
0.0
 40
0.0137778
 41
0.0137778
  0
VERTEX
  8
0
 10
32.2682
 20
4.80593
 30
0.0
 40
0.0137778
 41
0.0137778
  0
VERTEX
  8
0
 10
32.2947
 20
4.16531
 30
0.0
 40
0.0137778
 41
0.0137778
  0
VERTEX
  8
0
 10
32.3171
 20
3.52647
 30
0.0
 40
0.0137778
 41
0.0137778
  0
VERTEX
  8
0
 10
32.3347
 20
2.89974
 30
0.0
 40
0.0137778
 41
0.0137778
  0
VERTEX
  8
0
 10
32.3472
 20
2.29551
 30
0.0
 40
0.0137778
 41
0.0137778
  0
VERTEX
  8
0
 10
32.3537
 20
1.72418
 30
0.0
 40
0.0137778
 41
0.0137778
  0
VERTEX
  8
0
 10
32.3549
 20
1.32807
 30
0.0
 40
0.0137778
 41
0.0137778
  0
VERTEX
  8
0
 10
32.3542
 20
1.19602
 30
0.0
 40
0.0137778
 41
0.0137778
  0
SEQEND
 8
0
  0
POLYLINE
  8
0
 62
     250
 66
     1
 10
0
 20
0
 30
0.0
 40
0.992
 41
0.992
  0
VERTEX
  8
0
 10
18.4426
 20
8.51113
 30
0.0
 40
0.0137778
 41
0.0137778
  0
VERTEX
  8
0
 10
18.2536
 20
8.56625
 30
0.0
 40
0.0137778
 41
0.0137778
  0
SEQEND
 8
0
  0
POLYLINE
  8
0
 62
     250
 66
     1
 10
0
 20
0
 30
0.0
 40
0.992
 41
0.992
  0
VERTEX
  8
0
 10
18.8114
 20
8.71474
 30
0.0
 40
0.0137778
 41
0.0137778
  0
VERTEX
  8
0
 10
18.8631
 20
8.90468
 30
0.0
 40
0.0137778
 41
0.0137778
  0
SEQEND
 8
0
  0
POLYLINE
  8
0
 62
     250
 66
     1
 10
0
 20
0
 30
0.0
 40
0.992
 41
0.992
  0
VERTEX
  8
0
 10
17.5467
 20
4.43722
 30
0.0
 40
0.0137778
 41
0.0137778
  0
VERTEX
  8
0
 10
17.4797
 20
4.24593
 30
0.0
 40
0.0137778
 41
0.0137778
  0
SEQEND
 8
0
  0
POLYLINE
  8
0
 62
     250
 66
     1
 10
0
 20
0
 30
0.0
 40
0.992
 41
0.992
  0
VERTEX
  8
0
 10
17.3714
 20
4.83653
 30
0.0
 40
0.0137778
 41
0.0137778
  0
VERTEX
  8
0
 10
17.1824
 20
4.8916
 30
0.0
 40
0.0137778
 41
0.0137778
  0
SEQEND
 8
0
  0
POLYLINE
  8
0
 62
     250
 66
     1
 10
0
 20
0
 30
0.0
 40
0.992
 41
0.992
  0
VERTEX
  8
0
 10
25.8929
 20
10.1606
 30
0.0
 40
0.0137778
 41
0.0137778
  0
VERTEX
  8
0
 10
25.6992
 20
10.1952
 30
0.0
 40
0.0137778
 41
0.0137778
  0
SEQEND
 8
0
  0
POLYLINE
  8
0
 62
     250
 66
     1
 10
0
 20
0
 30
0.0
 40
0.992
 41
0.992
  0
VERTEX
  8
0
 10
26.23
 20
10.4836
 30
0.0
 40
0.0137778
 41
0.0137778
  0
VERTEX
  8
0
 10
26.2237
 20
10.6803
 30
0.0
 40
0.0137778
 41
0.0137778
  0
SEQEND
 8
0
  0
POLYLINE
  8
0
 62
     250
 66
     1
 10
0
 20
0
 30
0.0
 40
0.992
 41
0.992
  0
VERTEX
  8
0
 10
31.9985
 20
10.6669
 30
0.0
 40
0.0137778
 41
0.0137778
  0
VERTEX
  8
0
 10
31.9924
 20
11.0556
 30
0.0
 40
0.0137778
 41
0.0137778
  0
SEQEND
 8
0
  0
POLYLINE
  8
0
 62
     250
 66
     1
 10
0
 20
0
 30
0.0
 40
0.992
 41
0.992
  0
VERTEX
  8
0
 10
32.2992
 20
10.3817
 30
0.0
 40
0.0137778
 41
0.0137778
  0
VERTEX
  8
0
 10
32.4958
 20
10.3866
 30
0.0
 40
0.0137778
 41
0.0137778
  0
SEQEND
 8
0
  0
POLYLINE
  8
0
 62
     250
 66
     1
 10
0
 20
0
 30
0.0
 40
0.992
 41
0.992
  0
VERTEX
  8
0
 10
32.1067
 20
6.54167
 30
0.0
 40
0.0137778
 41
0.0137778
  0
VERTEX
  8
0
 10
32.7153
 20
6.57639
 30
0.0
 40
0.0137778
 41
0.0137778
  0
SEQEND
 8
0
  0
POLYLINE
  8
0
 62
     250
 66
     1
 10
0
 20
0
 30
0.0
 40
0.992
 41
0.992
  0
VERTEX
  8
0
 10
18.4043
 20
5.875
 30
0.0
 40
0.0137778
 41
0.0137778
  0
VERTEX
  8
0
 10
31.3735
 20
5.875
 30
0.0
 40
0.0137778
 41
0.0137778
  0
SEQEND
 8
0
  0
POLYLINE
  8
0
 62
     250
 66
     1
 10
0
 20
0
 30
0.0
 70
     1
 40
0
 41
0
  0
VERTEX
  8
0
 10
18.3211
 20
5.875
 30
0.0
 40
0
 41
0
  0
VERTEX
  8
0
 10
18.3308
 20
5.87136
 30
0.0
 40
0
 41
0
  0
VERTEX
  8
0
 10
18.3835
 20
5.84663
 30
0.0
 40
0
 41
0
  0
VERTEX
  8
0
 10
18.4314
 20
5.81603
 30
0.0
 40
0
 41
0
  0
VERTEX
  8
0
 10
18.4389
 20
5.80946
 30
0.0
 40
0
 41
0
  0
VERTEX
  8
0
 10
18.4151
 20
5.875
 30
0.0
 40
0
 41
0
  0
VERTEX
  8
0
 10
18.4389
 20
5.94054
 30
0.0
 40
0
 41
0
  0
VERTEX
  8
0
 10
18.4314
 20
5.93397
 30
0.0
 40
0
 41
0
  0
VERTEX
  8
0
 10
18.3835
 20
5.90338
 30
0.0
 40
0
 41
0
  0
VERTEX
  8
0
 10
18.3308
 20
5.87864
 30
0.0
 40
0
 41
0
  0
VERTEX
  8
0
 10
18.3211
 20
5.875
 30
0.0
 40
0
 41
0
  0
SEQEND
 8
0
  0
POLYLINE
  8
0
 62
     250
 66
     1
 10
0
 20
0
 30
0.0
 70
     1
 40
0
 41
0
  0
VERTEX
  8
0
 10
31.4567
 20
5.875
 30
0.0
 40
0
 41
0
  0
VERTEX
  8
0
 10
31.4468
 20
5.87136
 30
0.0
 40
0
 41
0
  0
VERTEX
  8
0
 10
31.3943
 20
5.84663
 30
0.0
 40
0
 41
0
  0
VERTEX
  8
0
 10
31.3464
 20
5.81603
 30
0.0
 40
0
 41
0
  0
VERTEX
  8
0
 10
31.3389
 20
5.80946
 30
0.0
 40
0
 41
0
  0
VERTEX
  8
0
 10
31.3626
 20
5.875
 30
0.0
 40
0
 41
0
  0
VERTEX
  8
0
 10
31.3389
 20
5.94054
 30
0.0
 40
0
 41
0
  0
VERTEX
  8
0
 10
31.3464
 20
5.93397
 30
0.0
 40
0
 41
0
  0
VERTEX
  8
0
 10
31.3943
 20
5.90338
 30
0.0
 40
0
 41
0
  0
VERTEX
  8
0
 10
31.4468
 20
5.87864
 30
0.0
 40
0
 41
0
  0
VERTEX
  8
0
 10
31.4567
 20
5.875
 30
0.0
 40
0
 41
0
  0
SEQEND
 8
0
  0
POLYLINE
  8
0
 62
     250
 66
     1
 10
0
 20
0
 30
0.0
 40
1.417
 41
1.417
  0
VERTEX
  8
0
 10
19.1181
 20
1.44439
 30
0.0
 40
0.0196806
 41
0.0196806
  0
VERTEX
  8
0
 10
19.1181
 20
1.40104
 30
0.0
 40
0.0196806
 41
0.0196806
  0
SEQEND
 8
0
  0
POLYLINE
  8
0
 62
     250
 66
     1
 10
0
 20
0
 30
0.0
 70
     1
 40
0
 41
0
  0
VERTEX
  8
0
 10
19.1181
 20
1.28228
 30
0.0
 40
0
 41
0
  0
VERTEX
  8
0
 10
19.1139
 20
1.2934
 30
0.0
 40
0
 41
0
  0
VERTEX
  8
0
 10
19.1
 20
1.32612
 30
0.0
 40
0
 41
0
  0
VERTEX
  8
0
 10
19.0775
 20
1.37126
 30
0.0
 40
0
 41
0
  0
VERTEX
  8
0
 10
19.0519
 20
1.41401
 30
0.0
 40
0
 41
0
  0
VERTEX
  8
0
 10
19.0319
 20
1.44194
 30
0.0
 40
0
 41
0
  0
VERTEX
  8
0
 10
19.0244
 20
1.45053
 30
0.0
 40
0
 41
0
  0
VERTEX
  8
0
 10
19.1181
 20
1.41667
 30
0.0
 40
0
 41
0
  0
VERTEX
  8
0
 10
19.2117
 20
1.45053
 30
0.0
 40
0
 41
0
  0
VERTEX
  8
0
 10
19.2042
 20
1.44194
 30
0.0
 40
0
 41
0
  0
VERTEX
  8
0
 10
19.184
 20
1.41401
 30
0.0
 40
0
 41
0
  0
VERTEX
  8
0
 10
19.1585
 20
1.37126
 30
0.0
 40
0
 41
0
  0
VERTEX
  8
0
 10
19.1361
 20
1.32612
 30
0.0
 40
0
 41
0
  0
VERTEX
  8
0
 10
19.1221
 20
1.2934
 30
0.0
 40
0
 41
0
  0
VERTEX
  8
0
 10
19.1181
 20
1.28228
 30
0.0
 40
0
 41
0
  0
SEQEND
 8
0
  0
POLYLINE
  8
0
 62
     250
 66
     1
 10
0
 20
0
 30
0.0
 40
1.417
 41
1.417
  0
VERTEX
  8
0
 10
21.6607
 20
1.44667
 30
0.0
 40
0.0196806
 41
0.0196806
  0
VERTEX
  8
0
 10
21.6607
 20
1.40332
 30
0.0
 40
0.0196806
 41
0.0196806
  0
SEQEND
 8
0
  0
POLYLINE
  8
0
 62
     250
 66
     1
 10
0
 20
0
 30
0.0
 70
     1
 40
0
 41
0
  0
VERTEX
  8
0
 10
21.6607
 20
1.28451
 30
0.0
 40
0
 41
0
  0
VERTEX
  8
0
 10
21.6565
 20
1.29563
 30
0.0
 40
0
 41
0
  0
VERTEX
  8
0
 10
21.6426
 20
1.3284
 30
0.0
 40
0
 41
0
  0
VERTEX
  8
0
 10
21.6201
 20
1.37353
 30
0.0
 40
0
 41
0
  0
VERTEX
  8
0
 10
21.5946
 20
1.41624
 30
0.0
 40
0
 41
0
  0
VERTEX
  8
0
 10
21.5746
 20
1.44422
 30
0.0
 40
0
 41
0
  0
VERTEX
  8
0
 10
21.5671
 20
1.45281
 30
0.0
 40
0
 41
0
  0
VERTEX
  8
0
 10
21.6607
 20
1.41889
 30
0.0
 40
0
 41
0
  0
VERTEX
  8
0
 10
21.7543
 20
1.45281
 30
0.0
 40
0
 41
0
  0
VERTEX
  8
0
 10
21.7468
 20
1.44422
 30
0.0
 40
0
 41
0
  0
VERTEX
  8
0
 10
21.7267
 20
1.41624
 30
0.0
 40
0
 41
0
  0
VERTEX
  8
0
 10
21.7011
 20
1.37353
 30
0.0
 40
0
 41
0
  0
VERTEX
  8
0
 10
21.6788
 20
1.3284
 30
0.0
 40
0
 41
0
  0
VERTEX
  8
0
 10
21.6647
 20
1.29563
 30
0.0
 40
0
 41
0
  0
VERTEX
  8
0
 10
21.6607
 20
1.28451
 30
0.0
 40
0
 41
0
  0
SEQEND
 8
0
  0
POLYLINE
  8
0
 62
     250
 66
     1
 10
0
 20
0
 30
0.0
 40
1.417
 41
1.417
  0
VERTEX
  8
0
 10
28.3096
 20
1.42893
 30
0.0
 40
0.0196806
 41
0.0196806
  0
VERTEX
  8
0
 10
28.3096
 20
1.40142
 30
0.0
 40
0.0196806
 41
0.0196806
  0
SEQEND
 8
0
  0
POLYLINE
  8
0
 62
     250
 66
     1
 10
0
 20
0
 30
0.0
 70
     1
 40
0
 41
0
  0
VERTEX
  8
0
 10
28.3096
 20
1.28261
 30
0.0
 40
0
 41
0
  0
VERTEX
  8
0
 10
28.3056
 20
1.29373
 30
0.0
 40
0
 41
0
  0
VERTEX
  8
0
 10
28.2915
 20
1.32644
 30
0.0
 40
0
 41
0
  0
VERTEX
  8
0
 10
28.2692
 20
1.37158
 30
0.0
 40
0
 41
0
  0
VERTEX
  8
0
 10
28.2435
 20
1.41433
 30
0.0
 40
0
 41
0
  0
VERTEX
  8
0
 10
28.2235
 20
1.44228
 30
0.0
 40
0
 41
0
  0
VERTEX
  8
0
 10
28.216
 20
1.45085
 30
0.0
 40
0
 41
0
  0
VERTEX
  8
0
 10
28.3096
 20
1.41699
 30
0.0
 40
0
 41
0
  0
VERTEX
  8
0
 10
28.4032
 20
1.45085
 30
0.0
 40
0
 41
0
  0
VERTEX
  8
0
 10
28.3957
 20
1.44228
 30
0.0
 40
0
 41
0
  0
VERTEX
  8
0
 10
28.3757
 20
1.41433
 30
0.0
 40
0
 41
0
  0
VERTEX
  8
0
 10
28.3501
 20
1.37158
 30
0.0
 40
0
 41
0
  0
VERTEX
  8
0
 10
28.3276
 20
1.32644
 30
0.0
 40
0
 41
0
  0
VERTEX
  8
0
 10
28.3137
 20
1.29373
 30
0.0
 40
0
 41
0
  0
VERTEX
  8
0
 10
28.3096
 20
1.28261
 30
0.0
 40
0
 41
0
  0
SEQEND
 8
0
  0
POLYLINE
  8
0
 62
     250
 66
     1
 10
0
 20
0
 30
0.0
 40
1.417
 41
1.417
  0
VERTEX
  8
0
 10
31.4567
 20
1.39556
 30
0.0
 40
0.0196806
 41
0.0196806
  0
VERTEX
  8
0
 10
31.4567
 20
1.36806
 30
0.0
 40
0.0196806
 41
0.0196806
  0
SEQEND
 8
0
  0
POLYLINE
  8
0
 62
     250
 66
     1
 10
0
 20
0
 30
0.0
 70
     1
 40
0
 41
0
  0
VERTEX
  8
0
 10
31.4567
 20
1.24924
 30
0.0
 40
0
 41
0
  0
VERTEX
  8
0
 10
31.4525
 20
1.26036
 30
0.0
 40
0
 41
0
  0
VERTEX
  8
0
 10
31.4385
 20
1.29308
 30
0.0
 40
0
 41
0
  0
VERTEX
  8
0
 10
31.4161
 20
1.33822
 30
0.0
 40
0
 41
0
  0
VERTEX
  8
0
 10
31.3906
 20
1.38097
 30
0.0
 40
0
 41
0
  0
VERTEX
  8
0
 10
31.3706
 20
1.4089
 30
0.0
 40
0
 41
0
  0
VERTEX
  8
0
 10
31.3631
 20
1.41749
 30
0.0
 40
0
 41
0
  0
VERTEX
  8
0
 10
31.4567
 20
1.38363
 30
0.0
 40
0
 41
0
  0
VERTEX
  8
0
 10
31.5503
 20
1.41749
 30
0.0
 40
0
 41
0
  0
VERTEX
  8
0
 10
31.5428
 20
1.4089
 30
0.0
 40
0
 41
0
  0
VERTEX
  8
0
 10
31.5226
 20
1.38097
 30
0.0
 40
0
 41
0
  0
VERTEX
  8
0
 10
31.4971
 20
1.33822
 30
0.0
 40
0
 41
0
  0
VERTEX
  8
0
 10
31.4747
 20
1.29308
 30
0.0
 40
0
 41
0
  0
VERTEX
  8
0
 10
31.4607
 20
1.26036
 30
0.0
 40
0
 41
0
  0
VERTEX
  8
0
 10
31.4567
 20
1.24924
 30
0.0
 40
0
 41
0
  0
SEQEND
 8
0
  0
POLYLINE
  8
0
 62
     0
 66
     1
 10
0
 20
0
 30
0.0
 70
     1
 40
0
 41
0
  0
VERTEX
  8
0
 10
25.0631
 20
8.63889
 30
0.0
 40
0
 41
0
  0
VERTEX
  8
0
 10
25.0631
 20
8.62603
 30
0.0
 40
0
 41
0
  0
VERTEX
  8
0
 10
25.0526
 20
8.58735
 30
0.0
 40
0
 41
0
  0
VERTEX
  8
0
 10
25.0242
 20
8.54525
 30
0.0
 40
0
 41
0
  0
VERTEX
  8
0
 10
24.9821
 20
8.51682
 30
0.0
 40
0
 41
0
  0
VERTEX
  8
0
 10
24.9435
 20
8.5064
 30
0.0
 40
0
 41
0
  0
VERTEX
  8
0
 10
24.9306
 20
8.5064
 30
0.0
 40
0
 41
0
  0
VERTEX
  8
0
 10
24.9176
 20
8.5064
 30
0.0
 40
0
 41
0
  0
VERTEX
  8
0
 10
24.879
 20
8.51682
 30
0.0
 40
0
 41
0
  0
VERTEX
  8
0
 10
24.8368
 20
8.54525
 30
0.0
 40
0
 41
0
  0
VERTEX
  8
0
 10
24.8085
 20
8.58735
 30
0.0
 40
0
 41
0
  0
VERTEX
  8
0
 10
24.7981
 20
8.62603
 30
0.0
 40
0
 41
0
  0
VERTEX
  8
0
 10
24.7981
 20
8.63889
 30
0.0
 40
0
 41
0
  0
VERTEX
  8
0
 10
24.7981
 20
8.65181
 30
0.0
 40
0
 41
0
  0
VERTEX
  8
0
 10
24.8085
 20
8.69049
 30
0.0
 40
0
 41
0
  0
VERTEX
  8
0
 10
24.8368
 20
8.73258
 30
0.0
 40
0
 41
0
  0
VERTEX
  8
0
 10
24.879
 20
8.76096
 30
0.0
 40
0
 41
0
  0
VERTEX
  8
0
 10
24.9176
 20
8.77138
 30
0.0
 40
0
 41
0
  0
VERTEX
  8
0
 10
24.9306
 20
8.77138
 30
0.0
 40
0
 41
0
  0
VERTEX
  8
0
 10
24.9435
 20
8.77138
 30
0.0
 40
0
 41
0
  0
VERTEX
  8
0
 10
24.9821
 20
8.76096
 30
0.0
 40
0
 41
0
  0
VERTEX
  8
0
 10
25.0242
 20
8.73258
 30
0.0
 40
0
 41
0
  0
VERTEX
  8
0
 10
25.0526
 20
8.69049
 30
0.0
 40
0
 41
0
  0
VERTEX
  8
0
 10
25.0631
 20
8.65181
 30
0.0
 40
0
 41
0
  0
VERTEX
  8
0
 10
25.0631
 20
8.63889
 30
0.0
 40
0
 41
0
  0
SEQEND
 8
0
  0
POLYLINE
  8
0
 62
     250
 66
     1
 10
0
 20
0
 30
0.0
 40
1
 41
1
  0
VERTEX
  8
0
 10
22.1111
 20
8.38889
 30
0.0
 40
0.0138889
 41
0.0138889
  0
VERTEX
  8
0
 10
22.1111
 20
8.06944
 30
0.0
 40
0.0138889
 41
0.0138889
  0
SEQEND
 8
0
  0
POLYLINE
  8
0
 62
     250
 66
     1
 10
0
 20
0
 30
0.0
 40
1
 41
1
  0
VERTEX
  8
0
 10
22.5556
 20
8.38889
 30
0.0
 40
0.0138889
 41
0.0138889
  0
VERTEX
  8
0
 10
22.5417
 20
8.02778
 30
0.0
 40
0.0138889
 41
0.0138889
  0
SEQEND
 8
0
  0
POLYLINE
  8
0
 62
     250
 66
     1
 10
0
 20
0
 30
0.0
 40
1
 41
1
  0
VERTEX
  8
0
 10
24.7361
 20
8.97222
 30
0.0
 40
0.0138889
 41
0.0138889
  0
VERTEX
  8
0
 10
24.8889
 20
8.66667
 30
0.0
 40
0.0138889
 41
0.0138889
  0
SEQEND
 8
0
  0
POLYLINE
  8
0
 62
     250
 66
     1
 10
0
 20
0
 30
0.0
 40
0.992
 41
0.992
  0
VERTEX
  8
0
 10
27.7775
 20
10.6312
 30
0.0
 40
0.0137778
 41
0.0137778
  0
VERTEX
  8
0
 10
27.7639
 20
10.8637
 30
0.0
 40
0.0137778
 41
0.0137778
  0
SEQEND
 8
0
  0
POLYLINE
  8
0
 62
     250
 66
     1
 10
0
 20
0
 30
0.0
 40
0.992
 41
0.992
  0
VERTEX
  8
0
 10
27.7639
 20
10.8637
 30
0.0
 40
0.0137778
 41
0.0137778
  0
VERTEX
  8
0
 10
32.3975
 20
10.9801
 30
0.0
 40
0.0137778
 41
0.0137778
  0
SEQEND
 8
0
  0
POLYLINE
  8
0
 62
     250
 66
     1
 10
0
 20
0
 30
0.0
 40
0.689
 41
0.689
  0
VERTEX
  8
0
 10
27.99
 20
11.0002
 30
0.0
 40
0.00956944
 41
0.00956944
  0
VERTEX
  8
0
 10
28.0139
 20
10.5556
 30
0.0
 40
0.00956944
 41
0.00956944
  0
SEQEND
 8
0
  0
POLYLINE
  8
0
 62
     250
 66
     1
 10
0
 20
0
 30
0.0
 40
0.992
 41
0.992
  0
VERTEX
  8
0
 10
32.3975
 20
11
 30
0.0
 40
0.0137778
 41
0.0137778
  0
VERTEX
  8
0
 10
32.3889
 20
10.7778
 30
0.0
 40
0.0137778
 41
0.0137778
  0
SEQEND
 8
0
  0
POLYLINE
  8
0
 62
     250
 66
     1
 10
0
 20
0
 30
0.0
 40
0.992
 41
0.992
  0
VERTEX
  8
0
 10
32.4107
 20
32.8167
 30
0.0
 40
0.0137778
 41
0.0137778
  0
VERTEX
  8
0
 10
32.3247
 20
32.8161
 30
0.0
 40
0.0137778
 41
0.0137778
  0
VERTEX
  8
0
 10
32.0669
 20
32.8269
 30
0.0
 40
0.0137778
 41
0.0137778
  0
VERTEX
  8
0
 10
31.7046
 20
32.8635
 30
0.0
 40
0.0137778
 41
0.0137778
  0
VERTEX
  8
0
 10
31.3272
 20
32.9281
 30
0.0
 40
0.0137778
 41
0.0137778
  0
VERTEX
  8
0
 10
30.9382
 20
33.0228
 30
0.0
 40
0.0137778
 41
0.0137778
  0
VERTEX
  8
0
 10
30.5408
 20
33.1494
 30
0.0
 40
0.0137778
 41
0.0137778
  0
VERTEX
  8
0
 10
30.1386
 20
33.3101
 30
0.0
 40
0.0137778
 41
0.0137778
  0
VERTEX
  8
0
 10
29.7349
 20
33.5067
 30
0.0
 40
0.0137778
 41
0.0137778
  0
VERTEX
  8
0
 10
29.3331
 20
33.7413
 30
0.0
 40
0.0137778
 41
0.0137778
  0
VERTEX
  8
0
 10
28.9365
 20
34.0157
 30
0.0
 40
0.0137778
 41
0.0137778
  0
VERTEX
  8
0
 10
28.5489
 20
34.3318
 30
0.0
 40
0.0137778
 41
0.0137778
  0
VERTEX
  8
0
 10
28.1733
 20
34.6918
 30
0.0
 40
0.0137778
 41
0.0137778
  0
VERTEX
  8
0
 10
27.8133
 20
35.0975
 30
0.0
 40
0.0137778
 41
0.0137778
  0
VERTEX
  8
0
 10
27.4724
 20
35.5508
 30
0.0
 40
0.0137778
 41
0.0137778
  0
VERTEX
  8
0
 10
27.1537
 20
36.0539
 30
0.0
 40
0.0137778
 41
0.0137778
  0
VERTEX
  8
0
 10
26.8608
 20
36.6086
 30
0.0
 40
0.0137778
 41
0.0137778
  0
VERTEX
  8
0
 10
26.6574
 20
37.0626
 30
0.0
 40
0.0137778
 41
0.0137778
  0
VERTEX
  8
0
 10
26.5972
 20
37.2168
 30
0.0
 40
0.0137778
 41
0.0137778
  0
SEQEND
 8
0
  0
POLYLINE
  8
0
 62
     250
 66
     1
 10
0
 20
0
 30
0.0
 40
0.992
 41
0.992
  0
VERTEX
  8
0
 10
32.4107
 20
32.9176
 30
0.0
 40
0.0137778
 41
0.0137778
  0
VERTEX
  8
0
 10
32.3257
 20
32.9171
 30
0.0
 40
0.0137778
 41
0.0137778
  0
VERTEX
  8
0
 10
32.071
 20
32.9283
 30
0.0
 40
0.0137778
 41
0.0137778
  0
VERTEX
  8
0
 10
31.7168
 20
32.9654
 30
0.0
 40
0.0137778
 41
0.0137778
  0
VERTEX
  8
0
 10
31.3513
 20
33.0299
 30
0.0
 40
0.0137778
 41
0.0137778
  0
VERTEX
  8
0
 10
30.9772
 20
33.1231
 30
0.0
 40
0.0137778
 41
0.0137778
  0
VERTEX
  8
0
 10
30.5978
 20
33.246
 30
0.0
 40
0.0137778
 41
0.0137778
  0
VERTEX
  8
0
 10
30.2158
 20
33.3997
 30
0.0
 40
0.0137778
 41
0.0137778
  0
VERTEX
  8
0
 10
29.8343
 20
33.5857
 30
0.0
 40
0.0137778
 41
0.0137778
  0
VERTEX
  8
0
 10
29.4565
 20
33.8049
 30
0.0
 40
0.0137778
 41
0.0137778
  0
VERTEX
  8
0
 10
29.0851
 20
34.0583
 30
0.0
 40
0.0137778
 41
0.0137778
  0
VERTEX
  8
0
 10
28.7235
 20
34.3475
 30
0.0
 40
0.0137778
 41
0.0137778
  0
VERTEX
  8
0
 10
28.3742
 20
34.6732
 30
0.0
 40
0.0137778
 41
0.0137778
  0
VERTEX
  8
0
 10
28.0406
 20
35.0368
 30
0.0
 40
0.0137778
 41
0.0137778
  0
VERTEX
  8
0
 10
27.7254
 20
35.4394
 30
0.0
 40
0.0137778
 41
0.0137778
  0
VERTEX
  8
0
 10
27.4318
 20
35.8822
 30
0.0
 40
0.0137778
 41
0.0137778
  0
VERTEX
  8
0
 10
27.1629
 20
36.3663
 30
0.0
 40
0.0137778
 41
0.0137778
  0
VERTEX
  8
0
 10
26.9768
 20
36.759
 30
0.0
 40
0.0137778
 41
0.0137778
  0
VERTEX
  8
0
 10
26.9215
 20
36.8928
 30
0.0
 40
0.0137778
 41
0.0137778
  0
SEQEND
 8
0
  0
POLYLINE
  8
0
 62
     250
 66
     1
 10
0
 20
0
 30
0.0
 40
0.992
 41
0.992
  0
VERTEX
  8
0
 10
32.3935
 20
36.5694
 30
0.0
 40
0.0137778
 41
0.0137778
  0
VERTEX
  8
0
 10
32.4107
 20
32.8167
 30
0.0
 40
0.0137778
 41
0.0137778
  0
SEQEND
 8
0
  0
POLYLINE
  8
0
 62
     250
 66
     1
 10
0
 20
0
 30
0.0
 40
0.992
 41
0.992
  0
VERTEX
  8
0
 10
26.5972
 20
37.2169
 30
0.0
 40
0.0137778
 41
0.0137778
  0
VERTEX
  8
0
 10
29.1621
 20
37.865
 30
0.0
 40
0.0137778
 41
0.0137778
  0
VERTEX
  8
0
 10
29.1826
 20
37.8001
 30
0.0
 40
0.0137778
 41
0.0137778
  0
VERTEX
  8
0
 10
29.2599
 20
37.61
 30
0.0
 40
0.0137778
 41
0.0137778
  0
VERTEX
  8
0
 10
29.3782
 20
37.3921
 30
0.0
 40
0.0137778
 41
0.0137778
  0
VERTEX
  8
0
 10
29.5156
 20
37.2083
 30
0.0
 40
0.0137778
 41
0.0137778
  0
VERTEX
  8
0
 10
29.6706
 20
37.0557
 30
0.0
 40
0.0137778
 41
0.0137778
  0
VERTEX
  8
0
 10
29.8418
 20
36.9313
 30
0.0
 40
0.0137778
 41
0.0137778
  0
VERTEX
  8
0
 10
30.0279
 20
36.8319
 30
0.0
 40
0.0137778
 41
0.0137778
  0
VERTEX
  8
0
 10
30.2275
 20
36.755
 30
0.0
 40
0.0137778
 41
0.0137778
  0
VERTEX
  8
0
 10
30.4389
 20
36.6972
 30
0.0
 40
0.0137778
 41
0.0137778
  0
VERTEX
  8
0
 10
30.661
 20
36.6556
 30
0.0
 40
0.0137778
 41
0.0137778
  0
VERTEX
  8
0
 10
30.8924
 20
36.6274
 30
0.0
 40
0.0137778
 41
0.0137778
  0
VERTEX
  8
0
 10
31.1314
 20
36.6094
 30
0.0
 40
0.0137778
 41
0.0137778
  0
VERTEX
  8
0
 10
31.3767
 20
36.5988
 30
0.0
 40
0.0137778
 41
0.0137778
  0
VERTEX
  8
0
 10
31.6269
 20
36.5924
 30
0.0
 40
0.0137778
 41
0.0137778
  0
VERTEX
  8
0
 10
31.8808
 20
36.5874
 30
0.0
 40
0.0137778
 41
0.0137778
  0
VERTEX
  8
0
 10
32.1368
 20
36.5807
 30
0.0
 40
0.0137778
 41
0.0137778
  0
VERTEX
  8
0
 10
32.3293
 20
36.5731
 30
0.0
 40
0.0137778
 41
0.0137778
  0
VERTEX
  8
0
 10
32.3935
 20
36.5694
 30
0.0
 40
0.0137778
 41
0.0137778
  0
SEQEND
 8
0
  0
POLYLINE
  8
0
 62
     250
 66
     1
 10
0
 20
0
 30
0.0
 40
0.992
 41
0.992
  0
VERTEX
  8
0
 10
32.3935
 20
36.1986
 30
0.0
 40
0.0137778
 41
0.0137778
  0
VERTEX
  8
0
 10
32.3712
 20
36.1764
 30
0.0
 40
0.0137778
 41
0.0137778
  0
VERTEX
  8
0
 10
32.3189
 20
36.1793
 30
0.0
 40
0.0137778
 41
0.0137778
  0
VERTEX
  8
0
 10
31.7904
 20
36.1954
 30
0.0
 40
0.0137778
 41
0.0137778
  0
VERTEX
  8
0
 10
31.7383
 20
36.1964
 30
0.0
 40
0.0137778
 41
0.0137778
  0
VERTEX
  8
0
 10
31.6289
 20
36.1985
 30
0.0
 40
0.0137778
 41
0.0137778
  0
VERTEX
  8
0
 10
31.3004
 20
36.2075
 30
0.0
 40
0.0137778
 41
0.0137778
  0
VERTEX
  8
0
 10
30.865
 20
36.2349
 30
0.0
 40
0.0137778
 41
0.0137778
  0
VERTEX
  8
0
 10
30.4419
 20
36.2944
 30
0.0
 40
0.0137778
 41
0.0137778
  0
VERTEX
  8
0
 10
30.1386
 20
36.3678
 30
0.0
 40
0.0137778
 41
0.0137778
  0
VERTEX
  8
0
 10
30.0412
 20
36.4025
 30
0.0
 40
0.0137778
 41
0.0137778
  0
VERTEX
  8
0
 10
29.994
 20
36.4193
 30
0.0
 40
0.0137778
 41
0.0137778
  0
VERTEX
  8
0
 10
29.8553
 20
36.4779
 30
0.0
 40
0.0137778
 41
0.0137778
  0
VERTEX
  8
0
 10
29.6828
 20
36.5671
 30
0.0
 40
0.0137778
 41
0.0137778
  0
VERTEX
  8
0
 10
29.5237
 20
36.6701
 30
0.0
 40
0.0137778
 41
0.0137778
  0
VERTEX
  8
0
 10
29.3779
 20
36.7872
 30
0.0
 40
0.0137778
 41
0.0137778
  0
VERTEX
  8
0
 10
29.2451
 20
36.9185
 30
0.0
 40
0.0137778
 41
0.0137778
  0
VERTEX
  8
0
 10
29.1253
 20
37.064
 30
0.0
 40
0.0137778
 41
0.0137778
  0
VERTEX
  8
0
 10
29.0183
 20
37.224
 30
0.0
 40
0.0137778
 41
0.0137778
  0
VERTEX
  8
0
 10
28.9454
 20
37.3542
 30
0.0
 40
0.0137778
 41
0.0137778
  0
VERTEX
  8
0
 10
28.9239
 20
37.3987
 30
0.0
 40
0.0137778
 41
0.0137778
  0
VERTEX
  8
0
 10
26.6937
 20
36.8351
 30
0.0
 40
0.0137778
 41
0.0137778
  0
VERTEX
  8
0
 10
26.6786
 20
36.8953
 30
0.0
 40
0.0137778
 41
0.0137778
  0
SEQEND
 8
0
  0
POLYLINE
  8
0
 62
     250
 66
     1
 10
0
 20
0
 30
0.0
 40
0.992
 41
0.992
  0
VERTEX
  8
0
 10
29.3901
 20
37.5787
 30
0.0
 40
0.0137778
 41
0.0137778
  0
VERTEX
  8
0
 10
29.1771
 20
37.4953
 30
0.0
 40
0.0137778
 41
0.0137778
  0
SEQEND
 8
0
  0
POLYLINE
  8
0
 62
     250
 66
     1
 10
0
 20
0
 30
0.0
 40
0.992
 41
0.992
  0
VERTEX
  8
0
 10
28.7562
 20
37.864
 30
0.0
 40
0.0137778
 41
0.0137778
  0
VERTEX
  8
0
 10
28.8044
 20
37.6731
 30
0.0
 40
0.0137778
 41
0.0137778
  0
SEQEND
 8
0
  0
POLYLINE
  8
0
 62
     250
 66
     1
 10
0
 20
0
 30
0.0
 40
0.992
 41
0.992
  0
VERTEX
  8
0
 10
26.7367
 20
37.3351
 30
0.0
 40
0.0137778
 41
0.0137778
  0
VERTEX
  8
0
 10
26.8047
 20
37.1443
 30
0.0
 40
0.0137778
 41
0.0137778
  0
SEQEND
 8
0
  0
POLYLINE
  8
0
 62
     250
 66
     1
 10
0
 20
0
 30
0.0
 40
0.992
 41
0.992
  0
VERTEX
  8
0
 10
26.9215
 20
36.8928
 30
0.0
 40
0.0137778
 41
0.0137778
  0
VERTEX
  8
0
 10
26.6965
 20
36.8258
 30
0.0
 40
0.0137778
 41
0.0137778
  0
SEQEND
 8
0
  0
POLYLINE
  8
0
 62
     250
 66
     1
 10
0
 20
0
 30
0.0
 40
0.992
 41
0.992
  0
VERTEX
  8
0
 10
30.9585
 20
36.2733
 30
0.0
 40
0.0137778
 41
0.0137778
  0
VERTEX
  8
0
 10
30.964
 20
33.4397
 30
0.0
 40
0.0137778
 41
0.0137778
  0
SEQEND
 8
0
  0
POLYLINE
  8
0
 62
     250
 66
     1
 10
0
 20
0
 30
0.0
 70
     1
 40
0
 41
0
  0
VERTEX
  8
0
 10
30.9583
 20
36.3565
 30
0.0
 40
0
 41
0
  0
VERTEX
  8
0
 10
30.9547
 20
36.3467
 30
0.0
 40
0
 41
0
  0
VERTEX
  8
0
 10
30.93
 20
36.2942
 30
0.0
 40
0
 41
0
  0
VERTEX
  8
0
 10
30.8996
 20
36.2461
 30
0.0
 40
0
 41
0
  0
VERTEX
  8
0
 10
30.8931
 20
36.2386
 30
0.0
 40
0
 41
0
  0
VERTEX
  8
0
 10
30.9586
 20
36.2624
 30
0.0
 40
0
 41
0
  0
VERTEX
  8
0
 10
31.024
 20
36.2389
 30
0.0
 40
0
 41
0
  0
VERTEX
  8
0
 10
31.0175
 20
36.2464
 30
0.0
 40
0
 41
0
  0
VERTEX
  8
0
 10
30.9868
 20
36.2943
 30
0.0
 40
0
 41
0
  0
VERTEX
  8
0
 10
30.9619
 20
36.3467
 30
0.0
 40
0
 41
0
  0
VERTEX
  8
0
 10
30.9583
 20
36.3565
 30
0.0
 40
0
 41
0
  0
SEQEND
 8
0
  0
POLYLINE
  8
0
 62
     250
 66
     1
 10
0
 20
0
 30
0.0
 70
     1
 40
0
 41
0
  0
VERTEX
  8
0
 10
30.9642
 20
33.3565
 30
0.0
 40
0
 41
0
  0
VERTEX
  8
0
 10
30.9604
 20
33.3663
 30
0.0
 40
0
 41
0
  0
VERTEX
  8
0
 10
30.9356
 20
33.4187
 30
0.0
 40
0
 41
0
  0
VERTEX
  8
0
 10
30.905
 20
33.4667
 30
0.0
 40
0
 41
0
  0
VERTEX
  8
0
 10
30.8983
 20
33.4742
 30
0.0
 40
0
 41
0
  0
VERTEX
  8
0
 10
30.9639
 20
33.4506
 30
0.0
 40
0
 41
0
  0
VERTEX
  8
0
 10
31.0294
 20
33.4744
 30
0.0
 40
0
 41
0
  0
VERTEX
  8
0
 10
31.0228
 20
33.4668
 30
0.0
 40
0
 41
0
  0
VERTEX
  8
0
 10
30.9924
 20
33.4189
 30
0.0
 40
0
 41
0
  0
VERTEX
  8
0
 10
30.9678
 20
33.3664
 30
0.0
 40
0
 41
0
  0
VERTEX
  8
0
 10
30.9642
 20
33.3565
 30
0.0
 40
0
 41
0
  0
SEQEND
 8
0
  0
POLYLINE
  8
0
 62
     250
 66
     1
 10
0
 20
0
 30
0.0
 70
     1
 40
0.992
 41
0.992
  0
VERTEX
  8
0
 10
11.9737
 20
46.3517
 30
0.0
 40
0.0137778
 41
0.0137778
  0
VERTEX
  8
0
 10
31.4936
 20
46.2475
 30
0.0
 40
0.0137778
 41
0.0137778
  0
VERTEX
  8
0
 10
31.4956
 20
46.1515
 30
0.0
 40
0.0137778
 41
0.0137778
  0
VERTEX
  8
0
 10
31.5004
 20
45.8631
 30
0.0
 40
0.0137778
 41
0.0137778
  0
VERTEX
  8
0
 10
31.5067
 20
45.4922
 30
0.0
 40
0.0137778
 41
0.0137778
  0
VERTEX
  8
0
 10
31.5146
 20
45.1301
 30
0.0
 40
0.0137778
 41
0.0137778
  0
VERTEX
  8
0
 10
31.5264
 20
44.7722
 30
0.0
 40
0.0137778
 41
0.0137778
  0
VERTEX
  8
0
 10
31.5443
 20
44.4139
 30
0.0
 40
0.0137778
 41
0.0137778
  0
VERTEX
  8
0
 10
31.5707
 20
44.0506
 30
0.0
 40
0.0137778
 41
0.0137778
  0
VERTEX
  8
0
 10
31.6076
 20
43.6775
 30
0.0
 40
0.0137778
 41
0.0137778
  0
VERTEX
  8
0
 10
31.6575
 20
43.29
 30
0.0
 40
0.0137778
 41
0.0137778
  0
VERTEX
  8
0
 10
31.7222
 20
42.8835
 30
0.0
 40
0.0137778
 41
0.0137778
  0
VERTEX
  8
0
 10
31.8044
 20
42.4532
 30
0.0
 40
0.0137778
 41
0.0137778
  0
VERTEX
  8
0
 10
31.906
 20
41.9947
 30
0.0
 40
0.0137778
 41
0.0137778
  0
VERTEX
  8
0
 10
32.0294
 20
41.5031
 30
0.0
 40
0.0137778
 41
0.0137778
  0
VERTEX
  8
0
 10
32.1768
 20
40.9739
 30
0.0
 40
0.0137778
 41
0.0137778
  0
VERTEX
  8
0
 10
32.3504
 20
40.4024
 30
0.0
 40
0.0137778
 41
0.0137778
  0
VERTEX
  8
0
 10
32.5525
 20
39.784
 30
0.0
 40
0.0137778
 41
0.0137778
  0
VERTEX
  8
0
 10
32.7257
 20
39.281
 30
0.0
 40
0.0137778
 41
0.0137778
  0
VERTEX
  8
0
 10
32.7853
 20
39.1139
 30
0.0
 40
0.0137778
 41
0.0137778
  0
VERTEX
  8
0
 10
32.7579
 20
39.1114
 30
0.0
 40
0.0137778
 41
0.0137778
  0
VERTEX
  8
0
 10
32.6764
 20
39.1022
 30
0.0
 40
0.0137778
 41
0.0137778
  0
VERTEX
  8
0
 10
32.5485
 20
39.0853
 30
0.0
 40
0.0137778
 41
0.0137778
  0
VERTEX
  8
0
 10
32.4022
 20
39.0631
 30
0.0
 40
0.0137778
 41
0.0137778
  0
VERTEX
  8
0
 10
32.2381
 20
39.036
 30
0.0
 40
0.0137778
 41
0.0137778
  0
VERTEX
  8
0
 10
32.0569
 20
39.0042
 30
0.0
 40
0.0137778
 41
0.0137778
  0
VERTEX
  8
0
 10
31.8594
 20
38.9678
 30
0.0
 40
0.0137778
 41
0.0137778
  0
VERTEX
  8
0
 10
31.646
 20
38.9268
 30
0.0
 40
0.0137778
 41
0.0137778
  0
VERTEX
  8
0
 10
31.4175
 20
38.8817
 30
0.0
 40
0.0137778
 41
0.0137778
  0
VERTEX
  8
0
 10
31.1746
 20
38.8325
 30
0.0
 40
0.0137778
 41
0.0137778
  0
VERTEX
  8
0
 10
30.9181
 20
38.7794
 30
0.0
 40
0.0137778
 41
0.0137778
  0
VERTEX
  8
0
 10
30.6483
 20
38.7225
 30
0.0
 40
0.0137778
 41
0.0137778
  0
VERTEX
  8
0
 10
30.3661
 20
38.6622
 30
0.0
 40
0.0137778
 41
0.0137778
  0
VERTEX
  8
0
 10
30.0721
 20
38.5985
 30
0.0
 40
0.0137778
 41
0.0137778
  0
VERTEX
  8
0
 10
29.7671
 20
38.5315
 30
0.0
 40
0.0137778
 41
0.0137778
  0
VERTEX
  8
0
 10
29.4515
 20
38.4617
 30
0.0
 40
0.0137778
 41
0.0137778
  0
VERTEX
  8
0
 10
29.1263
 20
38.3889
 30
0.0
 40
0.0137778
 41
0.0137778
  0
VERTEX
  8
0
 10
28.7918
 20
38.3135
 30
0.0
 40
0.0137778
 41
0.0137778
  0
VERTEX
  8
0
 10
28.449
 20
38.2356
 30
0.0
 40
0.0137778
 41
0.0137778
  0
VERTEX
  8
0
 10
28.0985
 20
38.1554
 30
0.0
 40
0.0137778
 41
0.0137778
  0
VERTEX
  8
0
 10
27.7407
 20
38.0732
 30
0.0
 40
0.0137778
 41
0.0137778
  0
VERTEX
  8
0
 10
27.3765
 20
37.9889
 30
0.0
 40
0.0137778
 41
0.0137778
  0
VERTEX
  8
0
 10
27.0065
 20
37.9028
 30
0.0
 40
0.0137778
 41
0.0137778
  0
VERTEX
  8
0
 10
26.6314
 20
37.8153
 30
0.0
 40
0.0137778
 41
0.0137778
  0
VERTEX
  8
0
 10
26.2519
 20
37.7261
 30
0.0
 40
0.0137778
 41
0.0137778
  0
VERTEX
  8
0
 10
25.8686
 20
37.6358
 30
0.0
 40
0.0137778
 41
0.0137778
  0
VERTEX
  8
0
 10
25.4821
 20
37.5444
 30
0.0
 40
0.0137778
 41
0.0137778
  0
VERTEX
  8
0
 10
25.0932
 20
37.4522
 30
0.0
 40
0.0137778
 41
0.0137778
  0
VERTEX
  8
0
 10
24.7026
 20
37.3593
 30
0.0
 40
0.0137778
 41
0.0137778
  0
VERTEX
  8
0
 10
24.3108
 20
37.2658
 30
0.0
 40
0.0137778
 41
0.0137778
  0
VERTEX
  8
0
 10
23.9185
 20
37.1719
 30
0.0
 40
0.0137778
 41
0.0137778
  0
VERTEX
  8
0
 10
23.5264
 20
37.0779
 30
0.0
 40
0.0137778
 41
0.0137778
  0
VERTEX
  8
0
 10
23.1351
 20
36.9839
 30
0.0
 40
0.0137778
 41
0.0137778
  0
VERTEX
  8
0
 10
22.7456
 20
36.89
 30
0.0
 40
0.0137778
 41
0.0137778
  0
VERTEX
  8
0
 10
22.3581
 20
36.7965
 30
0.0
 40
0.0137778
 41
0.0137778
  0
VERTEX
  8
0
 10
21.9735
 20
36.7036
 30
0.0
 40
0.0137778
 41
0.0137778
  0
VERTEX
  8
0
 10
21.5924
 20
36.6113
 30
0.0
 40
0.0137778
 41
0.0137778
  0
VERTEX
  8
0
 10
21.2156
 20
36.5199
 30
0.0
 40
0.0137778
 41
0.0137778
  0
VERTEX
  8
0
 10
20.8435
 20
36.4296
 30
0.0
 40
0.0137778
 41
0.0137778
  0
VERTEX
  8
0
 10
20.4769
 20
36.3404
 30
0.0
 40
0.0137778
 41
0.0137778
  0
VERTEX
  8
0
 10
20.1167
 20
36.2528
 30
0.0
 40
0.0137778
 41
0.0137778
  0
VERTEX
  8
0
 10
19.7633
 20
36.1667
 30
0.0
 40
0.0137778
 41
0.0137778
  0
VERTEX
  8
0
 10
19.4174
 20
36.0822
 30
0.0
 40
0.0137778
 41
0.0137778
  0
VERTEX
  8
0
 10
19.0796
 20
35.9999
 30
0.0
 40
0.0137778
 41
0.0137778
  0
VERTEX
  8
0
 10
18.7507
 20
35.9196
 30
0.0
 40
0.0137778
 41
0.0137778
  0
VERTEX
  8
0
 10
18.4314
 20
35.8415
 30
0.0
 40
0.0137778
 41
0.0137778
  0
VERTEX
  8
0
 10
18.1222
 20
35.7661
 30
0.0
 40
0.0137778
 41
0.0137778
  0
VERTEX
  8
0
 10
17.8239
 20
35.6932
 30
0.0
 40
0.0137778
 41
0.0137778
  0
VERTEX
  8
0
 10
17.5371
 20
35.6231
 30
0.0
 40
0.0137778
 41
0.0137778
  0
VERTEX
  8
0
 10
17.2624
 20
35.5561
 30
0.0
 40
0.0137778
 41
0.0137778
  0
VERTEX
  8
0
 10
17.0007
 20
35.4922
 30
0.0
 40
0.0137778
 41
0.0137778
  0
VERTEX
  8
0
 10
16.7524
 20
35.4317
 30
0.0
 40
0.0137778
 41
0.0137778
  0
VERTEX
  8
0
 10
16.5183
 20
35.3747
 30
0.0
 40
0.0137778
 41
0.0137778
  0
VERTEX
  8
0
 10
16.299
 20
35.3214
 30
0.0
 40
0.0137778
 41
0.0137778
  0
VERTEX
  8
0
 10
16.0953
 20
35.2721
 30
0.0
 40
0.0137778
 41
0.0137778
  0
VERTEX
  8
0
 10
15.9076
 20
35.2267
 30
0.0
 40
0.0137778
 41
0.0137778
  0
VERTEX
  8
0
 10
15.7369
 20
35.1856
 30
0.0
 40
0.0137778
 41
0.0137778
  0
VERTEX
  8
0
 10
15.5836
 20
35.149
 30
0.0
 40
0.0137778
 41
0.0137778
  0
VERTEX
  8
0
 10
15.4486
 20
35.1168
 30
0.0
 40
0.0137778
 41
0.0137778
  0
VERTEX
  8
0
 10
15.3324
 20
35.0896
 30
0.0
 40
0.0137778
 41
0.0137778
  0
VERTEX
  8
0
 10
15.2356
 20
35.0672
 30
0.0
 40
0.0137778
 41
0.0137778
  0
VERTEX
  8
0
 10
15.159
 20
35.05
 30
0.0
 40
0.0137778
 41
0.0137778
  0
VERTEX
  8
0
 10
15.1032
 20
35.0381
 30
0.0
 40
0.0137778
 41
0.0137778
  0
VERTEX
  8
0
 10
15.069
 20
35.0315
 30
0.0
 40
0.0137778
 41
0.0137778
  0
VERTEX
  8
0
 10
15.0572
 20
35.03
 30
0.0
 40
0.0137778
 41
0.0137778
  0
VERTEX
  8
0
 10
15.0569
 20
35.0307
 30
0.0
 40
0.0137778
 41
0.0137778
  0
VERTEX
  8
0
 10
14.9536
 20
35.1653
 30
0.0
 40
0.0137778
 41
0.0137778
  0
VERTEX
  8
0
 10
14.6569
 20
35.5789
 30
0.0
 40
0.0137778
 41
0.0137778
  0
VERTEX
  8
0
 10
14.2853
 20
36.1453
 30
0.0
 40
0.0137778
 41
0.0137778
  0
VERTEX
  8
0
 10
13.9417
 20
36.7307
 30
0.0
 40
0.0137778
 41
0.0137778
  0
VERTEX
  8
0
 10
13.626
 20
37.3358
 30
0.0
 40
0.0137778
 41
0.0137778
  0
VERTEX
  8
0
 10
13.3381
 20
37.9611
 30
0.0
 40
0.0137778
 41
0.0137778
  0
VERTEX
  8
0
 10
13.078
 20
38.6074
 30
0.0
 40
0.0137778
 41
0.0137778
  0
VERTEX
  8
0
 10
12.8454
 20
39.275
 30
0.0
 40
0.0137778
 41
0.0137778
  0
VERTEX
  8
0
 10
12.6403
 20
39.9647
 30
0.0
 40
0.0137778
 41
0.0137778
  0
VERTEX
  8
0
 10
12.4626
 20
40.6772
 30
0.0
 40
0.0137778
 41
0.0137778
  0
VERTEX
  8
0
 10
12.3121
 20
41.4129
 30
0.0
 40
0.0137778
 41
0.0137778
  0
VERTEX
  8
0
 10
12.1886
 20
42.1726
 30
0.0
 40
0.0137778
 41
0.0137778
  0
VERTEX
  8
0
 10
12.0922
 20
42.9569
 30
0.0
 40
0.0137778
 41
0.0137778
  0
VERTEX
  8
0
 10
12.0226
 20
43.7664
 30
0.0
 40
0.0137778
 41
0.0137778
  0
VERTEX
  8
0
 10
11.9797
 20
44.6015
 30
0.0
 40
0.0137778
 41
0.0137778
  0
VERTEX
  8
0
 10
11.9635
 20
45.4632
 30
0.0
 40
0.0137778
 41
0.0137778
  0
VERTEX
  8
0
 10
11.9679
 20
46.1297
 30
0.0
 40
0.0137778
 41
0.0137778
  0
VERTEX
  8
0
 10
11.9737
 20
46.3517
 30
0.0
 40
0.0137778
 41
0.0137778
  0
SEQEND
 8
0
  0
POLYLINE
  8
0
 62
     250
 66
     1
 10
0
 20
0
 30
0.0
 40
0.992
 41
0.992
  0
VERTEX
  8
0
 10
31.1067
 20
45.856
 30
0.0
 40
0.0137778
 41
0.0137778
  0
VERTEX
  8
0
 10
31.1067
 20
45.856
 30
0.0
 40
0.0137778
 41
0.0137778
  0
VERTEX
  8
0
 10
31.1064
 20
45.8639
 30
0.0
 40
0.0137778
 41
0.0137778
  0
VERTEX
  8
0
 10
31.1057
 20
45.8968
 30
0.0
 40
0.0137778
 41
0.0137778
  0
VERTEX
  8
0
 10
31.1044
 20
45.946
 30
0.0
 40
0.0137778
 41
0.0137778
  0
VERTEX
  8
0
 10
31.1031
 20
46.0036
 30
0.0
 40
0.0137778
 41
0.0137778
  0
VERTEX
  8
0
 10
31.1017
 20
46.0611
 30
0.0
 40
0.0137778
 41
0.0137778
  0
VERTEX
  8
0
 10
31.1004
 20
46.1104
 30
0.0
 40
0.0137778
 41
0.0137778
  0
VERTEX
  8
0
 10
31.0996
 20
46.1432
 30
0.0
 40
0.0137778
 41
0.0137778
  0
VERTEX
  8
0
 10
31.0994
 20
46.1512
 30
0.0
 40
0.0137778
 41
0.0137778
  0
VERTEX
  8
0
 10
31.0994
 20
46.1512
 30
0.0
 40
0.0137778
 41
0.0137778
  0
VERTEX
  8
0
 10
31.1007
 20
46.0685
 30
0.0
 40
0.0137778
 41
0.0137778
  0
VERTEX
  8
0
 10
31.105
 20
45.8201
 30
0.0
 40
0.0137778
 41
0.0137778
  0
VERTEX
  8
0
 10
31.1124
 20
45.4869
 30
0.0
 40
0.0137778
 41
0.0137778
  0
VERTEX
  8
0
 10
31.1228
 20
45.1496
 30
0.0
 40
0.0137778
 41
0.0137778
  0
VERTEX
  8
0
 10
31.1379
 20
44.8061
 30
0.0
 40
0.0137778
 41
0.0137778
  0
VERTEX
  8
0
 10
31.1593
 20
44.4542
 30
0.0
 40
0.0137778
 41
0.0137778
  0
VERTEX
  8
0
 10
31.1886
 20
44.0919
 30
0.0
 40
0.0137778
 41
0.0137778
  0
VERTEX
  8
0
 10
31.2274
 20
43.7172
 30
0.0
 40
0.0137778
 41
0.0137778
  0
VERTEX
  8
0
 10
31.2769
 20
43.3279
 30
0.0
 40
0.0137778
 41
0.0137778
  0
VERTEX
  8
0
 10
31.339
 20
42.9219
 30
0.0
 40
0.0137778
 41
0.0137778
  0
VERTEX
  8
0
 10
31.4151
 20
42.4972
 30
0.0
 40
0.0137778
 41
0.0137778
  0
VERTEX
  8
0
 10
31.5069
 20
42.0517
 30
0.0
 40
0.0137778
 41
0.0137778
  0
VERTEX
  8
0
 10
31.6158
 20
41.5832
 30
0.0
 40
0.0137778
 41
0.0137778
  0
VERTEX
  8
0
 10
31.7436
 20
41.0897
 30
0.0
 40
0.0137778
 41
0.0137778
  0
VERTEX
  8
0
 10
31.8915
 20
40.569
 30
0.0
 40
0.0137778
 41
0.0137778
  0
VERTEX
  8
0
 10
32.0612
 20
40.0192
 30
0.0
 40
0.0137778
 41
0.0137778
  0
VERTEX
  8
0
 10
32.2046
 20
39.5828
 30
0.0
 40
0.0137778
 41
0.0137778
  0
VERTEX
  8
0
 10
32.2544
 20
39.4381
 30
0.0
 40
0.0137778
 41
0.0137778
  0
VERTEX
  8
0
 10
32.2011
 20
39.4293
 30
0.0
 40
0.0137778
 41
0.0137778
  0
VERTEX
  8
0
 10
32.0417
 20
39.4015
 30
0.0
 40
0.0137778
 41
0.0137778
  0
VERTEX
  8
0
 10
31.8056
 20
39.3585
 30
0.0
 40
0.0137778
 41
0.0137778
  0
VERTEX
  8
0
 10
31.5467
 20
39.309
 30
0.0
 40
0.0137778
 41
0.0137778
  0
VERTEX
  8
0
 10
31.266
 20
39.2535
 30
0.0
 40
0.0137778
 41
0.0137778
  0
VERTEX
  8
0
 10
30.9644
 20
39.1919
 30
0.0
 40
0.0137778
 41
0.0137778
  0
VERTEX
  8
0
 10
30.6428
 20
39.1247
 30
0.0
 40
0.0137778
 41
0.0137778
  0
VERTEX
  8
0
 10
30.3018
 20
39.0519
 30
0.0
 40
0.0137778
 41
0.0137778
  0
VERTEX
  8
0
 10
29.9425
 20
38.974
 30
0.0
 40
0.0137778
 41
0.0137778
  0
VERTEX
  8
0
 10
29.5656
 20
38.8911
 30
0.0
 40
0.0137778
 41
0.0137778
  0
VERTEX
  8
0
 10
29.1719
 20
38.8035
 30
0.0
 40
0.0137778
 41
0.0137778
  0
VERTEX
  8
0
 10
28.7624
 20
38.7112
 30
0.0
 40
0.0137778
 41
0.0137778
  0
VERTEX
  8
0
 10
28.3378
 20
38.6147
 30
0.0
 40
0.0137778
 41
0.0137778
  0
VERTEX
  8
0
 10
27.899
 20
38.5142
 30
0.0
 40
0.0137778
 41
0.0137778
  0
VERTEX
  8
0
 10
27.4469
 20
38.4097
 30
0.0
 40
0.0137778
 41
0.0137778
  0
VERTEX
  8
0
 10
26.9824
 20
38.3018
 30
0.0
 40
0.0137778
 41
0.0137778
  0
VERTEX
  8
0
 10
26.506
 20
38.1904
 30
0.0
 40
0.0137778
 41
0.0137778
  0
VERTEX
  8
0
 10
26.0189
 20
38.0758
 30
0.0
 40
0.0137778
 41
0.0137778
  0
VERTEX
  8
0
 10
25.5218
 20
37.9583
 30
0.0
 40
0.0137778
 41
0.0137778
  0
VERTEX
  8
0
 10
25.0156
 20
37.8383
 30
0.0
 40
0.0137778
 41
0.0137778
  0
VERTEX
  8
0
 10
24.501
 20
37.7157
 30
0.0
 40
0.0137778
 41
0.0137778
  0
VERTEX
  8
0
 10
23.979
 20
37.591
 30
0.0
 40
0.0137778
 41
0.0137778
  0
VERTEX
  8
0
 10
23.4504
 20
37.4642
 30
0.0
 40
0.0137778
 41
0.0137778
  0
VERTEX
  8
0
 10
22.9161
 20
37.3356
 30
0.0
 40
0.0137778
 41
0.0137778
  0
VERTEX
  8
0
 10
22.3768
 20
37.2056
 30
0.0
 40
0.0137778
 41
0.0137778
  0
VERTEX
  8
0
 10
21.8335
 20
37.0742
 30
0.0
 40
0.0137778
 41
0.0137778
  0
VERTEX
  8
0
 10
21.2869
 20
36.9418
 30
0.0
 40
0.0137778
 41
0.0137778
  0
VERTEX
  8
0
 10
20.7379
 20
36.8086
 30
0.0
 40
0.0137778
 41
0.0137778
  0
VERTEX
  8
0
 10
20.1875
 20
36.6749
 30
0.0
 40
0.0137778
 41
0.0137778
  0
VERTEX
  8
0
 10
19.6363
 20
36.5407
 30
0.0
 40
0.0137778
 41
0.0137778
  0
VERTEX
  8
0
 10
19.0853
 20
36.4063
 30
0.0
 40
0.0137778
 41
0.0137778
  0
VERTEX
  8
0
 10
18.5351
 20
36.2721
 30
0.0
 40
0.0137778
 41
0.0137778
  0
VERTEX
  8
0
 10
18.124
 20
36.1717
 30
0.0
 40
0.0137778
 41
0.0137778
  0
VERTEX
  8
0
 10
17.9869
 20
36.1382
 30
0.0
 40
0.0137778
 41
0.0137778
  0
VERTEX
  8
0
 10
17.874
 20
36.1107
 30
0.0
 40
0.0137778
 41
0.0137778
  0
VERTEX
  8
0
 10
17.5357
 20
36.0281
 30
0.0
 40
0.0137778
 41
0.0137778
  0
VERTEX
  8
0
 10
17.1028
 20
35.9224
 30
0.0
 40
0.0137778
 41
0.0137778
  0
VERTEX
  8
0
 10
16.6942
 20
35.8226
 30
0.0
 40
0.0137778
 41
0.0137778
  0
VERTEX
  8
0
 10
16.3157
 20
35.7307
 30
0.0
 40
0.0137778
 41
0.0137778
  0
VERTEX
  8
0
 10
15.9732
 20
35.6476
 30
0.0
 40
0.0137778
 41
0.0137778
  0
VERTEX
  8
0
 10
15.6726
 20
35.5751
 30
0.0
 40
0.0137778
 41
0.0137778
  0
VERTEX
  8
0
 10
15.4197
 20
35.5146
 30
0.0
 40
0.0137778
 41
0.0137778
  0
VERTEX
  8
0
 10
15.2704
 20
35.4792
 30
0.0
 40
0.0137778
 41
0.0137778
  0
VERTEX
  8
0
 10
15.2206
 20
35.4676
 30
0.0
 40
0.0137778
 41
0.0137778
  0
VERTEX
  8
0
 10
15.1265
 20
35.5947
 30
0.0
 40
0.0137778
 41
0.0137778
  0
VERTEX
  8
0
 10
14.8564
 20
35.985
 30
0.0
 40
0.0137778
 41
0.0137778
  0
VERTEX
  8
0
 10
14.5186
 20
36.5171
 30
0.0
 40
0.0137778
 41
0.0137778
  0
VERTEX
  8
0
 10
14.2067
 20
37.0647
 30
0.0
 40
0.0137778
 41
0.0137778
  0
VERTEX
  8
0
 10
13.9201
 20
37.6288
 30
0.0
 40
0.0137778
 41
0.0137778
  0
VERTEX
  8
0
 10
13.6588
 20
38.2103
 30
0.0
 40
0.0137778
 41
0.0137778
  0
VERTEX
  8
0
 10
13.4219
 20
38.8101
 30
0.0
 40
0.0137778
 41
0.0137778
  0
VERTEX
  8
0
 10
13.2092
 20
39.4292
 30
0.0
 40
0.0137778
 41
0.0137778
  0
VERTEX
  8
0
 10
13.064
 20
39.9078
 30
0.0
 40
0.0137778
 41
0.0137778
  0
VERTEX
  8
0
 10
13.0202
 20
40.0685
 30
0.0
 40
0.0137778
 41
0.0137778
  0
VERTEX
  8
0
 10
12.9744
 20
40.2361
 30
0.0
 40
0.0137778
 41
0.0137778
  0
VERTEX
  8
0
 10
12.8543
 20
40.744
 30
0.0
 40
0.0137778
 41
0.0137778
  0
VERTEX
  8
0
 10
12.7122
 20
41.4637
 30
0.0
 40
0.0137778
 41
0.0137778
  0
VERTEX
  8
0
 10
12.594
 20
42.2206
 30
0.0
 40
0.0137778
 41
0.0137778
  0
VERTEX
  8
0
 10
12.4994
 20
43.0072
 30
0.0
 40
0.0137778
 41
0.0137778
  0
VERTEX
  8
0
 10
12.4284
 20
43.8165
 30
0.0
 40
0.0137778
 41
0.0137778
  0
VERTEX
  8
0
 10
12.3811
 20
44.6417
 30
0.0
 40
0.0137778
 41
0.0137778
  0
VERTEX
  8
0
 10
12.3572
 20
45.4751
 30
0.0
 40
0.0137778
 41
0.0137778
  0
VERTEX
  8
0
 10
12.354
 20
46.1014
 30
0.0
 40
0.0137778
 41
0.0137778
  0
VERTEX
  8
0
 10
12.3569
 20
46.31
 30
0.0
 40
0.0137778
 41
0.0137778
  0
SEQEND
 8
0
  0
POLYLINE
  8
0
 62
     250
 66
     1
 10
0
 20
0
 30
0.0
 40
0.992
 41
0.992
  0
VERTEX
  8
0
 10
31.5353
 20
43.1019
 30
0.0
 40
0.0137778
 41
0.0137778
  0
VERTEX
  8
0
 10
31.8478
 20
43.1228
 30
0.0
 40
0.0137778
 41
0.0137778
  0
SEQEND
 8
0
  0
POLYLINE
  8
0
 62
     250
 66
     1
 10
0
 20
0
 30
0.0
 40
0.992
 41
0.992
  0
VERTEX
  8
0
 10
27.3678
 20
38.1058
 30
0.0
 40
0.0137778
 41
0.0137778
  0
VERTEX
  8
0
 10
27.4322
 20
37.864
 30
0.0
 40
0.0137778
 41
0.0137778
  0
SEQEND
 8
0
  0
POLYLINE
  8
0
 62
     250
 66
     1
 10
0
 20
0
 30
0.0
 40
0.992
 41
0.992
  0
VERTEX
  8
0
 10
27.2042
 20
37.94
 30
0.0
 40
0.0137778
 41
0.0137778
  0
VERTEX
  8
0
 10
27.2131
 20
37.9017
 30
0.0
 40
0.0137778
 41
0.0137778
  0
SEQEND
 8
0
  0
POLYLINE
  8
0
 62
     250
 66
     1
 10
0
 20
0
 30
0.0
 40
0.992
 41
0.992
  0
VERTEX
  8
0
 10
27.2349
 20
37.8069
 30
0.0
 40
0.0137778
 41
0.0137778
  0
VERTEX
  8
0
 10
27.2438
 20
37.7686
 30
0.0
 40
0.0137778
 41
0.0137778
  0
VERTEX
  8
0
 10
27.2469
 20
37.7693
 30
0.0
 40
0.0137778
 41
0.0137778
  0
VERTEX
  8
0
 10
27.2789
 20
37.7768
 30
0.0
 40
0.0137778
 41
0.0137778
  0
VERTEX
  8
0
 10
27.2821
 20
37.7775
 30
0.0
 40
0.0137778
 41
0.0137778
  0
SEQEND
 8
0
  0
POLYLINE
  8
0
 62
     250
 66
     1
 10
0
 20
0
 30
0.0
 40
0.992
 41
0.992
  0
VERTEX
  8
0
 10
27.3597
 20
37.7956
 30
0.0
 40
0.0137778
 41
0.0137778
  0
VERTEX
  8
0
 10
27.46
 20
37.8187
 30
0.0
 40
0.0137778
 41
0.0137778
  0
VERTEX
  8
0
 10
27.761
 20
37.8883
 30
0.0
 40
0.0137778
 41
0.0137778
  0
VERTEX
  8
0
 10
28.1619
 20
37.9801
 30
0.0
 40
0.0137778
 41
0.0137778
  0
VERTEX
  8
0
 10
28.561
 20
38.0708
 30
0.0
 40
0.0137778
 41
0.0137778
  0
VERTEX
  8
0
 10
28.9563
 20
38.1597
 30
0.0
 40
0.0137778
 41
0.0137778
  0
VERTEX
  8
0
 10
29.346
 20
38.2463
 30
0.0
 40
0.0137778
 41
0.0137778
  0
VERTEX
  8
0
 10
29.7285
 20
38.3301
 30
0.0
 40
0.0137778
 41
0.0137778
  0
VERTEX
  8
0
 10
30.1022
 20
38.4108
 30
0.0
 40
0.0137778
 41
0.0137778
  0
VERTEX
  8
0
 10
30.4651
 20
38.4879
 30
0.0
 40
0.0137778
 41
0.0137778
  0
VERTEX
  8
0
 10
30.8157
 20
38.5607
 30
0.0
 40
0.0137778
 41
0.0137778
  0
VERTEX
  8
0
 10
31.1522
 20
38.6289
 30
0.0
 40
0.0137778
 41
0.0137778
  0
VERTEX
  8
0
 10
31.4729
 20
38.6921
 30
0.0
 40
0.0137778
 41
0.0137778
  0
VERTEX
  8
0
 10
31.776
 20
38.7496
 30
0.0
 40
0.0137778
 41
0.0137778
  0
VERTEX
  8
0
 10
32.0597
 20
38.8011
 30
0.0
 40
0.0137778
 41
0.0137778
  0
VERTEX
  8
0
 10
32.3226
 20
38.8461
 30
0.0
 40
0.0137778
 41
0.0137778
  0
VERTEX
  8
0
 10
32.5626
 20
38.8842
 30
0.0
 40
0.0137778
 41
0.0137778
  0
VERTEX
  8
0
 10
32.7243
 20
38.9076
 30
0.0
 40
0.0137778
 41
0.0137778
  0
VERTEX
  8
0
 10
32.7783
 20
38.9147
 30
0.0
 40
0.0137778
 41
0.0137778
  0
SEQEND
 8
0
  0
POLYLINE
  8
0
 62
     250
 66
     1
 10
0
 20
0
 30
0.0
 40
0.992
 41
0.992
  0
VERTEX
  8
0
 10
32.8176
 20
38.9197
 30
0.0
 40
0.0137778
 41
0.0137778
  0
VERTEX
  8
0
 10
32.821
 20
38.9201
 30
0.0
 40
0.0137778
 41
0.0137778
  0
VERTEX
  8
0
 10
32.8535
 20
38.9242
 30
0.0
 40
0.0137778
 41
0.0137778
  0
VERTEX
  8
0
 10
32.8567
 20
38.9246
 30
0.0
 40
0.0137778
 41
0.0137778
  0
VERTEX
  8
0
 10
32.8435
 20
38.9617
 30
0.0
 40
0.0137778
 41
0.0137778
  0
SEQEND
 8
0
  0
POLYLINE
  8
0
 62
     250
 66
     1
 10
0
 20
0
 30
0.0
 40
0.992
 41
0.992
  0
VERTEX
  8
0
 10
32.8285
 20
39.0033
 30
0.0
 40
0.0137778
 41
0.0137778
  0
VERTEX
  8
0
 10
32.806
 20
39.066
 30
0.0
 40
0.0137778
 41
0.0137778
  0
SEQEND
 8
0
  0
POLYLINE
  8
0
 62
     250
 66
     1
 10
0
 20
0
 30
0.0
 40
0.992
 41
0.992
  0
VERTEX
  8
0
 10
32.7985
 20
39.0868
 30
0.0
 40
0.0137778
 41
0.0137778
  0
VERTEX
  8
0
 10
32.7851
 20
39.1237
 30
0.0
 40
0.0137778
 41
0.0137778
  0
SEQEND
 8
0
  0
POLYLINE
  8
0
 62
     250
 66
     1
 10
0
 20
0
 30
0.0
 40
0.992
 41
0.992
  0
VERTEX
  8
0
 10
19.9201
 20
38.4057
 30
0.0
 40
0.0137778
 41
0.0137778
  0
VERTEX
  8
0
 10
27.8611
 20
46.2669
 30
0.0
 40
0.0137778
 41
0.0137778
  0
SEQEND
 8
0
  0
POLYLINE
  8
0
 62
     250
 66
     1
 10
0
 20
0
 30
0.0
 70
     1
 40
0
 41
0
  0
VERTEX
  8
0
 10
19.8611
 20
38.3472
 30
0.0
 40
0
 41
0
  0
VERTEX
  8
0
 10
19.8706
 20
38.3515
 30
0.0
 40
0
 41
0
  0
VERTEX
  8
0
 10
19.9253
 20
38.3708
 30
0.0
 40
0
 41
0
  0
VERTEX
  8
0
 10
19.981
 20
38.3829
 30
0.0
 40
0
 41
0
  0
VERTEX
  8
0
 10
19.991
 20
38.3835
 30
0.0
 40
0
 41
0
  0
VERTEX
  8
0
 10
19.9279
 20
38.4135
 30
0.0
 40
0
 41
0
  0
VERTEX
  8
0
 10
19.8987
 20
38.4767
 30
0.0
 40
0
 41
0
  0
VERTEX
  8
0
 10
19.8979
 20
38.4667
 30
0.0
 40
0
 41
0
  0
VERTEX
  8
0
 10
19.8854
 20
38.4113
 30
0.0
 40
0
 41
0
  0
VERTEX
  8
0
 10
19.8656
 20
38.3567
 30
0.0
 40
0
 41
0
  0
VERTEX
  8
0
 10
19.8611
 20
38.3472
 30
0.0
 40
0
 41
0
  0
SEQEND
 8
0
  0
POLYLINE
  8
0
 62
     250
 66
     1
 10
0
 20
0
 30
0.0
 40
1.462
 41
1.462
  0
VERTEX
  8
0
 10
18.1528
 20
46.1942
 30
0.0
 40
0.0203056
 41
0.0203056
  0
VERTEX
  8
0
 10
18.1528
 20
46.1006
 30
0.0
 40
0.0203056
 41
0.0203056
  0
SEQEND
 8
0
  0
POLYLINE
  8
0
 62
     250
 66
     1
 10
0
 20
0
 30
0.0
 70
     1
 40
0
 41
0
  0
VERTEX
  8
0
 10
18.1528
 20
46.3168
 30
0.0
 40
0
 41
0
  0
VERTEX
  8
0
 10
18.1485
 20
46.3054
 30
0.0
 40
0
 41
0
  0
VERTEX
  8
0
 10
18.134
 20
46.2717
 30
0.0
 40
0
 41
0
  0
VERTEX
  8
0
 10
18.1108
 20
46.2251
 30
0.0
 40
0
 41
0
  0
VERTEX
  8
0
 10
18.0846
 20
46.181
 30
0.0
 40
0
 41
0
  0
VERTEX
  8
0
 10
18.0639
 20
46.1521
 30
0.0
 40
0
 41
0
  0
VERTEX
  8
0
 10
18.0563
 20
46.1432
 30
0.0
 40
0
 41
0
  0
VERTEX
  8
0
 10
18.1528
 20
46.1782
 30
0.0
 40
0
 41
0
  0
VERTEX
  8
0
 10
18.2493
 20
46.1432
 30
0.0
 40
0
 41
0
  0
VERTEX
  8
0
 10
18.2415
 20
46.1521
 30
0.0
 40
0
 41
0
  0
VERTEX
  8
0
 10
18.221
 20
46.181
 30
0.0
 40
0
 41
0
  0
VERTEX
  8
0
 10
18.1946
 20
46.2251
 30
0.0
 40
0
 41
0
  0
VERTEX
  8
0
 10
18.1714
 20
46.2717
 30
0.0
 40
0
 41
0
  0
VERTEX
  8
0
 10
18.1569
 20
46.3054
 30
0.0
 40
0
 41
0
  0
VERTEX
  8
0
 10
18.1528
 20
46.3168
 30
0.0
 40
0
 41
0
  0
SEQEND
 8
0
  0
POLYLINE
  8
0
 62
     250
 66
     1
 10
0
 20
0
 30
0.0
 40
1.462
 41
1.462
  0
VERTEX
  8
0
 10
13.75
 20
46.2086
 30
0.0
 40
0.0203056
 41
0.0203056
  0
VERTEX
  8
0
 10
13.75
 20
46.1149
 30
0.0
 40
0.0203056
 41
0.0203056
  0
SEQEND
 8
0
  0
POLYLINE
  8
0
 62
     250
 66
     1
 10
0
 20
0
 30
0.0
 70
     1
 40
0
 41
0
  0
VERTEX
  8
0
 10
13.75
 20
46.3311
 30
0.0
 40
0
 41
0
  0
VERTEX
  8
0
 10
13.7457
 20
46.3197
 30
0.0
 40
0
 41
0
  0
VERTEX
  8
0
 10
13.7313
 20
46.286
 30
0.0
 40
0
 41
0
  0
VERTEX
  8
0
 10
13.7081
 20
46.2393
 30
0.0
 40
0
 41
0
  0
VERTEX
  8
0
 10
13.6818
 20
46.1953
 30
0.0
 40
0
 41
0
  0
VERTEX
  8
0
 10
13.6611
 20
46.1664
 30
0.0
 40
0
 41
0
  0
VERTEX
  8
0
 10
13.6534
 20
46.1575
 30
0.0
 40
0
 41
0
  0
VERTEX
  8
0
 10
13.75
 20
46.1925
 30
0.0
 40
0
 41
0
  0
VERTEX
  8
0
 10
13.8466
 20
46.1575
 30
0.0
 40
0
 41
0
  0
VERTEX
  8
0
 10
13.8388
 20
46.1664
 30
0.0
 40
0
 41
0
  0
VERTEX
  8
0
 10
13.8181
 20
46.1953
 30
0.0
 40
0
 41
0
  0
VERTEX
  8
0
 10
13.7918
 20
46.2393
 30
0.0
 40
0
 41
0
  0
VERTEX
  8
0
 10
13.7687
 20
46.286
 30
0.0
 40
0
 41
0
  0
VERTEX
  8
0
 10
13.7542
 20
46.3197
 30
0.0
 40
0
 41
0
  0
VERTEX
  8
0
 10
13.75
 20
46.3311
 30
0.0
 40
0
 41
0
  0
SEQEND
 8
0
  0
POLYLINE
  8
0
 62
     250
 66
     1
 10
0
 20
0
 30
0.0
 40
1.276
 41
1.276
  0
VERTEX
  8
0
 10
25.5139
 20
46.1524
 30
0.0
 40
0.0177222
 41
0.0177222
  0
VERTEX
  8
0
 10
25.5139
 20
46.0724
 30
0.0
 40
0.0177222
 41
0.0177222
  0
SEQEND
 8
0
  0
POLYLINE
  8
0
 62
     250
 66
     1
 10
0
 20
0
 30
0.0
 70
     1
 40
0
 41
0
  0
VERTEX
  8
0
 10
25.5139
 20
46.2593
 30
0.0
 40
0
 41
0
  0
VERTEX
  8
0
 10
25.5101
 20
46.2493
 30
0.0
 40
0
 41
0
  0
VERTEX
  8
0
 10
25.4975
 20
46.2199
 30
0.0
 40
0
 41
0
  0
VERTEX
  8
0
 10
25.4774
 20
46.1792
 30
0.0
 40
0
 41
0
  0
VERTEX
  8
0
 10
25.4543
 20
46.1407
 30
0.0
 40
0
 41
0
  0
VERTEX
  8
0
 10
25.4363
 20
46.1156
 30
0.0
 40
0
 41
0
  0
VERTEX
  8
0
 10
25.4296
 20
46.1078
 30
0.0
 40
0
 41
0
  0
VERTEX
  8
0
 10
25.5139
 20
46.1383
 30
0.0
 40
0
 41
0
  0
VERTEX
  8
0
 10
25.5982
 20
46.1078
 30
0.0
 40
0
 41
0
  0
VERTEX
  8
0
 10
25.5914
 20
46.1156
 30
0.0
 40
0
 41
0
  0
VERTEX
  8
0
 10
25.5733
 20
46.1407
 30
0.0
 40
0
 41
0
  0
VERTEX
  8
0
 10
25.5504
 20
46.1792
 30
0.0
 40
0
 41
0
  0
VERTEX
  8
0
 10
25.5301
 20
46.2199
 30
0.0
 40
0
 41
0
  0
VERTEX
  8
0
 10
25.5176
 20
46.2493
 30
0.0
 40
0
 41
0
  0
VERTEX
  8
0
 10
25.5139
 20
46.2593
 30
0.0
 40
0
 41
0
  0
SEQEND
 8
0
  0
POLYLINE
  8
0
 62
     250
 66
     1
 10
0
 20
0
 30
0.0
 40
0.992
 41
0.992
  0
VERTEX
  8
0
 10
32.3565
 20
39.1878
 30
0.0
 40
0.0137778
 41
0.0137778
  0
VERTEX
  8
0
 10
32.4804
 20
38.8206
 30
0.0
 40
0.0137778
 41
0.0137778
  0
SEQEND
 8
0
  0
POLYLINE
  8
0
 62
     250
 66
     1
 10
0
 20
0
 30
0.0
 40
1.276
 41
1.276
  0
VERTEX
  8
0
 10
29.7222
 20
46.1376
 30
0.0
 40
0.0177222
 41
0.0177222
  0
VERTEX
  8
0
 10
29.7222
 20
46.0575
 30
0.0
 40
0.0177222
 41
0.0177222
  0
SEQEND
 8
0
  0
POLYLINE
  8
0
 62
     250
 66
     1
 10
0
 20
0
 30
0.0
 70
     1
 40
0
 41
0
  0
VERTEX
  8
0
 10
29.7222
 20
46.2446
 30
0.0
 40
0
 41
0
  0
VERTEX
  8
0
 10
29.7175
 20
46.2319
 30
0.0
 40
0
 41
0
  0
VERTEX
  8
0
 10
29.6857
 20
46.1644
 30
0.0
 40
0
 41
0
  0
VERTEX
  8
0
 10
29.6464
 20
46.1028
 30
0.0
 40
0
 41
0
  0
VERTEX
  8
0
 10
29.6379
 20
46.0931
 30
0.0
 40
0
 41
0
  0
VERTEX
  8
0
 10
29.7222
 20
46.1235
 30
0.0
 40
0
 41
0
  0
VERTEX
  8
0
 10
29.8065
 20
46.0931
 30
0.0
 40
0
 41
0
  0
VERTEX
  8
0
 10
29.7981
 20
46.1028
 30
0.0
 40
0
 41
0
  0
VERTEX
  8
0
 10
29.7587
 20
46.1644
 30
0.0
 40
0
 41
0
  0
VERTEX
  8
0
 10
29.7269
 20
46.2319
 30
0.0
 40
0
 41
0
  0
VERTEX
  8
0
 10
29.7222
 20
46.2446
 30
0.0
 40
0
 41
0
  0
SEQEND
 8
0
  0
POLYLINE
  8
0
 62
     250
 66
     1
 10
0
 20
0
 30
0.0
 40
1
 41
1
  0
VERTEX
  8
0
 10
12.3679
 20
46.4481
 30
0.0
 40
0.0138889
 41
0.0138889
  0
VERTEX
  8
0
 10
12.3669
 20
46.2513
 30
0.0
 40
0.0138889
 41
0.0138889
  0
SEQEND
 8
0
  0
POLYLINE
  8
0
 62
     250
 66
     1
 10
0
 20
0
 30
0.0
 40
1
 41
1
  0
VERTEX
  8
0
 10
31.1004
 20
46.3481
 30
0.0
 40
0.0138889
 41
0.0138889
  0
VERTEX
  8
0
 10
31.0994
 20
46.1512
 30
0.0
 40
0.0138889
 41
0.0138889
  0
SEQEND
 8
0
  0
POLYLINE
  8
0
 62
     250
 66
     1
 10
0
 20
0
 30
0.0
 40
1
 41
1
  0
VERTEX
  8
0
 10
14.7264
 20
35.3214
 30
0.0
 40
0.0138889
 41
0.0138889
  0
VERTEX
  8
0
 10
14.9168
 20
35.3712
 30
0.0
 40
0.0138889
 41
0.0138889
  0
SEQEND
 8
0
  0
POLYLINE
  8
0
 62
     250
 66
     1
 10
0
 20
0
 30
0.0
 40
1
 41
1
  0
VERTEX
  8
0
 10
15.4775
 20
35.0508
 30
0.0
 40
0.0138889
 41
0.0138889
  0
VERTEX
  8
0
 10
15.3776
 20
35.2204
 30
0.0
 40
0.0138889
 41
0.0138889
  0
SEQEND
 8
0
  0
POLYLINE
  8
0
 62
     250
 66
     1
 10
0
 20
0
 30
0.0
 40
0.992
 41
0.992
  0
VERTEX
  8
0
 10
32.5576
 20
39.4681
 30
0.0
 40
0.0137778
 41
0.0137778
  0
VERTEX
  8
0
 10
32.7515
 20
39.5025
 30
0.0
 40
0.0137778
 41
0.0137778
  0
SEQEND
 8
0
  0
POLYLINE
  8
0
 62
     250
 66
     1
 10
0
 20
0
 30
0.0
 70
     1
 40
0.992
 41
0.992
  0
VERTEX
  8
0
 10
0.245171
 20
38.6021
 30
0.0
 40
0.0137778
 41
0.0137778
  0
VERTEX
  8
0
 10
7.41146
 20
46.31
 30
0.0
 40
0.0137778
 41
0.0137778
  0
VERTEX
  8
0
 10
7.53288
 20
46.195
 30
0.0
 40
0.0137778
 41
0.0137778
  0
VERTEX
  8
0
 10
7.89117
 20
45.8432
 30
0.0
 40
0.0137778
 41
0.0137778
  0
VERTEX
  8
0
 10
8.35379
 20
45.3683
 30
0.0
 40
0.0137778
 41
0.0137778
  0
VERTEX
  8
0
 10
8.7991
 20
44.8854
 30
0.0
 40
0.0137778
 41
0.0137778
  0
VERTEX
  8
0
 10
9.22706
 20
44.3947
 30
0.0
 40
0.0137778
 41
0.0137778
  0
VERTEX
  8
0
 10
9.63737
 20
43.8961
 30
0.0
 40
0.0137778
 41
0.0137778
  0
VERTEX
  8
0
 10
10.03
 20
43.3896
 30
0.0
 40
0.0137778
 41
0.0137778
  0
VERTEX
  8
0
 10
10.4047
 20
42.8753
 30
0.0
 40
0.0137778
 41
0.0137778
  0
VERTEX
  8
0
 10
10.7615
 20
42.3533
 30
0.0
 40
0.0137778
 41
0.0137778
  0
VERTEX
  8
0
 10
11.1
 20
41.8236
 30
0.0
 40
0.0137778
 41
0.0137778
  0
VERTEX
  8
0
 10
11.4203
 20
41.2861
 30
0.0
 40
0.0137778
 41
0.0137778
  0
VERTEX
  8
0
 10
11.7222
 20
40.7411
 30
0.0
 40
0.0137778
 41
0.0137778
  0
VERTEX
  8
0
 10
12.0054
 20
40.1885
 30
0.0
 40
0.0137778
 41
0.0137778
  0
VERTEX
  8
0
 10
12.2698
 20
39.6282
 30
0.0
 40
0.0137778
 41
0.0137778
  0
VERTEX
  8
0
 10
12.5154
 20
39.0606
 30
0.0
 40
0.0137778
 41
0.0137778
  0
VERTEX
  8
0
 10
12.7419
 20
38.4853
 30
0.0
 40
0.0137778
 41
0.0137778
  0
VERTEX
  8
0
 10
12.9492
 20
37.9026
 30
0.0
 40
0.0137778
 41
0.0137778
  0
VERTEX
  8
0
 10
13.1372
 20
37.3126
 30
0.0
 40
0.0137778
 41
0.0137778
  0
VERTEX
  8
0
 10
13.3057
 20
36.7153
 30
0.0
 40
0.0137778
 41
0.0137778
  0
VERTEX
  8
0
 10
13.4546
 20
36.1106
 30
0.0
 40
0.0137778
 41
0.0137778
  0
VERTEX
  8
0
 10
13.5837
 20
35.4986
 30
0.0
 40
0.0137778
 41
0.0137778
  0
VERTEX
  8
0
 10
13.6928
 20
34.8794
 30
0.0
 40
0.0137778
 41
0.0137778
  0
VERTEX
  8
0
 10
13.7819
 20
34.2531
 30
0.0
 40
0.0137778
 41
0.0137778
  0
VERTEX
  8
0
 10
13.8508
 20
33.6194
 30
0.0
 40
0.0137778
 41
0.0137778
  0
VERTEX
  8
0
 10
13.8993
 20
32.9789
 30
0.0
 40
0.0137778
 41
0.0137778
  0
VERTEX
  8
0
 10
13.9272
 20
32.3311
 30
0.0
 40
0.0137778
 41
0.0137778
  0
VERTEX
  8
0
 10
13.9346
 20
31.6764
 30
0.0
 40
0.0137778
 41
0.0137778
  0
VERTEX
  8
0
 10
13.921
 20
31.0147
 30
0.0
 40
0.0137778
 41
0.0137778
  0
VERTEX
  8
0
 10
13.8866
 20
30.346
 30
0.0
 40
0.0137778
 41
0.0137778
  0
VERTEX
  8
0
 10
13.8309
 20
29.6704
 30
0.0
 40
0.0137778
 41
0.0137778
  0
VERTEX
  8
0
 10
13.7541
 20
28.9881
 30
0.0
 40
0.0137778
 41
0.0137778
  0
VERTEX
  8
0
 10
13.6559
 20
28.2988
 30
0.0
 40
0.0137778
 41
0.0137778
  0
VERTEX
  8
0
 10
13.5685
 20
27.7763
 30
0.0
 40
0.0137778
 41
0.0137778
  0
VERTEX
  8
0
 10
13.5361
 20
27.6026
 30
0.0
 40
0.0137778
 41
0.0137778
  0
VERTEX
  8
0
 10
1.7659
 20
28.1651
 30
0.0
 40
0.0137778
 41
0.0137778
  0
VERTEX
  8
0
 10
1.84879
 20
28.3451
 30
0.0
 40
0.0137778
 41
0.0137778
  0
VERTEX
  8
0
 10
2.079
 20
28.8936
 30
0.0
 40
0.0137778
 41
0.0137778
  0
VERTEX
  8
0
 10
2.33826
 20
29.6042
 30
0.0
 40
0.0137778
 41
0.0137778
  0
VERTEX
  8
0
 10
2.54351
 20
30.2988
 30
0.0
 40
0.0137778
 41
0.0137778
  0
VERTEX
  8
0
 10
2.69467
 20
30.9786
 30
0.0
 40
0.0137778
 41
0.0137778
  0
VERTEX
  8
0
 10
2.79161
 20
31.6457
 30
0.0
 40
0.0137778
 41
0.0137778
  0
VERTEX
  8
0
 10
2.83421
 20
32.3015
 30
0.0
 40
0.0137778
 41
0.0137778
  0
VERTEX
  8
0
 10
2.82232
 20
32.9478
 30
0.0
 40
0.0137778
 41
0.0137778
  0
VERTEX
  8
0
 10
2.75586
 20
33.5861
 30
0.0
 40
0.0137778
 41
0.0137778
  0
VERTEX
  8
0
 10
2.63465
 20
34.2181
 30
0.0
 40
0.0137778
 41
0.0137778
  0
VERTEX
  8
0
 10
2.45871
 20
34.8453
 30
0.0
 40
0.0137778
 41
0.0137778
  0
VERTEX
  8
0
 10
2.22775
 20
35.4694
 30
0.0
 40
0.0137778
 41
0.0137778
  0
VERTEX
  8
0
 10
1.94185
 20
36.0922
 30
0.0
 40
0.0137778
 41
0.0137778
  0
VERTEX
  8
0
 10
1.60069
 20
36.7153
 30
0.0
 40
0.0137778
 41
0.0137778
  0
VERTEX
  8
0
 10
1.20426
 20
37.3401
 30
0.0
 40
0.0137778
 41
0.0137778
  0
VERTEX
  8
0
 10
0.752496
 20
37.9686
 30
0.0
 40
0.0137778
 41
0.0137778
  0
VERTEX
  8
0
 10
0.375651
 20
38.4468
 30
0.0
 40
0.0137778
 41
0.0137778
  0
VERTEX
  8
0
 10
0.245171
 20
38.6021
 30
0.0
 40
0.0137778
 41
0.0137778
  0
SEQEND
 8
0
  0
POLYLINE
  8
0
 62
     250
 66
     1
 10
0
 20
0
 30
0.0
 40
0.992
 41
0.992
  0
VERTEX
  8
0
 10
7.14839
 20
46.0271
 30
0.0
 40
0.0137778
 41
0.0137778
  0
VERTEX
  8
0
 10
7.26281
 20
45.9151
 30
0.0
 40
0.0137778
 41
0.0137778
  0
VERTEX
  8
0
 10
7.60032
 20
45.5732
 30
0.0
 40
0.0137778
 41
0.0137778
  0
VERTEX
  8
0
 10
8.04139
 20
45.1068
 30
0.0
 40
0.0137778
 41
0.0137778
  0
VERTEX
  8
0
 10
8.47065
 20
44.6288
 30
0.0
 40
0.0137778
 41
0.0137778
  0
VERTEX
  8
0
 10
8.88726
 20
44.14
 30
0.0
 40
0.0137778
 41
0.0137778
  0
VERTEX
  8
0
 10
9.29025
 20
43.6415
 30
0.0
 40
0.0137778
 41
0.0137778
  0
VERTEX
  8
0
 10
9.67888
 20
43.1343
 30
0.0
 40
0.0137778
 41
0.0137778
  0
VERTEX
  8
0
 10
10.0521
 20
42.619
 30
0.0
 40
0.0137778
 41
0.0137778
  0
VERTEX
  8
0
 10
10.4092
 20
42.0968
 30
0.0
 40
0.0137778
 41
0.0137778
  0
VERTEX
  8
0
 10
10.7491
 20
41.5685
 30
0.0
 40
0.0137778
 41
0.0137778
  0
VERTEX
  8
0
 10
11.0711
 20
41.035
 30
0.0
 40
0.0137778
 41
0.0137778
  0
VERTEX
  8
0
 10
11.3742
 20
40.4972
 30
0.0
 40
0.0137778
 41
0.0137778
  0
VERTEX
  8
0
 10
11.6577
 20
39.9561
 30
0.0
 40
0.0137778
 41
0.0137778
  0
VERTEX
  8
0
 10
11.9204
 20
39.4126
 30
0.0
 40
0.0137778
 41
0.0137778
  0
VERTEX
  8
0
 10
12.1617
 20
38.8676
 30
0.0
 40
0.0137778
 41
0.0137778
  0
VERTEX
  8
0
 10
12.3805
 20
38.3221
 30
0.0
 40
0.0137778
 41
0.0137778
  0
VERTEX
  8
0
 10
12.5299
 20
37.914
 30
0.0
 40
0.0137778
 41
0.0137778
  0
VERTEX
  8
0
 10
12.5762
 20
37.7768
 30
0.0
 40
0.0137778
 41
0.0137778
  0
VERTEX
  8
0
 10
12.6248
 20
37.6325
 30
0.0
 40
0.0137778
 41
0.0137778
  0
VERTEX
  8
0
 10
12.761
 20
37.1962
 30
0.0
 40
0.0137778
 41
0.0137778
  0
VERTEX
  8
0
 10
12.9264
 20
36.6083
 30
0.0
 40
0.0137778
 41
0.0137778
  0
VERTEX
  8
0
 10
13.0723
 20
36.0136
 30
0.0
 40
0.0137778
 41
0.0137778
  0
VERTEX
  8
0
 10
13.1987
 20
35.4125
 30
0.0
 40
0.0137778
 41
0.0137778
  0
VERTEX
  8
0
 10
13.3053
 20
34.8056
 30
0.0
 40
0.0137778
 41
0.0137778
  0
VERTEX
  8
0
 10
13.3923
 20
34.1935
 30
0.0
 40
0.0137778
 41
0.0137778
  0
VERTEX
  8
0
 10
13.4592
 20
33.5767
 30
0.0
 40
0.0137778
 41
0.0137778
  0
VERTEX
  8
0
 10
13.4971
 20
33.111
 30
0.0
 40
0.0137778
 41
0.0137778
  0
VERTEX
  8
0
 10
13.5063
 20
32.9556
 30
0.0
 40
0.0137778
 41
0.0137778
  0
VERTEX
  8
0
 10
13.5241
 20
32.6547
 30
0.0
 40
0.0137778
 41
0.0137778
  0
VERTEX
  8
0
 10
13.5407
 20
31.7503
 30
0.0
 40
0.0137778
 41
0.0137778
  0
VERTEX
  8
0
 10
13.5026
 20
30.5221
 30
0.0
 40
0.0137778
 41
0.0137778
  0
VERTEX
  8
0
 10
13.3921
 20
29.275
 30
0.0
 40
0.0137778
 41
0.0137778
  0
VERTEX
  8
0
 10
13.2637
 20
28.3267
 30
0.0
 40
0.0137778
 41
0.0137778
  0
VERTEX
  8
0
 10
13.2097
 20
28.0124
 30
0.0
 40
0.0137778
 41
0.0137778
  0
VERTEX
  8
0
 10
2.35661
 20
28.5311
 30
0.0
 40
0.0137778
 41
0.0137778
  0
VERTEX
  8
0
 10
2.42796
 20
28.7021
 30
0.0
 40
0.0137778
 41
0.0137778
  0
VERTEX
  8
0
 10
2.62104
 20
29.2242
 30
0.0
 40
0.0137778
 41
0.0137778
  0
VERTEX
  8
0
 10
2.83279
 20
29.9089
 30
0.0
 40
0.0137778
 41
0.0137778
  0
VERTEX
  8
0
 10
2.99229
 20
30.586
 30
0.0
 40
0.0137778
 41
0.0137778
  0
VERTEX
  8
0
 10
3.10015
 20
31.2557
 30
0.0
 40
0.0137778
 41
0.0137778
  0
VERTEX
  8
0
 10
3.15674
 20
31.9185
 30
0.0
 40
0.0137778
 41
0.0137778
  0
VERTEX
  8
0
 10
3.1626
 20
32.5749
 30
0.0
 40
0.0137778
 41
0.0137778
  0
VERTEX
  8
0
 10
3.11822
 20
33.2253
 30
0.0
 40
0.0137778
 41
0.0137778
  0
VERTEX
  8
0
 10
3.02403
 20
33.8703
 30
0.0
 40
0.0137778
 41
0.0137778
  0
VERTEX
  8
0
 10
2.88058
 20
34.5101
 30
0.0
 40
0.0137778
 41
0.0137778
  0
VERTEX
  8
0
 10
2.68832
 20
35.1453
 30
0.0
 40
0.0137778
 41
0.0137778
  0
VERTEX
  8
0
 10
2.44769
 20
35.7762
 30
0.0
 40
0.0137778
 41
0.0137778
  0
VERTEX
  8
0
 10
2.15929
 20
36.4036
 30
0.0
 40
0.0137778
 41
0.0137778
  0
VERTEX
  8
0
 10
1.82351
 20
37.0275
 30
0.0
 40
0.0137778
 41
0.0137778
  0
VERTEX
  8
0
 10
1.44092
 20
37.6487
 30
0.0
 40
0.0137778
 41
0.0137778
  0
VERTEX
  8
0
 10
1.01194
 20
38.2675
 30
0.0
 40
0.0137778
 41
0.0137778
  0
VERTEX
  8
0
 10
0.659289
 20
38.7329
 30
0.0
 40
0.0137778
 41
0.0137778
  0
VERTEX
  8
0
 10
0.537056
 20
38.8842
 30
0.0
 40
0.0137778
 41
0.0137778
  0
SEQEND
 8
0
  0
POLYLINE
  8
0
 62
     250
 66
     1
 10
0
 20
0
 30
0.0
 40
0.992
 41
0.992
  0
VERTEX
  8
0
 10
13.143
 20
27.4981
 30
0.0
 40
0.0137778
 41
0.0137778
  0
VERTEX
  8
0
 10
13.1775
 20
27.7197
 30
0.0
 40
0.0137778
 41
0.0137778
  0
SEQEND
 8
0
  0
POLYLINE
  8
0
 62
     250
 66
     1
 10
0
 20
0
 30
0.0
 40
0.992
 41
0.992
  0
VERTEX
  8
0
 10
13.7024
 20
27.9738
 30
0.0
 40
0.0137778
 41
0.0137778
  0
VERTEX
  8
0
 10
13.4918
 20
27.9903
 30
0.0
 40
0.0137778
 41
0.0137778
  0
SEQEND
 8
0
  0
POLYLINE
  8
0
 62
     250
 66
     1
 10
0
 20
0
 30
0.0
 40
0.992
 41
0.992
  0
VERTEX
  8
0
 10
1.83431
 20
28.5476
 30
0.0
 40
0.0137778
 41
0.0137778
  0
VERTEX
  8
0
 10
2.05746
 20
28.5442
 30
0.0
 40
0.0137778
 41
0.0137778
  0
SEQEND
 8
0
  0
POLYLINE
  8
0
 62
     250
 66
     1
 10
0
 20
0
 30
0.0
 40
0.992
 41
0.992
  0
VERTEX
  8
0
 10
2.18924
 20
28.0872
 30
0.0
 40
0.0137778
 41
0.0137778
  0
VERTEX
  8
0
 10
2.27393
 20
28.2649
 30
0.0
 40
0.0137778
 41
0.0137778
  0
SEQEND
 8
0
  0
POLYLINE
  8
0
 62
     250
 66
     1
 10
0
 20
0
 30
0.0
 40
0.992
 41
0.992
  0
VERTEX
  8
0
 10
2.3909
 20
34.4526
 30
0.0
 40
0.0137778
 41
0.0137778
  0
VERTEX
  8
0
 10
2.76585
 20
34.5625
 30
0.0
 40
0.0137778
 41
0.0137778
  0
SEQEND
 8
0
  0
POLYLINE
  8
0
 62
     250
 66
     1
 10
0
 20
0
 30
0.0
 40
0.992
 41
0.992
  0
VERTEX
  8
0
 10
2.5159
 20
34.0607
 30
0.0
 40
0.0137778
 41
0.0137778
  0
VERTEX
  8
0
 10
2.87001
 20
34.1649
 30
0.0
 40
0.0137778
 41
0.0137778
  0
SEQEND
 8
0
  0
POLYLINE
  8
0
 62
     250
 66
     1
 10
0
 20
0
 30
0.0
 40
0.992
 41
0.992
  0
VERTEX
  8
0
 10
6.57818
 20
28.1464
 30
0.0
 40
0.0137778
 41
0.0137778
  0
VERTEX
  8
0
 10
6.57818
 20
27.811
 30
0.0
 40
0.0137778
 41
0.0137778
  0
SEQEND
 8
0
  0
POLYLINE
  8
0
 62
     250
 66
     1
 10
0
 20
0
 30
0.0
 40
0.992
 41
0.992
  0
VERTEX
  8
0
 10
5.16357
 20
43.4354
 30
0.0
 40
0.0137778
 41
0.0137778
  0
VERTEX
  8
0
 10
5.49289
 20
29.8315
 30
0.0
 40
0.0137778
 41
0.0137778
  0
SEQEND
 8
0
  0
POLYLINE
  8
0
 62
     250
 66
     1
 10
0
 20
0
 30
0.0
 70
     1
 40
0
 41
0
  0
VERTEX
  8
0
 10
5.16157
 20
43.5186
 30
0.0
 40
0
 41
0
  0
VERTEX
  8
0
 10
5.15815
 20
43.5087
 30
0.0
 40
0
 41
0
  0
VERTEX
  8
0
 10
5.13471
 20
43.4556
 30
0.0
 40
0
 41
0
  0
VERTEX
  8
0
 10
5.10525
 20
43.4069
 30
0.0
 40
0
 41
0
  0
VERTEX
  8
0
 10
5.0989
 20
43.3992
 30
0.0
 40
0
 41
0
  0
VERTEX
  8
0
 10
5.16385
 20
43.4244
 30
0.0
 40
0
 41
0
  0
VERTEX
  8
0
 10
5.22993
 20
43.4024
 30
0.0
 40
0
 41
0
  0
VERTEX
  8
0
 10
5.22314
 20
43.4097
 30
0.0
 40
0
 41
0
  0
VERTEX
  8
0
 10
5.1914
 20
43.4569
 30
0.0
 40
0
 41
0
  0
VERTEX
  8
0
 10
5.16542
 20
43.5089
 30
0.0
 40
0
 41
0
  0
VERTEX
  8
0
 10
5.16157
 20
43.5186
 30
0.0
 40
0
 41
0
  0
SEQEND
 8
0
  0
POLYLINE
  8
0
 62
     250
 66
     1
 10
0
 20
0
 30
0.0
 70
     1
 40
0
 41
0
  0
VERTEX
  8
0
 10
5.4949
 20
29.7483
 30
0.0
 40
0
 41
0
  0
VERTEX
  8
0
 10
5.491
 20
29.7581
 30
0.0
 40
0
 41
0
  0
VERTEX
  8
0
 10
5.465
 20
29.81
 30
0.0
 40
0
 41
0
  0
VERTEX
  8
0
 10
5.43326
 20
29.8572
 30
0.0
 40
0
 41
0
  0
VERTEX
  8
0
 10
5.42654
 20
29.8646
 30
0.0
 40
0
 41
0
  0
VERTEX
  8
0
 10
5.49262
 20
29.8425
 30
0.0
 40
0
 41
0
  0
VERTEX
  8
0
 10
5.55757
 20
29.8678
 30
0.0
 40
0
 41
0
  0
VERTEX
  8
0
 10
5.55117
 20
29.8601
 30
0.0
 40
0
 41
0
  0
VERTEX
  8
0
 10
5.52171
 20
29.8114
 30
0.0
 40
0
 41
0
  0
VERTEX
  8
0
 10
5.49826
 20
29.7582
 30
0.0
 40
0
 41
0
  0
VERTEX
  8
0
 10
5.4949
 20
29.7483
 30
0.0
 40
0
 41
0
  0
SEQEND
 8
0
  0
POLYLINE
  8
0
 62
     250
 66
     1
 10
0
 20
0
 30
0.0
 40
0.992
 41
0.992
  0
VERTEX
  8
0
 10
0.754937
 20
39.0299
 30
0.0
 40
0.0137778
 41
0.0137778
  0
VERTEX
  8
0
 10
0.801975
 20
38.9921
 30
0.0
 40
0.0137778
 41
0.0137778
  0
SEQEND
 8
0
  0
POLYLINE
  8
0
 62
     250
 66
     1
 10
0
 20
0
 30
0.0
 70
     1
 40
0
 41
0
  0
VERTEX
  8
0
 10
0.690213
 20
39.0821
 30
0.0
 40
0
 41
0
  0
VERTEX
  8
0
 10
0.695529
 20
39.0731
 30
0.0
 40
0
 41
0
  0
VERTEX
  8
0
 10
0.720865
 20
39.0208
 30
0.0
 40
0
 41
0
  0
VERTEX
  8
0
 10
0.73904
 20
38.9669
 30
0.0
 40
0
 41
0
  0
VERTEX
  8
0
 10
0.740831
 20
38.9571
 30
0.0
 40
0
 41
0
  0
VERTEX
  8
0
 10
0.763456
 20
39.0231
 30
0.0
 40
0
 41
0
  0
VERTEX
  8
0
 10
0.823025
 20
39.0592
 30
0.0
 40
0
 41
0
  0
VERTEX
  8
0
 10
0.813043
 20
39.0588
 30
0.0
 40
0
 41
0
  0
VERTEX
  8
0
 10
0.756456
 20
39.065
 30
0.0
 40
0
 41
0
  0
VERTEX
  8
0
 10
0.700087
 20
39.0787
 30
0.0
 40
0
 41
0
  0
VERTEX
  8
0
 10
0.690213
 20
39.0821
 30
0.0
 40
0
 41
0
  0
SEQEND
 8
0
  0
POLYLINE
  8
0
 62
     250
 66
     1
 10
0
 20
0
 30
0.0
 40
0.992
 41
0.992
  0
VERTEX
  8
0
 10
5.28819
 20
43.7604
 30
0.0
 40
0.0137778
 41
0.0137778
  0
VERTEX
  8
0
 10
5.24143
 20
43.8072
 30
0.0
 40
0.0137778
 41
0.0137778
  0
SEQEND
 8
0
  0
POLYLINE
  8
0
 62
     250
 66
     1
 10
0
 20
0
 30
0.0
 70
     1
 40
0
 41
0
  0
VERTEX
  8
0
 10
5.18261
 20
43.866
 30
0.0
 40
0
 41
0
  0
VERTEX
  8
0
 10
5.19206
 20
43.8617
 30
0.0
 40
0
 41
0
  0
VERTEX
  8
0
 10
5.24669
 20
43.8421
 30
0.0
 40
0
 41
0
  0
VERTEX
  8
0
 10
5.30225
 20
43.8297
 30
0.0
 40
0
 41
0
  0
VERTEX
  8
0
 10
5.31222
 20
43.829
 30
0.0
 40
0
 41
0
  0
VERTEX
  8
0
 10
5.24914
 20
43.7994
 30
0.0
 40
0
 41
0
  0
VERTEX
  8
0
 10
5.21957
 20
43.7364
 30
0.0
 40
0
 41
0
  0
VERTEX
  8
0
 10
5.21886
 20
43.7464
 30
0.0
 40
0
 41
0
  0
VERTEX
  8
0
 10
5.2066
 20
43.8019
 30
0.0
 40
0
 41
0
  0
VERTEX
  8
0
 10
5.18696
 20
43.8565
 30
0.0
 40
0
 41
0
  0
VERTEX
  8
0
 10
5.18261
 20
43.866
 30
0.0
 40
0
 41
0
  0
SEQEND
 8
0
  0
POLYLINE
  8
0
 62
     250
 66
     1
 10
0
 20
0
 30
0.0
 40
1
 41
1
  0
VERTEX
  8
0
 10
4.38146
 20
42.4021
 30
0.0
 40
0.0138889
 41
0.0138889
  0
VERTEX
  8
0
 10
4.38146
 20
42.3825
 30
0.0
 40
0.0138889
 41
0.0138889
  0
VERTEX
  8
0
 10
4.36176
 20
42.3825
 30
0.0
 40
0.0138889
 41
0.0138889
  0
SEQEND
 8
0
  0
POLYLINE
  8
0
 62
     250
 66
     1
 10
0
 20
0
 30
0.0
 40
1
 41
1
  0
VERTEX
  8
0
 10
4.32243
 20
42.3825
 30
0.0
 40
0.0138889
 41
0.0138889
  0
VERTEX
  8
0
 10
0.483832
 20
42.3825
 30
0.0
 40
0.0138889
 41
0.0138889
  0
SEQEND
 8
0
  0
POLYLINE
  8
0
 62
     250
 66
     1
 10
0
 20
0
 30
0.0
 40
1
 41
1
  0
VERTEX
  8
0
 10
0.464139
 20
42.3825
 30
0.0
 40
0.0138889
 41
0.0138889
  0
VERTEX
  8
0
 10
0.444444
 20
42.3825
 30
0.0
 40
0.0138889
 41
0.0138889
  0
VERTEX
  8
0
 10
0.444444
 20
42.4021
 30
0.0
 40
0.0138889
 41
0.0138889
  0
SEQEND
 8
0
  0
POLYLINE
  8
0
 62
     250
 66
     1
 10
0
 20
0
 30
0.0
 40
1
 41
1
  0
VERTEX
  8
0
 10
0.444444
 20
42.4415
 30
0.0
 40
0.0138889
 41
0.0138889
  0
VERTEX
  8
0
 10
0.444444
 20
46.28
 30
0.0
 40
0.0138889
 41
0.0138889
  0
SEQEND
 8
0
  0
POLYLINE
  8
0
 62
     250
 66
     1
 10
0
 20
0
 30
0.0
 40
1
 41
1
  0
VERTEX
  8
0
 10
0.444444
 20
46.2997
 30
0.0
 40
0.0138889
 41
0.0138889
  0
VERTEX
  8
0
 10
0.444444
 20
46.3194
 30
0.0
 40
0.0138889
 41
0.0138889
  0
VERTEX
  8
0
 10
0.464139
 20
46.3194
 30
0.0
 40
0.0138889
 41
0.0138889
  0
SEQEND
 8
0
  0
POLYLINE
  8
0
 62
     250
 66
     1
 10
0
 20
0
 30
0.0
 40
1
 41
1
  0
VERTEX
  8
0
 10
0.503526
 20
46.3194
 30
0.0
 40
0.0138889
 41
0.0138889
  0
VERTEX
  8
0
 10
4.34207
 20
46.3194
 30
0.0
 40
0.0138889
 41
0.0138889
  0
SEQEND
 8
0
  0
POLYLINE
  8
0
 62
     250
 66
     1
 10
0
 20
0
 30
0.0
 40
1
 41
1
  0
VERTEX
  8
0
 10
4.36176
 20
46.3194
 30
0.0
 40
0.0138889
 41
0.0138889
  0
VERTEX
  8
0
 10
4.38146
 20
46.3194
 30
0.0
 40
0.0138889
 41
0.0138889
  0
VERTEX
  8
0
 10
4.38146
 20
46.2997
 30
0.0
 40
0.0138889
 41
0.0138889
  0
SEQEND
 8
0
  0
POLYLINE
  8
0
 62
     250
 66
     1
 10
0
 20
0
 30
0.0
 40
1
 41
1
  0
VERTEX
  8
0
 10
4.38146
 20
46.2604
 30
0.0
 40
0.0138889
 41
0.0138889
  0
VERTEX
  8
0
 10
4.38146
 20
42.4218
 30
0.0
 40
0.0138889
 41
0.0138889
  0
SEQEND
 8
0
  0
ENDSEC
  0
EOF
